<svg xmlns="http://www.w3.org/2000/svg" width="219" height="219" fill="none"><g fill="#F4F7F5" opacity=".64"><path d="M111.933 4.258h1.217v1.217h-1.217zm1.217 0h1.217v1.217h-1.217zm1.217 0h1.217v1.217h-1.217z"/><path d="M115.583 4.258h1.217v1.217h-1.217zm1.217 0h1.217v1.217H116.8zm1.217 0h1.217v1.217h-1.217z"/><path d="M119.233 4.258h1.217v1.217h-1.217zm1.217 0h1.217v1.217h-1.217zm1.217 0h1.217v1.217h-1.217z"/><path d="M122.883 4.258h1.217v1.217h-1.217zm1.217 0h1.217v1.217H124.1zm1.217 0h1.217v1.217h-1.217z"/><path d="M126.533 4.258h1.217v1.217h-1.217zm1.217 0h1.217v1.217h-1.217zm1.217 0h1.217v1.217h-1.217z"/><path d="M130.183 4.258h1.217v1.217h-1.217zm-23.116 1.217h1.217v1.217h-1.217z"/><path d="M108.283 5.475h1.217v1.217h-1.217zm1.217 0h1.217v1.217H109.5zm1.217 0h1.217v1.217h-1.217z"/><path d="M111.933 5.475h1.217v1.217h-1.217zm18.25 0h1.217v1.217h-1.217zm1.217 0h1.217v1.217H131.4z"/><path d="M132.617 5.475h1.217v1.217h-1.217z"/><path d="M133.833 5.475h1.217v1.217h-1.217zm1.217 0h1.217v1.217h-1.217zm-31.633 1.217h1.217v1.217h-1.217z"/><path d="M104.633 6.692h1.217v1.217h-1.217zm1.217 0h1.217v1.217h-1.217zm1.217 0h1.217v1.217h-1.217zm27.983 0h1.217v1.217h-1.217zm1.217 0h1.217v1.217h-1.217z"/><path d="M137.483 6.692h1.217v1.217h-1.217zM99.767 7.908h1.217v1.217h-1.217z"/><path d="M100.983 7.908h1.217v1.217h-1.217zm1.217 0h1.217v1.217H102.2zm1.217 0h1.217v1.217h-1.217zm34.066 0h1.217v1.217h-1.217z"/><path d="M138.7 7.908h1.217v1.217H138.7zm1.217 0h1.217v1.217h-1.217zM97.333 9.125h1.217v1.217h-1.217zm1.217 0h1.217v1.217H98.55zm1.217 0h1.217v1.217h-1.217zm40.15 0h1.217v1.217h-1.217z"/><path d="M141.133 9.125h1.217v1.217h-1.217z"/><path d="M142.35 9.125h1.217v1.217h-1.217zM94.9 10.342h1.217v1.217H94.9zm1.217 0h1.217v1.217h-1.217z"/><path d="M97.333 10.342h1.217v1.217h-1.217zm45.017 0h1.217v1.217h-1.217zm1.217 0h1.217v1.217h-1.217z"/><path d="M144.783 10.342H146v1.217h-1.217zm-52.316 1.216h1.217v1.217h-1.217z"/><path d="M93.683 11.558H94.9v1.217h-1.217zm1.217 0h1.217v1.217H94.9zm49.883 0H146v1.217h-1.217zm1.217 0h1.217v1.217H146zm1.217 0h1.217v1.217h-1.217zm-57.184 1.217h1.217v1.217h-1.217zm1.217 0h1.217v1.217H91.25zm1.217 0h1.217v1.217h-1.217zm54.75 0h1.217v1.217h-1.217z"/><path d="M148.433 12.775h1.217v1.217h-1.217zm1.217 0h1.217v1.217h-1.217zM87.6 13.992h1.217v1.217H87.6zm1.217 0h1.217v1.217h-1.217z"/><path d="M90.033 13.992h1.217v1.217h-1.217zm59.617 0h1.217v1.217h-1.217z"/><path d="M150.867 13.992h1.217v1.217h-1.217z"/><path d="M152.083 13.992h1.217v1.217h-1.217zm-66.916 1.216h1.217v1.217h-1.217z"/><path d="M86.383 15.208H87.6v1.217h-1.217zm1.217 0h1.217v1.217H87.6zm64.483 0h1.217v1.217h-1.217zm1.217 0h1.217v1.217H153.3z"/><path d="M154.517 15.208h1.217v1.217h-1.217zM83.95 16.425h1.217v1.217H83.95zm1.217 0h1.217v1.217h-1.217zm69.35 0h1.217v1.217h-1.217z"/><path d="M155.733 16.425h1.217v1.217h-1.217z"/><path d="M156.95 16.425h1.217v1.217h-1.217zm-75.433 1.217h1.217v1.217h-1.217z"/><path d="M82.733 17.642h1.217v1.217h-1.217zm1.217 0h1.217v1.217H83.95zm73 0h1.217v1.217h-1.217zm1.217 0h1.217v1.217h-1.217z"/><path d="M159.383 17.642h1.217v1.217h-1.217zM80.3 18.858h1.217v1.217H80.3zm1.217 0h1.217v1.217h-1.217z"/><path d="M159.383 18.858h1.217v1.217h-1.217z"/><path d="M160.6 18.858h1.217v1.217H160.6zm1.217 0h1.217v1.217h-1.217zm-83.95 1.217h1.217v1.217h-1.217z"/><path d="M79.083 20.075H80.3v1.217h-1.217zm1.217 0h1.217v1.217H80.3zm81.517 0h1.217v1.217h-1.217z"/><path d="M163.033 20.075h1.217v1.217h-1.217zm1.217 0h1.217v1.217h-1.217zm-87.6 1.217h1.217v1.217H76.65zm1.217 0h1.217v1.217h-1.217zm86.383 0h1.217v1.217h-1.217zm1.217 0h1.217v1.217h-1.217z"/><path d="M166.683 21.292h1.217v1.217h-1.217zm-91.25 1.216h1.217v1.217h-1.217zm1.217 0h1.217v1.217H76.65z"/><path d="M166.683 22.508h1.217v1.217h-1.217zm1.217 0h1.217v1.217H167.9z"/><path d="M169.117 22.508h1.217v1.217h-1.217zm-94.9 1.217h1.217v1.217h-1.217z"/><path d="M75.433 23.725h1.217v1.217h-1.217zm93.684 0h1.217v1.217h-1.217z"/><path d="M170.333 23.725h1.217v1.217h-1.217zm1.217 0h1.217v1.217h-1.217zm-99.767 1.217H73v1.217h-1.217zm1.217 0h1.217v1.217H73zm80.3 0h1.217v1.217H153.3z"/><path d="M154.517 24.942h1.217v1.217h-1.217z"/><path d="M155.733 24.942h1.217v1.217h-1.217z"/><path d="M156.95 24.942h1.217v1.217h-1.217zm1.217 0h1.217v1.217h-1.217z"/><path d="M159.383 24.942h1.217v1.217h-1.217z"/><path d="M160.6 24.942h1.217v1.217H160.6zm1.217 0h1.217v1.217h-1.217z"/><path d="M163.033 24.942h1.217v1.217h-1.217zm1.217 0h1.217v1.217h-1.217zm1.217 0h1.217v1.217h-1.217z"/><path d="M166.683 24.942h1.217v1.217h-1.217zm1.217 0h1.217v1.217H167.9z"/><path d="M169.117 24.942h1.217v1.217h-1.217z"/><path d="M170.333 24.942h1.217v1.217h-1.217zm1.217 0h1.217v1.217h-1.217z"/><path d="M172.767 24.942h1.217v1.217h-1.217z"/><path d="M173.983 24.942h1.217v1.217h-1.217zM70.567 26.158h1.217v1.217h-1.217z"/><path d="M71.783 26.158H73v1.217h-1.217zm76.65 0h1.217v1.217h-1.217zm1.217 0h1.217v1.217h-1.217z"/><path d="M150.867 26.158h1.217v1.217h-1.217z"/><path d="M152.083 26.158h1.217v1.217h-1.217zm1.217 0h1.217v1.217H153.3zm18.25 0h1.217v1.217h-1.217z"/><path d="M172.767 26.158h1.217v1.217h-1.217z"/><path d="M173.983 26.158h1.217v1.217h-1.217z"/><path d="M175.2 26.158h1.217v1.217H175.2zm1.217 0h1.217v1.217h-1.217zM69.35 27.375h1.217v1.217H69.35zm1.217 0h1.217v1.217h-1.217zm73 0h1.217v1.217h-1.217z"/><path d="M144.783 27.375H146v1.217h-1.217zm1.217 0h1.217v1.217H146zm1.217 0h1.217v1.217h-1.217z"/><path d="M148.433 27.375h1.217v1.217h-1.217zm26.767 0h1.217v1.217H175.2zm1.217 0h1.217v1.217h-1.217z"/><path d="M177.633 27.375h1.217v1.217h-1.217z"/><path d="M178.85 27.375h1.217v1.217h-1.217zM68.133 28.592h1.217v1.217h-1.217zm1.217 0h1.217v1.217H69.35zm71.783 0h1.217v1.217h-1.217zm1.217 0h1.217v1.217h-1.217zm1.217 0h1.217v1.217h-1.217z"/><path d="M144.783 28.592H146v1.217h-1.217zm34.067 0h1.217v1.217h-1.217zm1.217 0h1.217v1.217h-1.217z"/><path d="M181.283 28.592h1.217v1.217h-1.217zM66.917 29.808h1.217v1.217h-1.217z"/><path d="M68.133 29.808h1.217v1.217h-1.217zm70.567 0h1.217v1.217H138.7zm1.217 0h1.217v1.217h-1.217z"/><path d="M141.133 29.808h1.217v1.217h-1.217zm40.15 0h1.217v1.217h-1.217zm1.217 0h1.217v1.217H182.5zm1.217 0h1.217v1.217h-1.217zM65.7 31.025h1.217v1.217H65.7zm1.217 0h1.217v1.217h-1.217zm68.133 0h1.217v1.217h-1.217z"/><path d="M136.267 31.025h1.217v1.217h-1.217z"/><path d="M137.483 31.025h1.217v1.217h-1.217z"/><path d="M138.7 31.025h1.217v1.217H138.7zm45.017 0h1.217v1.217h-1.217z"/><path d="M184.933 31.025h1.217v1.217h-1.217zm-120.45 1.217H65.7v1.217h-1.217zm1.217 0h1.217v1.217H65.7zm68.133 0h1.217v1.217h-1.217zm1.217 0h1.217v1.217h-1.217zm49.883 0h1.217v1.217h-1.217zm1.217 0h1.217v1.217h-1.217z"/><path d="M63.267 33.458h1.217v1.217h-1.217z"/><path d="M64.483 33.458H65.7v1.217h-1.217zm66.917 0h1.217v1.217H131.4z"/><path d="M132.617 33.458h1.217v1.217h-1.217zm54.75 0h1.217v1.217h-1.217z"/><path d="M188.583 33.458h1.217v1.217h-1.217zM62.05 34.675h1.217v1.217H62.05zm1.217 0h1.217v1.217h-1.217zm65.7 0h1.217v1.217h-1.217z"/><path d="M130.183 34.675h1.217v1.217h-1.217zm1.217 0h1.217v1.217H131.4zm57.183 0h1.217v1.217h-1.217zm1.217 0h1.217v1.217H189.8zM60.833 35.892h1.217v1.217h-1.217zm1.217 0h1.217v1.217H62.05zm64.483 0h1.217v1.217h-1.217zm1.217 0h1.217v1.217h-1.217zm1.217 0h1.217v1.217h-1.217zm60.833 0h1.217v1.217H189.8z"/><path d="M191.017 35.892h1.217v1.217h-1.217zm-131.4 1.216h1.217v1.217h-1.217z"/><path d="M60.833 37.108h1.217v1.217h-1.217zm64.484 0h1.217v1.217h-1.217z"/><path d="M126.533 37.108h1.217v1.217h-1.217zm64.484 0h1.217v1.217h-1.217zM58.4 38.325h1.217v1.217H58.4zm1.217 0h1.217v1.217h-1.217zm63.266 0h1.217v1.217h-1.217zm1.217 0h1.217v1.217H124.1zm1.217 0h1.217v1.217h-1.217zm65.7 0h1.217v1.217h-1.217z"/><path d="M192.233 38.325h1.217v1.217h-1.217zm-135.05 1.217H58.4v1.217h-1.217zm1.217 0h1.217v1.217H58.4zm63.267 0h1.217v1.217h-1.217z"/><path d="M122.883 39.542h1.217v1.217h-1.217zm69.35 0h1.217v1.217h-1.217z"/><path d="M193.45 39.542h1.217v1.217h-1.217zM55.967 40.758h1.217v1.217h-1.217z"/><path d="M57.183 40.758H58.4v1.217h-1.217zm62.05 0h1.217v1.217h-1.217zm1.217 0h1.217v1.217h-1.217zm1.217 0h1.217v1.217h-1.217zm71.783 0h1.217v1.217h-1.217zm1.217 0h1.217v1.217h-1.217zM54.75 41.975h1.217v1.217H54.75zm1.217 0h1.217v1.217h-1.217zm62.05 0h1.217v1.217h-1.217z"/><path d="M119.233 41.975h1.217v1.217h-1.217zm75.434 0h1.217v1.217h-1.217zM53.533 43.192h1.217v1.217h-1.217zm1.217 0h1.217v1.217H54.75zm62.05 0h1.217v1.217H116.8zm1.217 0h1.217v1.217h-1.217zm76.65 0h1.217v1.217h-1.217z"/><path d="M195.883 43.192h1.217v1.217h-1.217zm-142.35 1.216h1.217v1.217h-1.217zm60.834 0h1.217v1.217h-1.217z"/><path d="M115.583 44.408h1.217v1.217h-1.217zm1.217 0h1.217v1.217H116.8zm79.083 0h1.217v1.217h-1.217zM52.317 45.625h1.217v1.217h-1.217zm60.833 0h1.217v1.217h-1.217zm1.217 0h1.217v1.217h-1.217zm81.516 0h1.217v1.217h-1.217z"/><path d="M197.1 45.625h1.217v1.217H197.1zm-146 1.217h1.217v1.217H51.1zm1.217 0h1.217v1.217h-1.217zm59.616 0h1.217v1.217h-1.217zm1.217 0h1.217v1.217h-1.217zm83.95 0h1.217v1.217H197.1zM49.883 48.058H51.1v1.217h-1.217z"/><path d="M51.1 48.058h1.217v1.217H51.1zm59.617 0h1.217v1.217h-1.217z"/><path d="M111.933 48.058h1.217v1.217h-1.217zm85.167 0h1.217v1.217H197.1zm1.217 0h1.217v1.217h-1.217zm-149.65 1.217h1.217v1.217h-1.217z"/><path d="M49.883 49.275H51.1v1.217h-1.217zm59.617 0h1.217v1.217H109.5zm1.217 0h1.217v1.217h-1.217zm87.6 0h1.217v1.217h-1.217zm-149.65 1.217h1.217v1.217h-1.217zm59.616 0h1.217v1.217h-1.217zm1.217 0h1.217v1.217H109.5zm88.817 0h1.217v1.217h-1.217z"/><path d="M199.533 50.492h1.217v1.217h-1.217zM47.45 51.708h1.217v1.217H47.45zm1.217 0h1.217v1.217h-1.217zm58.4 0h1.217v1.217h-1.217z"/><path d="M108.283 51.708h1.217v1.217h-1.217zm91.25 0h1.217v1.217h-1.217zm-153.3 1.217h1.217v1.217h-1.217zm1.217 0h1.217v1.217H47.45zm58.4 0h1.217v1.217h-1.217zm1.217 0h1.217v1.217h-1.217zm92.466 0h1.217v1.217h-1.217zM45.017 54.142h1.217v1.217h-1.217z"/><path d="M46.233 54.142h1.217v1.217h-1.217zm58.4 0h1.217v1.217h-1.217zm1.217 0h1.217v1.217h-1.217zm93.683 0h1.217v1.217h-1.217zm1.217 0h1.217v1.217h-1.217z"/><path d="M45.017 55.358h1.217v1.217h-1.217zm58.4 0h1.217v1.217h-1.217z"/><path d="M104.633 55.358h1.217v1.217h-1.217zm96.117 0h1.217v1.217h-1.217zM43.8 56.575h1.217v1.217H43.8zm1.217 0h1.217v1.217h-1.217zm57.183 0h1.217v1.217H102.2zm1.217 0h1.217v1.217h-1.217zm31.633 0h1.217v1.217h-1.217zm1.217 0h1.217v1.217h-1.217zm64.483 0h1.217v1.217h-1.217zM42.583 57.792H43.8v1.217h-1.217zm1.217 0h1.217v1.217H43.8zm57.183 0h1.217v1.217h-1.217zm1.217 0h1.217v1.217H102.2zm30.417 0h1.217v1.217h-1.217z"/><path d="M133.833 57.792h1.217v1.217h-1.217zm1.217 0h1.217v1.217h-1.217z"/><path d="M136.267 57.792h1.217v1.217h-1.217zm64.483 0h1.217v1.217h-1.217zm1.217 0h1.217v1.217h-1.217zM42.583 59.008H43.8v1.217h-1.217zm57.184 0h1.217v1.217h-1.217z"/><path d="M100.983 59.008h1.217v1.217h-1.217zm29.2 0h1.217v1.217h-1.217zm1.217 0h1.217v1.217H131.4z"/><path d="M132.617 59.008h1.217v1.217h-1.217zm3.65 0h1.217v1.217h-1.217zm64.483 0h1.217v1.217h-1.217zm1.217 0h1.217v1.217h-1.217zm-160.6 1.217h1.217v1.217h-1.217z"/><path d="M42.583 60.225H43.8v1.217h-1.217zm55.967 0h1.217v1.217H98.55zm1.217 0h1.217v1.217h-1.217zm29.2 0h1.217v1.217h-1.217z"/><path d="M130.183 60.225h1.217v1.217h-1.217zm6.084 0h1.217v1.217h-1.217zm65.7 0h1.217v1.217h-1.217zM40.15 61.442h1.217v1.217H40.15zm1.217 0h1.217v1.217h-1.217zm55.966 0h1.217v1.217h-1.217zm1.217 0h1.217v1.217H98.55zm27.983 0h1.217v1.217h-1.217zm1.217 0h1.217v1.217h-1.217zm1.217 0h1.217v1.217h-1.217z"/><path d="M130.183 61.442h1.217v1.217h-1.217zm1.217 0h1.217v1.217H131.4zm4.867 0h1.217v1.217h-1.217zm65.7 0h1.217v1.217h-1.217zM40.15 62.658h1.217v1.217H40.15zm55.967 0h1.217v1.217h-1.217z"/><path d="M97.333 62.658h1.217v1.217h-1.217zm26.767 0h1.217v1.217H124.1zm1.217 0h1.217v1.217h-1.217z"/><path d="M126.533 62.658h1.217v1.217h-1.217zm1.217 0h1.217v1.217h-1.217zm1.217 0h1.217v1.217h-1.217zm2.433 0h1.217v1.217H131.4z"/><path d="M132.617 62.658h1.217v1.217h-1.217z"/><path d="M133.833 62.658h1.217v1.217h-1.217zm2.434 0h1.217v1.217h-1.217zm65.7 0h1.217v1.217h-1.217zM38.933 63.875h1.217v1.217h-1.217zm1.217 0h1.217v1.217H40.15zm54.75 0h1.217v1.217H94.9zm1.217 0h1.217v1.217h-1.217zm26.766 0h1.217v1.217h-1.217zm1.217 0h1.217v1.217H124.1zm4.867 0h1.217v1.217h-1.217z"/><path d="M130.183 63.875h1.217v1.217h-1.217zm1.217 0h1.217v1.217H131.4zm2.433 0h1.217v1.217h-1.217zm1.217 0h1.217v1.217h-1.217z"/><path d="M136.267 63.875h1.217v1.217h-1.217zm65.7 0h1.217v1.217h-1.217zm-164.25 1.217h1.217v1.217h-1.217z"/><path d="M38.933 65.092h1.217v1.217h-1.217zm55.967 0h1.217v1.217H94.9zm27.983 0h1.217v1.217h-1.217zm1.217 0h1.217v1.217H124.1zm7.3 0h1.217v1.217H131.4z"/><path d="M132.617 65.092h1.217v1.217h-1.217z"/><path d="M133.833 65.092h1.217v1.217h-1.217zm2.434 0h1.217v1.217h-1.217zm2.433 0h1.217v1.217H138.7zm1.217 0h1.217v1.217h-1.217z"/><path d="M141.133 65.092h1.217v1.217h-1.217z"/><path d="M142.35 65.092h1.217v1.217h-1.217zm1.217 0h1.217v1.217h-1.217z"/><path d="M144.783 65.092H146v1.217h-1.217zm1.217 0h1.217v1.217H146zm1.217 0h1.217v1.217h-1.217z"/><path d="M148.433 65.092h1.217v1.217h-1.217zm53.534 0h1.217v1.217h-1.217z"/><path d="M203.183 65.092h1.217v1.217h-1.217zM37.717 66.308h1.217v1.217h-1.217zm55.966 0H94.9v1.217h-1.217zm29.2 0h1.217v1.217h-1.217zm1.217 0h1.217v1.217H124.1zm9.733 0h1.217v1.217h-1.217zm1.217 0h1.217v1.217h-1.217z"/><path d="M136.267 66.308h1.217v1.217h-1.217z"/><path d="M137.483 66.308h1.217v1.217h-1.217z"/><path d="M138.7 66.308h1.217v1.217H138.7zm1.217 0h1.217v1.217h-1.217z"/><path d="M141.133 66.308h1.217v1.217h-1.217zm7.3 0h1.217v1.217h-1.217zm1.217 0h1.217v1.217h-1.217zm52.317 0h1.217v1.217h-1.217z"/><path d="M203.183 66.308h1.217v1.217h-1.217zM36.5 67.525h1.217v1.217H36.5zm1.217 0h1.217v1.217h-1.217zm54.75 0h1.217v1.217h-1.217z"/><path d="M93.683 67.525H94.9v1.217h-1.217zm29.2 0h1.217v1.217h-1.217zm1.217 0h1.217v1.217H124.1zm12.167 0h1.217v1.217h-1.217zm4.866 0h1.217v1.217h-1.217zm1.217 0h1.217v1.217h-1.217zm1.217 0h1.217v1.217h-1.217zm7.3 0h1.217v1.217h-1.217z"/><path d="M152.083 67.525h1.217v1.217h-1.217zm51.1 0h1.217v1.217h-1.217zM36.5 68.742h1.217v1.217H36.5zm54.75 0h1.217v1.217H91.25zm1.217 0h1.217v1.217h-1.217zm30.416 0h1.217v1.217h-1.217zm1.217 0h1.217v1.217H124.1zm19.467 0h1.217v1.217h-1.217z"/><path d="M144.783 68.742H146v1.217h-1.217zm1.217 0h1.217v1.217H146zm6.083 0h1.217v1.217h-1.217zm1.217 0h1.217v1.217H153.3zm49.883 0h1.217v1.217h-1.217zm-167.9 1.216H36.5v1.217h-1.217zm1.217 0h1.217v1.217H36.5zm53.533 0h1.217v1.217h-1.217zm1.217 0h1.217v1.217H91.25zm31.633 0h1.217v1.217h-1.217zm1.217 0h1.217v1.217H124.1z"/><path d="M146 69.958h1.217v1.217H146zm1.217 0h1.217v1.217h-1.217z"/><path d="M148.433 69.958h1.217v1.217h-1.217zm4.867 0h1.217v1.217H153.3zm1.217 0h1.217v1.217h-1.217zm48.666 0h1.217v1.217h-1.217zm-167.9 1.217H36.5v1.217h-1.217zm54.75 0h1.217v1.217h-1.217zm32.85 0h1.217v1.217h-1.217zm1.217 0h1.217v1.217H124.1zm24.333 0h1.217v1.217h-1.217zm1.217 0h1.217v1.217h-1.217z"/><path d="M150.867 71.175h1.217v1.217h-1.217zm3.65 0h1.217v1.217h-1.217zm48.666 0h1.217v1.217h-1.217zM34.067 72.392h1.217v1.217h-1.217z"/><path d="M35.283 72.392H36.5v1.217h-1.217zm53.534 0h1.217v1.217h-1.217zm34.066 0h1.217v1.217h-1.217zm1.217 0h1.217v1.217H124.1zm26.767 0h1.217v1.217h-1.217z"/><path d="M152.083 72.392h1.217v1.217h-1.217zm1.217 0h1.217v1.217H153.3z"/><path d="M154.517 72.392h1.217v1.217h-1.217z"/><path d="M155.733 72.392h1.217v1.217h-1.217zm47.45 0h1.217v1.217h-1.217zM32.85 73.608h1.217v1.217H32.85zm1.217 0h1.217v1.217h-1.217zm53.533 0h1.217v1.217H87.6zm1.217 0h1.217v1.217h-1.217zm34.066 0h1.217v1.217h-1.217zm1.217 0h1.217v1.217H124.1zm1.217 0h1.217v1.217h-1.217zm27.983 0h1.217v1.217H153.3z"/><path d="M154.517 73.608h1.217v1.217h-1.217z"/><path d="M155.733 73.608h1.217v1.217h-1.217zm47.45 0h1.217v1.217h-1.217zM32.85 74.825h1.217v1.217H32.85zm53.533 0H87.6v1.217h-1.217zm1.217 0h1.217v1.217H87.6zm34.067 0h1.217v1.217h-1.217z"/><path d="M122.883 74.825h1.217v1.217h-1.217zm2.434 0h1.217v1.217h-1.217z"/><path d="M126.533 74.825h1.217v1.217h-1.217zm1.217 0h1.217v1.217h-1.217zm26.767 0h1.217v1.217h-1.217z"/><path d="M155.733 74.825h1.217v1.217h-1.217zm47.45 0h1.217v1.217h-1.217zm-171.55 1.217h1.217v1.217h-1.217zm1.217 0h1.217v1.217H32.85zm53.533 0H87.6v1.217h-1.217zm34.067 0h1.217v1.217h-1.217zm1.217 0h1.217v1.217h-1.217zm6.083 0h1.217v1.217h-1.217zm1.217 0h1.217v1.217h-1.217z"/><path d="M130.183 76.042h1.217v1.217h-1.217zm23.117 0h1.217v1.217H153.3zm1.217 0h1.217v1.217h-1.217zm48.666 0h1.217v1.217h-1.217zm-171.55 1.216h1.217v1.217h-1.217zm53.534 0h1.217v1.217h-1.217z"/><path d="M86.383 77.258H87.6v1.217h-1.217zm32.85 0h1.217v1.217h-1.217zm1.217 0h1.217v1.217h-1.217zm9.733 0h1.217v1.217h-1.217zm1.217 0h1.217v1.217H131.4z"/><path d="M132.617 77.258h1.217v1.217h-1.217zm19.466 0h1.217v1.217h-1.217zm1.217 0h1.217v1.217H153.3zm49.883 0h1.217v1.217h-1.217zM30.417 78.475h1.217v1.217h-1.217z"/><path d="M31.633 78.475h1.217v1.217h-1.217zm52.317 0h1.217v1.217H83.95zm1.217 0h1.217v1.217h-1.217zm32.85 0h1.217v1.217h-1.217z"/><path d="M119.233 78.475h1.217v1.217h-1.217zm13.384 0h1.217v1.217h-1.217z"/><path d="M133.833 78.475h1.217v1.217h-1.217zm1.217 0h1.217v1.217h-1.217zm17.033 0h1.217v1.217h-1.217zm51.1 0h1.217v1.217h-1.217zM30.417 79.692h1.217v1.217h-1.217zm53.533 0h1.217v1.217H83.95zm32.85 0h1.217v1.217H116.8zm1.217 0h1.217v1.217h-1.217zm17.033 0h1.217v1.217h-1.217z"/><path d="M136.267 79.692h1.217v1.217h-1.217z"/><path d="M137.483 79.692h1.217v1.217h-1.217zm13.384 0h1.217v1.217h-1.217zm52.316 0h1.217v1.217h-1.217zM29.2 80.908h1.217v1.217H29.2zm1.217 0h1.217v1.217h-1.217zm52.316 0h1.217v1.217h-1.217zm1.217 0h1.217v1.217H83.95zm31.633 0h1.217v1.217h-1.217zm1.217 0h1.217v1.217H116.8zm17.033 0h1.217v1.217h-1.217zm1.217 0h1.217v1.217h-1.217z"/><path d="M136.267 80.908h1.217v1.217h-1.217z"/><path d="M137.483 80.908h1.217v1.217h-1.217z"/><path d="M138.7 80.908h1.217v1.217H138.7zm1.217 0h1.217v1.217h-1.217zm9.733 0h1.217v1.217h-1.217zm53.533 0h1.217v1.217h-1.217zM29.2 82.125h1.217v1.217H29.2zm52.317 0h1.217v1.217h-1.217z"/><path d="M82.733 82.125h1.217v1.217h-1.217zm32.85 0h1.217v1.217h-1.217zm15.817 0h1.217v1.217H131.4z"/><path d="M132.617 82.125h1.217v1.217h-1.217z"/><path d="M133.833 82.125h1.217v1.217h-1.217zm6.084 0h1.217v1.217h-1.217z"/><path d="M141.133 82.125h1.217v1.217h-1.217zm7.3 0h1.217v1.217h-1.217zm54.75 0h1.217v1.217h-1.217zM29.2 83.342h1.217v1.217H29.2zm52.317 0h1.217v1.217h-1.217zm32.85 0h1.217v1.217h-1.217z"/><path d="M115.583 83.342h1.217v1.217h-1.217zm13.384 0h1.217v1.217h-1.217z"/><path d="M130.183 83.342h1.217v1.217h-1.217zm1.217 0h1.217v1.217H131.4zm9.733 0h1.217v1.217h-1.217z"/><path d="M142.35 83.342h1.217v1.217h-1.217zm4.867 0h1.217v1.217h-1.217z"/><path d="M148.433 83.342h1.217v1.217h-1.217zm54.75 0h1.217v1.217h-1.217zm-175.2 1.216H29.2v1.217h-1.217zm1.217 0h1.217v1.217H29.2zm51.1 0h1.217v1.217H80.3zm1.217 0h1.217v1.217h-1.217zm31.633 0h1.217v1.217h-1.217zm1.217 0h1.217v1.217h-1.217zm13.383 0h1.217v1.217h-1.217zm1.217 0h1.217v1.217h-1.217zm13.383 0h1.217v1.217h-1.217zm1.217 0h1.217v1.217h-1.217zm2.433 0h1.217v1.217H146z"/><path d="M147.217 84.558h1.217v1.217h-1.217zm55.966 0h1.217v1.217h-1.217zm-175.2 1.217H29.2v1.217h-1.217zm51.1 0H80.3v1.217h-1.217zm1.217 0h1.217v1.217H80.3zm31.633 0h1.217v1.217h-1.217zm1.217 0h1.217v1.217h-1.217zm12.167 0h1.217v1.217h-1.217z"/><path d="M126.533 85.775h1.217v1.217h-1.217zm1.217 0h1.217v1.217h-1.217zm15.817 0h1.217v1.217h-1.217z"/><path d="M144.783 85.775H146v1.217h-1.217zm1.217 0h1.217v1.217H146zm57.183 0h1.217v1.217h-1.217zM26.767 86.992h1.217v1.217h-1.217z"/><path d="M27.983 86.992H29.2v1.217h-1.217zm51.1 0H80.3v1.217h-1.217zm32.85 0h1.217v1.217h-1.217zm12.167 0h1.217v1.217H124.1zm1.217 0h1.217v1.217h-1.217zm18.25 0h1.217v1.217h-1.217z"/><path d="M144.783 86.992H146v1.217h-1.217zm57.184 0h1.217v1.217h-1.217z"/><path d="M203.183 86.992h1.217v1.217h-1.217zM26.767 88.208h1.217v1.217h-1.217zm51.1 0h1.217v1.217h-1.217z"/><path d="M79.083 88.208H80.3v1.217h-1.217zm31.634 0h1.217v1.217h-1.217z"/><path d="M111.933 88.208h1.217v1.217h-1.217zm10.95 0h1.217v1.217h-1.217zm1.217 0h1.217v1.217H124.1zm77.867 0h1.217v1.217h-1.217z"/><path d="M203.183 88.208h1.217v1.217h-1.217zM25.55 89.425h1.217v1.217H25.55zm1.217 0h1.217v1.217h-1.217zm51.1 0h1.217v1.217h-1.217zm32.85 0h1.217v1.217h-1.217zm10.95 0h1.217v1.217h-1.217z"/><path d="M122.883 89.425h1.217v1.217h-1.217zm79.084 0h1.217v1.217h-1.217z"/><path d="M203.183 89.425h1.217v1.217h-1.217zM25.55 90.642h1.217v1.217H25.55zm51.1 0h1.217v1.217H76.65zm1.217 0h1.217v1.217h-1.217zm31.633 0h1.217v1.217H109.5zm12.167 0h1.217v1.217h-1.217zm80.3 0h1.217v1.217h-1.217z"/><path d="M25.55 91.858h1.217v1.217H25.55zm51.1 0h1.217v1.217H76.65zm31.633 0h1.217v1.217h-1.217zm1.217 0h1.217v1.217H109.5zm10.95 0h1.217v1.217h-1.217zm81.517 0h1.217v1.217h-1.217zM24.333 93.075h1.217v1.217h-1.217zm1.217 0h1.217v1.217H25.55zm49.883 0h1.217v1.217h-1.217zm32.85 0h1.217v1.217h-1.217zm10.95 0h1.217v1.217h-1.217zm1.217 0h1.217v1.217h-1.217zm81.517 0h1.217v1.217h-1.217zM24.333 94.292h1.217v1.217h-1.217zm49.884 0h1.217v1.217h-1.217z"/><path d="M75.433 94.292h1.217v1.217h-1.217zm31.634 0h1.217v1.217h-1.217z"/><path d="M108.283 94.292h1.217v1.217h-1.217zm10.95 0h1.217v1.217h-1.217zm82.734 0h1.217v1.217h-1.217zm-178.85 1.216h1.217v1.217h-1.217z"/><path d="M24.333 95.508h1.217v1.217h-1.217zm49.884 0h1.217v1.217h-1.217zm32.85 0h1.217v1.217h-1.217zm10.95 0h1.217v1.217h-1.217z"/><path d="M119.233 95.508h1.217v1.217h-1.217zm82.734 0h1.217v1.217h-1.217zm-178.85 1.217h1.217v1.217h-1.217zm49.883 0h1.217v1.217H73zm1.217 0h1.217v1.217h-1.217zm32.85 0h1.217v1.217h-1.217zm10.95 0h1.217v1.217h-1.217zm82.733 0h1.217v1.217h-1.217zm1.217 0h1.217v1.217h-1.217zm-178.85 1.217h1.217v1.217h-1.217zm49.883 0h1.217v1.217H73zm32.85 0h1.217v1.217h-1.217zm1.217 0h1.217v1.217h-1.217zm9.733 0h1.217v1.217H116.8zm1.217 0h1.217v1.217h-1.217zm82.733 0h1.217v1.217h-1.217zM21.9 99.158h1.217v1.217H21.9z"/><path d="M23.117 99.158h1.217v1.217h-1.217zm48.666 0H73v1.217h-1.217zm1.217 0h1.217v1.217H73zm32.85 0h1.217v1.217h-1.217zm10.95 0h1.217v1.217H116.8zm1.217 0h1.217v1.217h-1.217zm82.733 0h1.217v1.217h-1.217zM21.9 100.375h1.217v1.217H21.9zm49.883 0H73v1.217h-1.217zm34.067 0h1.217v1.217h-1.217zm10.95 0h1.217v1.217H116.8zm83.95 0h1.217v1.217h-1.217zM21.9 101.592h1.217v1.217H21.9zm48.667 0h1.217v1.217h-1.217z"/><path d="M71.783 101.592H73v1.217h-1.217zm32.85 0h1.217v1.217h-1.217zm1.217 0h1.217v1.217h-1.217zm1.217 0h1.217v1.217h-1.217zm9.733 0h1.217v1.217H116.8zm83.95 0h1.217v1.217h-1.217zm-180.067 1.216H21.9v1.217h-1.217zm1.217 0h1.217v1.217H21.9z"/><path d="M70.567 102.808h1.217v1.217h-1.217zm34.066 0h1.217v1.217h-1.217zm2.434 0h1.217v1.217h-1.217z"/><path d="M108.283 102.808h1.217v1.217h-1.217zm1.217 0h1.217v1.217H109.5zm7.3 0h1.217v1.217H116.8zm82.733 0h1.217v1.217h-1.217zm1.217 0h1.217v1.217h-1.217zm-180.067 1.217H21.9v1.217h-1.217zm48.667 0h1.217v1.217H69.35zm1.217 0h1.217v1.217h-1.217zm34.066 0h1.217v1.217h-1.217zm4.867 0h1.217v1.217H109.5zm1.217 0h1.217v1.217h-1.217z"/><path d="M111.933 104.025h1.217v1.217h-1.217zm4.867 0h1.217v1.217H116.8zm82.733 0h1.217v1.217h-1.217zm-178.85 1.217H21.9v1.217h-1.217zm48.667 0h1.217v1.217H69.35zm35.283 0h1.217v1.217h-1.217zm7.3 0h1.217v1.217h-1.217zm1.217 0h1.217v1.217h-1.217zm1.217 0h1.217v1.217h-1.217zm2.433 0h1.217v1.217H116.8zm82.733 0h1.217v1.217h-1.217z"/><path d="M19.467 106.458h1.217v1.217h-1.217z"/><path d="M20.683 106.458H21.9v1.217h-1.217zm48.667 0h1.217v1.217H69.35zm35.283 0h1.217v1.217h-1.217zm1.217 0h1.217v1.217h-1.217zm1.217 0h1.217v1.217h-1.217zm7.3 0h1.217v1.217h-1.217z"/><path d="M115.583 106.458h1.217v1.217h-1.217zm1.217 0h1.217v1.217H116.8zm1.217 0h1.217v1.217h-1.217zm21.9 0h1.217v1.217h-1.217z"/><path d="M141.133 106.458h1.217v1.217h-1.217z"/><path d="M142.35 106.458h1.217v1.217h-1.217zm1.217 0h1.217v1.217h-1.217z"/><path d="M144.783 106.458H146v1.217h-1.217zm1.217 0h1.217v1.217H146zm1.217 0h1.217v1.217h-1.217zm52.316 0h1.217v1.217h-1.217zm-180.066 1.217h1.217v1.217h-1.217zm48.666 0h1.217v1.217h-1.217zm1.217 0h1.217v1.217H69.35zm34.067 0h1.217v1.217h-1.217z"/><path d="M104.633 107.675h1.217v1.217h-1.217zm2.434 0h1.217v1.217h-1.217z"/><path d="M108.283 107.675h1.217v1.217h-1.217zm1.217 0h1.217v1.217H109.5zm7.3 0h1.217v1.217H116.8zm1.217 0h1.217v1.217h-1.217z"/><path d="M119.233 107.675h1.217v1.217h-1.217zm13.384 0h1.217v1.217h-1.217z"/><path d="M133.833 107.675h1.217v1.217h-1.217zm1.217 0h1.217v1.217h-1.217z"/><path d="M136.267 107.675h1.217v1.217h-1.217z"/><path d="M137.483 107.675h1.217v1.217h-1.217z"/><path d="M138.7 107.675h1.217v1.217H138.7zm1.217 0h1.217v1.217h-1.217z"/><path d="M141.133 107.675h1.217v1.217h-1.217z"/><path d="M142.35 107.675h1.217v1.217h-1.217zm1.217 0h1.217v1.217h-1.217z"/><path d="M144.783 107.675H146v1.217h-1.217zm1.217 0h1.217v1.217H146zm1.217 0h1.217v1.217h-1.217z"/><path d="M148.433 107.675h1.217v1.217h-1.217zm1.217 0h1.217v1.217h-1.217z"/><path d="M150.867 107.675h1.217v1.217h-1.217zm47.45 0h1.217v1.217h-1.217z"/><path d="M199.533 107.675h1.217v1.217h-1.217zm-180.066 1.217h1.217v1.217h-1.217zm48.666 0h1.217v1.217h-1.217zm35.284 0h1.217v1.217h-1.217z"/><path d="M104.633 108.892h1.217v1.217h-1.217zm4.867 0h1.217v1.217H109.5zm1.217 0h1.217v1.217h-1.217z"/><path d="M111.933 108.892h1.217v1.217h-1.217zm4.867 0h1.217v1.217H116.8zm2.433 0h1.217v1.217h-1.217zm1.217 0h1.217v1.217h-1.217zm1.217 0h1.217v1.217h-1.217z"/><path d="M122.883 108.892h1.217v1.217h-1.217zm1.217 0h1.217v1.217H124.1zm1.217 0h1.217v1.217h-1.217z"/><path d="M126.533 108.892h1.217v1.217h-1.217zm1.217 0h1.217v1.217h-1.217zm1.217 0h1.217v1.217h-1.217z"/><path d="M130.183 108.892h1.217v1.217h-1.217zm1.217 0h1.217v1.217H131.4z"/><path d="M132.617 108.892h1.217v1.217h-1.217z"/><path d="M133.833 108.892h1.217v1.217h-1.217zm17.034 0h1.217v1.217h-1.217z"/><path d="M152.083 108.892h1.217v1.217h-1.217zm1.217 0h1.217v1.217H153.3zm45.017 0h1.217v1.217h-1.217zm-178.85 1.216h1.217v1.217h-1.217zm47.45 0h1.217v1.217h-1.217z"/><path d="M68.133 110.108h1.217v1.217h-1.217zm35.284 0h1.217v1.217h-1.217z"/><path d="M104.633 110.108h1.217v1.217h-1.217zm7.3 0h1.217v1.217h-1.217zm1.217 0h1.217v1.217h-1.217zm1.217 0h1.217v1.217h-1.217zm2.433 0h1.217v1.217H116.8zm36.5 0h1.217v1.217H153.3zm1.217 0h1.217v1.217h-1.217zm43.8 0h1.217v1.217h-1.217zM18.25 111.325h1.217v1.217H18.25zm1.217 0h1.217v1.217h-1.217zm47.45 0h1.217v1.217h-1.217zm36.5 0h1.217v1.217h-1.217z"/><path d="M104.633 111.325h1.217v1.217h-1.217zm9.734 0h1.217v1.217h-1.217z"/><path d="M115.583 111.325h1.217v1.217h-1.217zm1.217 0h1.217v1.217H116.8zm37.717 0h1.217v1.217h-1.217z"/><path d="M155.733 111.325h1.217v1.217h-1.217zm41.367 0h1.217v1.217H197.1zm1.217 0h1.217v1.217h-1.217zM18.25 112.542h1.217v1.217H18.25zm48.667 0h1.217v1.217h-1.217zm36.5 0h1.217v1.217h-1.217z"/><path d="M104.633 112.542h1.217v1.217h-1.217zm12.167 0h1.217v1.217H116.8zm1.217 0h1.217v1.217h-1.217z"/><path d="M119.233 112.542h1.217v1.217h-1.217zm36.5 0h1.217v1.217h-1.217zm41.367 0h1.217v1.217H197.1zm1.217 0h1.217v1.217h-1.217zM18.25 113.758h1.217v1.217H18.25zm47.45 0h1.217v1.217H65.7zm1.217 0h1.217v1.217h-1.217zm37.716 0h1.217v1.217h-1.217z"/><path d="M119.233 113.758h1.217v1.217h-1.217zm1.217 0h1.217v1.217h-1.217zm1.217 0h1.217v1.217h-1.217zm34.066 0h1.217v1.217h-1.217z"/><path d="M156.95 113.758h1.217v1.217h-1.217zm40.15 0h1.217v1.217H197.1zm-178.85 1.217h1.217v1.217H18.25zm47.45 0h1.217v1.217H65.7zm38.933 0h1.217v1.217h-1.217zm17.034 0h1.217v1.217h-1.217z"/><path d="M122.883 114.975h1.217v1.217h-1.217zm1.217 0h1.217v1.217H124.1zm32.85 0h1.217v1.217h-1.217zm40.15 0h1.217v1.217H197.1zm-180.067 1.217h1.217v1.217h-1.217zm1.217 0h1.217v1.217H18.25zm46.233 0H65.7v1.217h-1.217zm1.217 0h1.217v1.217H65.7zm38.933 0h1.217v1.217h-1.217zm19.467 0h1.217v1.217H124.1zm1.217 0h1.217v1.217h-1.217z"/><path d="M126.533 116.192h1.217v1.217h-1.217zm30.417 0h1.217v1.217h-1.217zm38.933 0h1.217v1.217h-1.217z"/><path d="M197.1 116.192h1.217v1.217H197.1zm-180.067 1.216h1.217v1.217h-1.217zm1.217 0h1.217v1.217H18.25zm46.233 0H65.7v1.217h-1.217zm40.15 0h1.217v1.217h-1.217zm21.9 0h1.217v1.217h-1.217zm1.217 0h1.217v1.217h-1.217zm1.217 0h1.217v1.217h-1.217zm27.983 0h1.217v1.217h-1.217zm1.217 0h1.217v1.217h-1.217z"/><path d="M195.883 117.408h1.217v1.217h-1.217zm-178.85 1.217h1.217v1.217h-1.217zm47.45 0H65.7v1.217h-1.217zm40.15 0h1.217v1.217h-1.217zm1.217 0h1.217v1.217h-1.217zm23.117 0h1.217v1.217h-1.217z"/><path d="M130.183 118.625h1.217v1.217h-1.217zm1.217 0h1.217v1.217H131.4zm26.767 0h1.217v1.217h-1.217zm37.716 0h1.217v1.217h-1.217zm-178.85 1.217h1.217v1.217h-1.217zm46.234 0h1.217v1.217h-1.217z"/><path d="M64.483 119.842H65.7v1.217h-1.217zm41.367 0h1.217v1.217h-1.217zm25.55 0h1.217v1.217H131.4z"/><path d="M132.617 119.842h1.217v1.217h-1.217z"/><path d="M133.833 119.842h1.217v1.217h-1.217zm24.334 0h1.217v1.217h-1.217zm36.5 0h1.217v1.217h-1.217z"/><path d="M195.883 119.842h1.217v1.217h-1.217zm-178.85 1.216h1.217v1.217h-1.217zm46.234 0h1.217v1.217h-1.217zm42.583 0h1.217v1.217h-1.217zm1.217 0h1.217v1.217h-1.217zm26.766 0h1.217v1.217h-1.217zm1.217 0h1.217v1.217h-1.217z"/><path d="M136.267 121.058h1.217v1.217h-1.217zm21.9 0h1.217v1.217h-1.217zm36.5 0h1.217v1.217h-1.217zm-178.85 1.217h1.217v1.217h-1.217z"/><path d="M17.033 122.275h1.217v1.217h-1.217zm46.234 0h1.217v1.217h-1.217zm43.8 0h1.217v1.217h-1.217z"/><path d="M108.283 122.275h1.217v1.217h-1.217zm27.984 0h1.217v1.217h-1.217z"/><path d="M137.483 122.275h1.217v1.217h-1.217z"/><path d="M138.7 122.275h1.217v1.217H138.7zm19.467 0h1.217v1.217h-1.217zm35.283 0h1.217v1.217h-1.217zm1.217 0h1.217v1.217h-1.217zm-178.85 1.217h1.217v1.217h-1.217z"/><path d="M17.033 123.492h1.217v1.217h-1.217zm45.017 0h1.217v1.217H62.05zm1.217 0h1.217v1.217h-1.217zm45.016 0h1.217v1.217h-1.217zm1.217 0h1.217v1.217H109.5zm1.217 0h1.217v1.217h-1.217zm18.25 0h1.217v1.217h-1.217z"/><path d="M130.183 123.492h1.217v1.217h-1.217zm1.217 0h1.217v1.217H131.4z"/><path d="M132.617 123.492h1.217v1.217h-1.217z"/><path d="M133.833 123.492h1.217v1.217h-1.217zm1.217 0h1.217v1.217h-1.217z"/><path d="M136.267 123.492h1.217v1.217h-1.217z"/><path d="M137.483 123.492h1.217v1.217h-1.217z"/><path d="M138.7 123.492h1.217v1.217H138.7zm1.217 0h1.217v1.217h-1.217z"/><path d="M141.133 123.492h1.217v1.217h-1.217zm17.034 0h1.217v1.217h-1.217zm35.283 0h1.217v1.217h-1.217zm-177.633 1.216h1.217v1.217h-1.217zm46.233 0h1.217v1.217H62.05zm48.667 0h1.217v1.217h-1.217z"/><path d="M111.933 124.708h1.217v1.217h-1.217zm1.217 0h1.217v1.217h-1.217zm1.217 0h1.217v1.217h-1.217z"/><path d="M115.583 124.708h1.217v1.217h-1.217zm1.217 0h1.217v1.217H116.8zm1.217 0h1.217v1.217h-1.217z"/><path d="M119.233 124.708h1.217v1.217h-1.217zm1.217 0h1.217v1.217h-1.217zm1.217 0h1.217v1.217h-1.217z"/><path d="M122.883 124.708h1.217v1.217h-1.217zm1.217 0h1.217v1.217H124.1zm1.217 0h1.217v1.217h-1.217z"/><path d="M126.533 124.708h1.217v1.217h-1.217zm1.217 0h1.217v1.217h-1.217zm1.217 0h1.217v1.217h-1.217z"/><path d="M130.183 124.708h1.217v1.217h-1.217zm10.95 0h1.217v1.217h-1.217zm1.217 0h1.217v1.217h-1.217zm1.217 0h1.217v1.217h-1.217zm14.6 0h1.217v1.217h-1.217zm35.283 0h1.217v1.217h-1.217zm-177.633 1.217h1.217v1.217h-1.217zm46.233 0h1.217v1.217H62.05zm52.317 0h1.217v1.217h-1.217z"/><path d="M115.583 125.925h1.217v1.217h-1.217zm1.217 0h1.217v1.217H116.8zm1.217 0h1.217v1.217h-1.217z"/><path d="M119.233 125.925h1.217v1.217h-1.217zm1.217 0h1.217v1.217h-1.217zm1.217 0h1.217v1.217h-1.217zm21.9 0h1.217v1.217h-1.217z"/><path d="M144.783 125.925H146v1.217h-1.217zm13.384 0h1.217v1.217h-1.217zm34.066 0h1.217v1.217h-1.217zm1.217 0h1.217v1.217h-1.217zm-177.633 1.217h1.217v1.217h-1.217zm45.016 0h1.217v1.217h-1.217zm1.217 0h1.217v1.217H62.05zm82.733 0H146v1.217h-1.217zm13.384 0h1.217v1.217h-1.217zm34.066 0h1.217v1.217h-1.217z"/><path d="M15.817 128.358h1.217v1.217h-1.217zm45.016 0h1.217v1.217h-1.217zm83.95 0H146v1.217h-1.217zm1.217 0h1.217v1.217H146zm12.167 0h1.217v1.217h-1.217zm32.85 0h1.217v1.217h-1.217z"/><path d="M192.233 128.358h1.217v1.217h-1.217zm-176.416 1.217h1.217v1.217h-1.217zm45.016 0h1.217v1.217h-1.217zm83.95 0H146v1.217h-1.217zm1.217 0h1.217v1.217H146zm12.167 0h1.217v1.217h-1.217z"/><path d="M191.017 129.575h1.217v1.217h-1.217zm-175.2 1.217h1.217v1.217h-1.217zm45.016 0h1.217v1.217h-1.217zm83.95 0H146v1.217h-1.217zm1.217 0h1.217v1.217H146zm12.167 0h1.217v1.217h-1.217zm32.85 0h1.217v1.217h-1.217zM14.6 132.008h1.217v1.217H14.6z"/><path d="M15.817 132.008h1.217v1.217h-1.217zm43.8 0h1.217v1.217h-1.217z"/><path d="M60.833 132.008h1.217v1.217h-1.217zm83.95 0H146v1.217h-1.217zm1.217 0h1.217v1.217H146zm10.95 0h1.217v1.217h-1.217zm1.217 0h1.217v1.217h-1.217zm31.633 0h1.217v1.217H189.8z"/><path d="M191.017 132.008h1.217v1.217h-1.217zM14.6 133.225h1.217v1.217H14.6z"/><path d="M15.817 133.225h1.217v1.217h-1.217zm43.8 0h1.217v1.217h-1.217zm85.166 0H146v1.217h-1.217zm1.217 0h1.217v1.217H146zm10.95 0h1.217v1.217h-1.217zm1.217 0h1.217v1.217h-1.217zm31.633 0h1.217v1.217H189.8zm-175.2 1.217h1.217v1.217H14.6z"/><path d="M15.817 134.442h1.217v1.217h-1.217zm43.8 0h1.217v1.217h-1.217zm85.166 0H146v1.217h-1.217zm1.217 0h1.217v1.217H146zm10.95 0h1.217v1.217h-1.217zm31.633 0h1.217v1.217h-1.217zm1.217 0h1.217v1.217H189.8z"/><path d="M14.6 135.658h1.217v1.217H14.6z"/><path d="M15.817 135.658h1.217v1.217h-1.217zm43.8 0h1.217v1.217h-1.217zm85.166 0H146v1.217h-1.217zm12.167 0h1.217v1.217h-1.217zm31.633 0h1.217v1.217h-1.217zM14.6 136.875h1.217v1.217H14.6z"/><path d="M15.817 136.875h1.217v1.217h-1.217zm42.583 0h1.217v1.217H58.4zm1.217 0h1.217v1.217h-1.217zm85.166 0H146v1.217h-1.217zm10.95 0h1.217v1.217h-1.217zm1.217 0h1.217v1.217h-1.217zm30.417 0h1.217v1.217h-1.217z"/><path d="M188.583 136.875h1.217v1.217h-1.217zM14.6 138.092h1.217v1.217H14.6zm43.8 0h1.217v1.217H58.4zm86.383 0H146v1.217h-1.217zm10.95 0h1.217v1.217h-1.217zm31.634 0h1.217v1.217h-1.217z"/><path d="M14.6 139.308h1.217v1.217H14.6zm43.8 0h1.217v1.217H58.4zm85.167 0h1.217v1.217h-1.217z"/><path d="M144.783 139.308H146v1.217h-1.217zm10.95 0h1.217v1.217h-1.217zm30.417 0h1.217v1.217h-1.217zm1.217 0h1.217v1.217h-1.217zM14.6 140.525h1.217v1.217H14.6zm43.8 0h1.217v1.217H58.4zm85.167 0h1.217v1.217h-1.217zm10.95 0h1.217v1.217h-1.217z"/><path d="M155.733 140.525h1.217v1.217h-1.217zm30.417 0h1.217v1.217h-1.217zM14.6 141.742h1.217v1.217H14.6zm43.8 0h1.217v1.217H58.4zm83.95 0h1.217v1.217h-1.217zm1.217 0h1.217v1.217h-1.217z"/><path d="M154.517 141.742h1.217v1.217h-1.217zm30.416 0h1.217v1.217h-1.217zm1.217 0h1.217v1.217h-1.217zM14.6 142.958h1.217v1.217H14.6zm42.583 0H58.4v1.217h-1.217zm1.217 0h1.217v1.217H58.4zm82.733 0h1.217v1.217h-1.217z"/><path d="M142.35 142.958h1.217v1.217h-1.217zm10.95 0h1.217v1.217H153.3zm1.217 0h1.217v1.217h-1.217zm30.416 0h1.217v1.217h-1.217zM14.6 144.175h1.217v1.217H14.6z"/><path d="M15.817 144.175h1.217v1.217h-1.217zm41.366 0H58.4v1.217h-1.217zm1.217 0h1.217v1.217H58.4zm82.733 0h1.217v1.217h-1.217zm12.167 0h1.217v1.217H153.3zm30.417 0h1.217v1.217h-1.217z"/><path d="M184.933 144.175h1.217v1.217h-1.217zM14.6 145.392h1.217v1.217H14.6z"/><path d="M15.817 145.392h1.217v1.217h-1.217zm41.366 0H58.4v1.217h-1.217zm82.734 0h1.217v1.217h-1.217z"/><path d="M141.133 145.392h1.217v1.217h-1.217zm10.95 0h1.217v1.217h-1.217zm1.217 0h1.217v1.217H153.3zm30.417 0h1.217v1.217h-1.217zM14.6 146.608h1.217v1.217H14.6z"/><path d="M15.817 146.608h1.217v1.217h-1.217zm41.366 0H58.4v1.217h-1.217zm54.75 0h1.217v1.217h-1.217zm1.217 0h1.217v1.217h-1.217zm25.55 0h1.217v1.217H138.7zm1.217 0h1.217v1.217h-1.217zm10.95 0h1.217v1.217h-1.217z"/><path d="M152.083 146.608h1.217v1.217h-1.217zm30.417 0h1.217v1.217H182.5zm1.217 0h1.217v1.217h-1.217zM14.6 147.825h1.217v1.217H14.6z"/><path d="M15.817 147.825h1.217v1.217h-1.217zm41.366 0H58.4v1.217h-1.217zm53.534 0h1.217v1.217h-1.217z"/><path d="M111.933 147.825h1.217v1.217h-1.217zm1.217 0h1.217v1.217h-1.217zm1.217 0h1.217v1.217h-1.217zm23.116 0h1.217v1.217h-1.217z"/><path d="M138.7 147.825h1.217v1.217H138.7zm12.167 0h1.217v1.217h-1.217zm31.633 0h1.217v1.217H182.5zm-167.9 1.217h1.217v1.217H14.6zm1.217 0h1.217v1.217h-1.217zm41.366 0H58.4v1.217h-1.217zm52.317 0h1.217v1.217H109.5zm1.217 0h1.217v1.217h-1.217zm3.65 0h1.217v1.217h-1.217zm21.9 0h1.217v1.217h-1.217z"/><path d="M137.483 149.042h1.217v1.217h-1.217zm12.167 0h1.217v1.217h-1.217z"/><path d="M150.867 149.042h1.217v1.217h-1.217zm30.416 0h1.217v1.217h-1.217zm-165.466 1.216h1.217v1.217h-1.217zm41.366 0H58.4v1.217h-1.217zm51.1 0h1.217v1.217h-1.217zm1.217 0h1.217v1.217H109.5zm1.217 0h1.217v1.217h-1.217zm3.65 0h1.217v1.217h-1.217z"/><path d="M115.583 150.258h1.217v1.217h-1.217zm19.467 0h1.217v1.217h-1.217z"/><path d="M136.267 150.258h1.217v1.217h-1.217zm12.166 0h1.217v1.217h-1.217zm1.217 0h1.217v1.217h-1.217zm30.417 0h1.217v1.217h-1.217z"/><path d="M181.283 150.258h1.217v1.217h-1.217zm-165.466 1.217h1.217v1.217h-1.217zm41.366 0H58.4v1.217h-1.217zm51.1 0h1.217v1.217h-1.217zm1.217 0h1.217v1.217H109.5zm1.217 0h1.217v1.217h-1.217z"/><path d="M111.933 151.475h1.217v1.217h-1.217zm1.217 0h1.217v1.217h-1.217zm2.433 0h1.217v1.217h-1.217zm17.034 0h1.217v1.217h-1.217z"/><path d="M133.833 151.475h1.217v1.217h-1.217zm1.217 0h1.217v1.217h-1.217zm13.383 0h1.217v1.217h-1.217zm31.634 0h1.217v1.217h-1.217zm-164.25 1.217h1.217v1.217h-1.217zm40.15 0h1.217v1.217h-1.217z"/><path d="M57.183 152.692H58.4v1.217h-1.217zm49.884 0h1.217v1.217h-1.217zm4.866 0h1.217v1.217h-1.217zm1.217 0h1.217v1.217h-1.217zm1.217 0h1.217v1.217h-1.217z"/><path d="M115.583 152.692h1.217v1.217h-1.217zm1.217 0h1.217v1.217H116.8zm14.6 0h1.217v1.217H131.4z"/><path d="M132.617 152.692h1.217v1.217h-1.217zm14.6 0h1.217v1.217h-1.217zm31.633 0h1.217v1.217h-1.217zm1.217 0h1.217v1.217h-1.217zm-164.25 1.216h1.217v1.217h-1.217zm40.15 0h1.217v1.217h-1.217z"/><path d="M57.183 153.908H58.4v1.217h-1.217zm48.667 0h1.217v1.217h-1.217zm8.517 0h1.217v1.217h-1.217z"/><path d="M115.583 153.908h1.217v1.217h-1.217zm1.217 0h1.217v1.217H116.8zm1.217 0h1.217v1.217h-1.217zm10.95 0h1.217v1.217h-1.217z"/><path d="M130.183 153.908h1.217v1.217h-1.217zm1.217 0h1.217v1.217H131.4zm14.6 0h1.217v1.217H146zm1.217 0h1.217v1.217h-1.217zm30.416 0h1.217v1.217h-1.217z"/><path d="M178.85 153.908h1.217v1.217h-1.217zm-163.033 1.217h1.217v1.217h-1.217zm40.15 0h1.217v1.217h-1.217z"/><path d="M57.183 155.125H58.4v1.217h-1.217zm47.45 0h1.217v1.217h-1.217zm12.167 0h1.217v1.217H116.8zm1.217 0h1.217v1.217h-1.217z"/><path d="M119.233 155.125h1.217v1.217h-1.217zm1.217 0h1.217v1.217h-1.217zm1.217 0h1.217v1.217h-1.217z"/><path d="M122.883 155.125h1.217v1.217h-1.217zm1.217 0h1.217v1.217H124.1zm1.217 0h1.217v1.217h-1.217z"/><path d="M126.533 155.125h1.217v1.217h-1.217zm1.217 0h1.217v1.217h-1.217zm1.217 0h1.217v1.217h-1.217zm15.816 0H146v1.217h-1.217zm1.217 0h1.217v1.217H146zm31.633 0h1.217v1.217h-1.217zm-161.816 1.217h1.217v1.217h-1.217z"/><path d="M17.033 156.342h1.217v1.217h-1.217zm38.934 0h1.217v1.217h-1.217z"/><path d="M57.183 156.342H58.4v1.217h-1.217zm46.234 0h1.217v1.217h-1.217zm15.816 0h1.217v1.217h-1.217zm1.217 0h1.217v1.217h-1.217zm1.217 0h1.217v1.217h-1.217z"/><path d="M122.883 156.342h1.217v1.217h-1.217zm1.217 0h1.217v1.217H124.1zm1.217 0h1.217v1.217h-1.217zm18.25 0h1.217v1.217h-1.217z"/><path d="M144.783 156.342H146v1.217h-1.217zm31.634 0h1.217v1.217h-1.217z"/><path d="M177.633 156.342h1.217v1.217h-1.217zm-161.816 1.216h1.217v1.217h-1.217z"/><path d="M17.033 157.558h1.217v1.217h-1.217zm38.934 0h1.217v1.217h-1.217zm46.233 0h1.217v1.217H102.2zm1.217 0h1.217v1.217h-1.217zm18.25 0h1.217v1.217h-1.217z"/><path d="M122.883 157.558h1.217v1.217h-1.217zm1.217 0h1.217v1.217H124.1zm18.25 0h1.217v1.217h-1.217zm1.217 0h1.217v1.217h-1.217zm32.85 0h1.217v1.217h-1.217zm-159.384 1.217h1.217v1.217h-1.217zm38.934 0h1.217v1.217h-1.217zm45.016 0h1.217v1.217h-1.217zm1.217 0h1.217v1.217H102.2zm1.217 0h1.217v1.217h-1.217z"/><path d="M104.633 158.775h1.217v1.217h-1.217zm1.217 0h1.217v1.217h-1.217zm18.25 0h1.217v1.217H124.1zm1.217 0h1.217v1.217h-1.217z"/><path d="M126.533 158.775h1.217v1.217h-1.217zm14.6 0h1.217v1.217h-1.217z"/><path d="M142.35 158.775h1.217v1.217h-1.217zm32.85 0h1.217v1.217H175.2zm-158.167 1.217h1.217v1.217h-1.217zm38.934 0h1.217v1.217h-1.217zm45.016 0h1.217v1.217h-1.217zm1.217 0h1.217v1.217H102.2zm3.65 0h1.217v1.217h-1.217zm1.217 0h1.217v1.217h-1.217z"/><path d="M108.283 159.992h1.217v1.217h-1.217zm18.25 0h1.217v1.217h-1.217zm1.217 0h1.217v1.217h-1.217zm1.217 0h1.217v1.217h-1.217zm10.95 0h1.217v1.217h-1.217z"/><path d="M141.133 159.992h1.217v1.217h-1.217zm32.85 0h1.217v1.217h-1.217z"/><path d="M175.2 159.992h1.217v1.217H175.2zm-158.167 1.216h1.217v1.217h-1.217zm1.217 0h1.217v1.217H18.25zm37.717 0h1.217v1.217h-1.217zm46.233 0h1.217v1.217H102.2zm1.217 0h1.217v1.217h-1.217z"/><path d="M104.633 161.208h1.217v1.217h-1.217zm3.65 0h1.217v1.217h-1.217zm1.217 0h1.217v1.217H109.5zm1.217 0h1.217v1.217h-1.217zm18.25 0h1.217v1.217h-1.217z"/><path d="M130.183 161.208h1.217v1.217h-1.217zm1.217 0h1.217v1.217H131.4zm7.3 0h1.217v1.217H138.7zm1.217 0h1.217v1.217h-1.217zm32.85 0h1.217v1.217h-1.217z"/><path d="M173.983 161.208h1.217v1.217h-1.217zm-156.95 1.217h1.217v1.217h-1.217zm1.217 0h1.217v1.217H18.25zm37.717 0h1.217v1.217h-1.217zm46.233 0h1.217v1.217H102.2zm2.433 0h1.217v1.217h-1.217zm1.217 0h1.217v1.217h-1.217zm1.217 0h1.217v1.217h-1.217zm3.65 0h1.217v1.217h-1.217z"/><path d="M111.933 162.425h1.217v1.217h-1.217zm1.217 0h1.217v1.217h-1.217zm18.25 0h1.217v1.217H131.4z"/><path d="M132.617 162.425h1.217v1.217h-1.217z"/><path d="M133.833 162.425h1.217v1.217h-1.217zm3.65 0h1.217v1.217h-1.217z"/><path d="M138.7 162.425h1.217v1.217H138.7zm34.067 0h1.217v1.217h-1.217zM18.25 163.642h1.217v1.217H18.25zm37.717 0h1.217v1.217h-1.217zm46.233 0h1.217v1.217H102.2zm1.217 0h1.217v1.217h-1.217zm3.65 0h1.217v1.217h-1.217z"/><path d="M108.283 163.642h1.217v1.217h-1.217zm1.217 0h1.217v1.217H109.5zm3.65 0h1.217v1.217h-1.217zm1.217 0h1.217v1.217h-1.217z"/><path d="M115.583 163.642h1.217v1.217h-1.217zm18.25 0h1.217v1.217h-1.217zm1.217 0h1.217v1.217h-1.217z"/><path d="M136.267 163.642h1.217v1.217h-1.217z"/><path d="M137.483 163.642h1.217v1.217h-1.217zm34.067 0h1.217v1.217h-1.217z"/><path d="M172.767 163.642h1.217v1.217h-1.217zM18.25 164.858h1.217v1.217H18.25zm37.717 0h1.217v1.217h-1.217zm47.45 0h1.217v1.217h-1.217zm6.083 0h1.217v1.217H109.5zm1.217 0h1.217v1.217h-1.217z"/><path d="M111.933 164.858h1.217v1.217h-1.217zm3.65 0h1.217v1.217h-1.217zm1.217 0h1.217v1.217H116.8zm1.217 0h1.217v1.217h-1.217zm18.25 0h1.217v1.217h-1.217zm34.066 0h1.217v1.217h-1.217zm1.217 0h1.217v1.217h-1.217zm-153.3 1.217h1.217v1.217H18.25zm1.217 0h1.217v1.217h-1.217zm36.5 0h1.217v1.217h-1.217z"/><path d="M57.183 166.075H58.4v1.217h-1.217zm47.45 0h1.217v1.217h-1.217zm7.3 0h1.217v1.217h-1.217zm1.217 0h1.217v1.217h-1.217zm1.217 0h1.217v1.217h-1.217zm3.65 0h1.217v1.217h-1.217z"/><path d="M119.233 166.075h1.217v1.217h-1.217zm1.217 0h1.217v1.217h-1.217zm15.817 0h1.217v1.217h-1.217zm34.066 0h1.217v1.217h-1.217zm-150.866 1.217h1.217v1.217h-1.217zm36.5 0h1.217v1.217h-1.217z"/><path d="M57.183 167.292H58.4v1.217h-1.217zm47.45 0h1.217v1.217h-1.217zm1.217 0h1.217v1.217h-1.217zm8.517 0h1.217v1.217h-1.217z"/><path d="M115.583 167.292h1.217v1.217h-1.217zm1.217 0h1.217v1.217H116.8zm3.65 0h1.217v1.217h-1.217zm1.217 0h1.217v1.217h-1.217z"/><path d="M122.883 167.292h1.217v1.217h-1.217zm13.384 0h1.217v1.217h-1.217zm32.85 0h1.217v1.217h-1.217zm-149.65 1.216h1.217v1.217h-1.217z"/><path d="M20.683 168.508H21.9v1.217h-1.217zm35.284 0h1.217v1.217h-1.217z"/><path d="M57.183 168.508H58.4v1.217h-1.217zm48.667 0h1.217v1.217h-1.217zm1.217 0h1.217v1.217h-1.217zm9.733 0h1.217v1.217H116.8zm1.217 0h1.217v1.217h-1.217z"/><path d="M119.233 168.508h1.217v1.217h-1.217zm3.65 0h1.217v1.217h-1.217zm1.217 0h1.217v1.217H124.1zm1.217 0h1.217v1.217h-1.217zm10.95 0h1.217v1.217h-1.217zm31.633 0h1.217v1.217H167.9z"/><path d="M169.117 168.508h1.217v1.217h-1.217zm-148.434 1.217H21.9v1.217h-1.217zm35.284 0h1.217v1.217h-1.217z"/><path d="M57.183 169.725H58.4v1.217h-1.217zm49.884 0h1.217v1.217h-1.217z"/><path d="M108.283 169.725h1.217v1.217h-1.217zm10.95 0h1.217v1.217h-1.217zm1.217 0h1.217v1.217h-1.217zm1.217 0h1.217v1.217h-1.217zm3.65 0h1.217v1.217h-1.217z"/><path d="M126.533 169.725h1.217v1.217h-1.217zm1.217 0h1.217v1.217h-1.217zm8.517 0h1.217v1.217h-1.217zm30.416 0h1.217v1.217h-1.217zm1.217 0h1.217v1.217H167.9zm-147.217 1.217H21.9v1.217h-1.217zm1.217 0h1.217v1.217H21.9zm35.283 0H58.4v1.217h-1.217zm52.317 0h1.217v1.217H109.5zm1.217 0h1.217v1.217h-1.217z"/><path d="M111.933 170.942h1.217v1.217h-1.217zm8.517 0h1.217v1.217h-1.217zm1.217 0h1.217v1.217h-1.217z"/><path d="M122.883 170.942h1.217v1.217h-1.217zm4.867 0h1.217v1.217h-1.217zm1.217 0h1.217v1.217h-1.217z"/><path d="M130.183 170.942h1.217v1.217h-1.217zm6.084 0h1.217v1.217h-1.217zm29.2 0h1.217v1.217h-1.217z"/><path d="M166.683 170.942h1.217v1.217h-1.217zM21.9 172.158h1.217v1.217H21.9zm35.283 0H58.4v1.217h-1.217zm54.75 0h1.217v1.217h-1.217zm1.217 0h1.217v1.217h-1.217zm1.217 0h1.217v1.217h-1.217z"/><path d="M115.583 172.158h1.217v1.217h-1.217zm1.217 0h1.217v1.217H116.8zm1.217 0h1.217v1.217h-1.217z"/><path d="M119.233 172.158h1.217v1.217h-1.217zm1.217 0h1.217v1.217h-1.217zm2.433 0h1.217v1.217h-1.217zm7.3 0h1.217v1.217h-1.217zm1.217 0h1.217v1.217H131.4z"/><path d="M132.617 172.158h1.217v1.217h-1.217zm3.65 0h1.217v1.217h-1.217zm29.2 0h1.217v1.217h-1.217zM21.9 173.375h1.217v1.217H21.9zm1.217 0h1.217v1.217h-1.217zm34.066 0H58.4v1.217h-1.217zm65.7 0h1.217v1.217h-1.217zm9.734 0h1.217v1.217h-1.217z"/><path d="M133.833 173.375h1.217v1.217h-1.217zm1.217 0h1.217v1.217h-1.217z"/><path d="M136.267 173.375h1.217v1.217h-1.217zm27.983 0h1.217v1.217h-1.217zm-141.133 1.217h1.217v1.217h-1.217zm34.066 0H58.4v1.217h-1.217zm65.7 0h1.217v1.217h-1.217zm12.167 0h1.217v1.217h-1.217z"/><path d="M136.267 174.592h1.217v1.217h-1.217zm26.766 0h1.217v1.217h-1.217zm1.217 0h1.217v1.217h-1.217zm-141.133 1.216h1.217v1.217h-1.217z"/><path d="M24.333 175.808h1.217v1.217h-1.217zm32.85 0H58.4v1.217h-1.217zm65.7 0h1.217v1.217h-1.217zm9.734 0h1.217v1.217h-1.217z"/><path d="M133.833 175.808h1.217v1.217h-1.217zm1.217 0h1.217v1.217h-1.217zm26.767 0h1.217v1.217h-1.217z"/><path d="M163.033 175.808h1.217v1.217h-1.217zm-138.7 1.217h1.217v1.217h-1.217zm1.217 0h1.217v1.217H25.55zm31.633 0H58.4v1.217h-1.217zm1.217 0h1.217v1.217H58.4zm64.483 0h1.217v1.217h-1.217zm7.3 0h1.217v1.217h-1.217zm1.217 0h1.217v1.217H131.4z"/><path d="M132.617 177.025h1.217v1.217h-1.217zm27.983 0h1.217v1.217H160.6zm1.217 0h1.217v1.217h-1.217zM25.55 178.242h1.217v1.217H25.55zm31.633 0H58.4v1.217h-1.217zm1.217 0h1.217v1.217H58.4zm64.483 0h1.217v1.217h-1.217zm6.084 0h1.217v1.217h-1.217z"/><path d="M130.183 178.242h1.217v1.217h-1.217zm29.2 0h1.217v1.217h-1.217z"/><path d="M160.6 178.242h1.217v1.217H160.6zm-135.05 1.216h1.217v1.217H25.55zm1.217 0h1.217v1.217h-1.217zm31.633 0h1.217v1.217H58.4zm64.483 0h1.217v1.217h-1.217zm3.65 0h1.217v1.217h-1.217zm1.217 0h1.217v1.217h-1.217zm30.417 0h1.217v1.217h-1.217z"/><path d="M159.383 179.458h1.217v1.217h-1.217zm-132.616 1.217h1.217v1.217h-1.217z"/><path d="M27.983 180.675H29.2v1.217h-1.217zm30.417 0h1.217v1.217H58.4zm64.483 0h1.217v1.217h-1.217zm1.217 0h1.217v1.217H124.1zm1.217 0h1.217v1.217h-1.217z"/><path d="M126.533 180.675h1.217v1.217h-1.217zm30.417 0h1.217v1.217h-1.217zm1.217 0h1.217v1.217h-1.217zm-130.184 1.217H29.2v1.217h-1.217zm1.217 0h1.217v1.217H29.2zm29.2 0h1.217v1.217H58.4zm64.483 0h1.217v1.217h-1.217zm1.217 0h1.217v1.217H124.1z"/><path d="M155.733 181.892h1.217v1.217h-1.217z"/><path d="M156.95 181.892h1.217v1.217h-1.217zM29.2 183.108h1.217v1.217H29.2zm1.217 0h1.217v1.217h-1.217zm27.983 0h1.217v1.217H58.4zm1.217 0h1.217v1.217h-1.217zm94.9 0h1.217v1.217h-1.217z"/><path d="M155.733 183.108h1.217v1.217h-1.217zm-125.316 1.217h1.217v1.217h-1.217z"/><path d="M31.633 184.325h1.217v1.217h-1.217zm27.984 0h1.217v1.217h-1.217zm93.683 0h1.217v1.217H153.3z"/><path d="M154.517 184.325h1.217v1.217h-1.217zm-122.884 1.217h1.217v1.217h-1.217zm1.217 0h1.217v1.217H32.85zm1.217 0h1.217v1.217h-1.217zm25.55 0h1.217v1.217h-1.217zm92.466 0h1.217v1.217h-1.217zm1.217 0h1.217v1.217H153.3z"/><path d="M34.067 186.758h1.217v1.217h-1.217z"/><path d="M35.283 186.758H36.5v1.217h-1.217zm24.334 0h1.217v1.217h-1.217z"/><path d="M60.833 186.758h1.217v1.217h-1.217zm90.034 0h1.217v1.217h-1.217z"/><path d="M152.083 186.758h1.217v1.217h-1.217zm-116.8 1.217H36.5v1.217h-1.217zm1.217 0h1.217v1.217H36.5zm1.217 0h1.217v1.217h-1.217zm23.116 0h1.217v1.217h-1.217zm88.817 0h1.217v1.217h-1.217z"/><path d="M150.867 187.975h1.217v1.217h-1.217zm-113.15 1.217h1.217v1.217h-1.217z"/><path d="M38.933 189.192h1.217v1.217h-1.217zm1.217 0h1.217v1.217H40.15zm20.683 0h1.217v1.217h-1.217zm1.217 0h1.217v1.217H62.05zm86.383 0h1.217v1.217h-1.217zm1.217 0h1.217v1.217h-1.217z"/><path d="M40.15 190.408h1.217v1.217H40.15zm1.217 0h1.217v1.217h-1.217z"/><path d="M42.583 190.408H43.8v1.217h-1.217zm19.467 0h1.217v1.217H62.05zm85.167 0h1.217v1.217h-1.217z"/><path d="M148.433 190.408h1.217v1.217h-1.217zm-105.85 1.217H43.8v1.217h-1.217zm1.217 0h1.217v1.217H43.8zm1.217 0h1.217v1.217h-1.217zm17.033 0h1.217v1.217H62.05zm1.217 0h1.217v1.217h-1.217zm82.733 0h1.217v1.217H146zm1.217 0h1.217v1.217h-1.217zm-102.2 1.217h1.217v1.217h-1.217z"/><path d="M46.233 192.842h1.217v1.217h-1.217zm1.217 0h1.217v1.217H47.45zm15.817 0h1.217v1.217h-1.217zm81.516 0H146v1.217h-1.217zm1.217 0h1.217v1.217H146z"/><path d="M47.45 194.058h1.217v1.217H47.45zm1.217 0h1.217v1.217h-1.217z"/><path d="M49.883 194.058H51.1v1.217h-1.217zm13.384 0h1.217v1.217h-1.217z"/><path d="M64.483 194.058H65.7v1.217h-1.217zm77.867 0h1.217v1.217h-1.217zm1.217 0h1.217v1.217h-1.217zm-93.684 1.217H51.1v1.217h-1.217zm1.217 0h1.217v1.217H51.1zm1.217 0h1.217v1.217h-1.217zm12.166 0H65.7v1.217h-1.217zm76.65 0h1.217v1.217h-1.217z"/><path d="M142.35 195.275h1.217v1.217h-1.217zm-90.033 1.217h1.217v1.217h-1.217z"/><path d="M53.533 196.492h1.217v1.217h-1.217zm1.217 0h1.217v1.217H54.75zm9.733 0H65.7v1.217h-1.217zm1.217 0h1.217v1.217H65.7zm74.217 0h1.217v1.217h-1.217z"/><path d="M141.133 196.492h1.217v1.217h-1.217zm-86.383 1.216h1.217v1.217H54.75zm1.217 0h1.217v1.217h-1.217z"/><path d="M57.183 197.708H58.4v1.217h-1.217zm8.517 0h1.217v1.217H65.7zm1.217 0h1.217v1.217h-1.217zm70.566 0h1.217v1.217h-1.217z"/><path d="M138.7 197.708h1.217v1.217H138.7zm-81.517 1.217H58.4v1.217h-1.217zm1.217 0h1.217v1.217H58.4zm1.217 0h1.217v1.217h-1.217zm7.3 0h1.217v1.217h-1.217zm69.35 0h1.217v1.217h-1.217z"/><path d="M137.483 198.925h1.217v1.217h-1.217zm-77.866 1.217h1.217v1.217h-1.217z"/><path d="M60.833 200.142h1.217v1.217h-1.217zm1.217 0h1.217v1.217H62.05zm4.867 0h1.217v1.217h-1.217z"/><path d="M68.133 200.142h1.217v1.217h-1.217zm65.7 0h1.217v1.217h-1.217zm1.217 0h1.217v1.217h-1.217z"/><path d="M136.267 200.142h1.217v1.217h-1.217zm-74.217 1.216h1.217v1.217H62.05zm1.217 0h1.217v1.217h-1.217z"/><path d="M64.483 201.358H65.7v1.217h-1.217zm3.65 0h1.217v1.217h-1.217zm1.217 0h1.217v1.217H69.35zm63.267 0h1.217v1.217h-1.217z"/><path d="M133.833 201.358h1.217v1.217h-1.217zm-69.35 1.217H65.7v1.217h-1.217zm1.217 0h1.217v1.217H65.7zm1.217 0h1.217v1.217h-1.217zm2.433 0h1.217v1.217H69.35zm1.217 0h1.217v1.217h-1.217zm59.616 0h1.217v1.217h-1.217zm1.217 0h1.217v1.217H131.4zm-64.483 1.217h1.217v1.217h-1.217z"/><path d="M68.133 203.792h1.217v1.217h-1.217zm1.217 0h1.217v1.217H69.35zm1.217 0h1.217v1.217h-1.217z"/><path d="M71.783 203.792H73v1.217h-1.217zm55.967 0h1.217v1.217h-1.217zm1.217 0h1.217v1.217h-1.217z"/><path d="M130.183 203.792h1.217v1.217h-1.217zm-60.833 1.216h1.217v1.217H69.35zm1.217 0h1.217v1.217h-1.217z"/><path d="M71.783 205.008H73v1.217h-1.217zm1.217 0h1.217v1.217H73zm52.317 0h1.217v1.217h-1.217z"/><path d="M126.533 205.008h1.217v1.217h-1.217zm1.217 0h1.217v1.217h-1.217zm-55.967 1.217H73v1.217h-1.217zm1.217 0h1.217v1.217H73zm1.217 0h1.217v1.217h-1.217z"/><path d="M75.433 206.225h1.217v1.217h-1.217zm47.45 0h1.217v1.217h-1.217zm1.217 0h1.217v1.217H124.1zm1.217 0h1.217v1.217h-1.217zm-51.1 1.217h1.217v1.217h-1.217z"/><path d="M75.433 207.442h1.217v1.217h-1.217zm1.217 0h1.217v1.217H76.65zm43.8 0h1.217v1.217h-1.217zm1.217 0h1.217v1.217h-1.217z"/><path d="M122.883 207.442h1.217v1.217h-1.217zm-46.233 1.216h1.217v1.217H76.65zm1.217 0h1.217v1.217h-1.217z"/><path d="M79.083 208.658H80.3v1.217h-1.217zm38.934 0h1.217v1.217h-1.217z"/><path d="M119.233 208.658h1.217v1.217h-1.217zm1.217 0h1.217v1.217h-1.217zm-41.367 1.217H80.3v1.217h-1.217zm1.217 0h1.217v1.217H80.3zm1.217 0h1.217v1.217h-1.217zm32.85 0h1.217v1.217h-1.217z"/><path d="M115.583 209.875h1.217v1.217h-1.217zm1.217 0h1.217v1.217H116.8zm1.217 0h1.217v1.217h-1.217zm-36.5 1.217h1.217v1.217h-1.217z"/><path d="M82.733 211.092h1.217v1.217h-1.217zm1.217 0h1.217v1.217H83.95zm1.217 0h1.217v1.217h-1.217zm24.333 0h1.217v1.217H109.5zm1.217 0h1.217v1.217h-1.217z"/><path d="M111.933 211.092h1.217v1.217h-1.217zm1.217 0h1.217v1.217h-1.217zm1.217 0h1.217v1.217h-1.217zm-29.2 1.216h1.217v1.217h-1.217z"/><path d="M86.383 212.308H87.6v1.217h-1.217zm1.217 0h1.217v1.217H87.6zm1.217 0h1.217v1.217h-1.217z"/><path d="M90.033 212.308h1.217v1.217h-1.217zm1.217 0h1.217v1.217H91.25zm12.167 0h1.217v1.217h-1.217z"/><path d="M104.633 212.308h1.217v1.217h-1.217zm1.217 0h1.217v1.217h-1.217zm1.217 0h1.217v1.217h-1.217z"/><path d="M108.283 212.308h1.217v1.217h-1.217zm1.217 0h1.217v1.217H109.5zm1.217 0h1.217v1.217h-1.217zm-20.684 1.217h1.217v1.217h-1.217zm1.217 0h1.217v1.217H91.25zm1.217 0h1.217v1.217h-1.217z"/><path d="M93.683 213.525H94.9v1.217h-1.217zm1.217 0h1.217v1.217H94.9zm1.217 0h1.217v1.217h-1.217z"/><path d="M97.333 213.525h1.217v1.217h-1.217zm1.217 0h1.217v1.217H98.55zm1.217 0h1.217v1.217h-1.217z"/><path d="M100.983 213.525h1.217v1.217h-1.217zm1.217 0h1.217v1.217H102.2zm1.217 0h1.217v1.217h-1.217z"/><path d="M104.633 213.525h1.217v1.217h-1.217z"/></g></svg>