<svg xmlns="http://www.w3.org/2000/svg" width="219" height="219" fill="none"><g fill="#F4F7F5" opacity=".64"><path d="M112.542 4.258h1.217v1.217h-1.217zm-2.434 1.217h1.217v1.217h-1.217zm1.217 0h1.217v1.217h-1.217zm1.217 0h1.217v1.217h-1.217z"/><path d="M113.758 5.475h1.217v1.217h-1.217zm1.217 0h1.217v1.217h-1.217zm-7.3 1.217h1.217v1.217h-1.217zm1.217 0h1.217v1.217h-1.217z"/><path d="M110.108 6.692h1.217v1.217h-1.217zm4.867 0h1.217v1.217h-1.217zm1.217 0h1.217v1.217h-1.217z"/><path d="M117.408 6.692h1.217v1.217h-1.217zm-12.166 1.216h1.217v1.217h-1.217z"/><path d="M106.458 7.908h1.217v1.217h-1.217zm1.217 0h1.217v1.217h-1.217zm9.733 0h1.217v1.217h-1.217zm1.217 0h1.217v1.217h-1.217zm1.217 0h1.217v1.217h-1.217zm-15.817 1.217h1.217v1.217h-1.217zm1.217 0h1.217v1.217h-1.217zm14.6 0h1.217v1.217h-1.217z"/><path d="M121.058 9.125h1.217v1.217h-1.217zm1.217 0h1.217v1.217h-1.217zm-20.683 1.217h1.217v1.217h-1.217z"/><path d="M102.808 10.342h1.217v1.217h-1.217zm1.217 0h1.217v1.217h-1.217zm18.25 0h1.217v1.217h-1.217zm1.217 0h1.217v1.217h-1.217z"/><path d="M124.708 10.342h1.217v1.217h-1.217zm-25.55 1.216h1.217v1.217h-1.217zm1.217 0h1.217v1.217h-1.217zm1.217 0h1.217v1.217h-1.217z"/><path d="M124.708 11.558h1.217v1.217h-1.217zm1.217 0h1.217v1.217h-1.217zm1.217 0h1.217v1.217h-1.217zm-29.2 1.217h1.217v1.217h-1.217z"/><path d="M99.158 12.775h1.217v1.217h-1.217zm27.984 0h1.217v1.217h-1.217z"/><path d="M128.358 12.775h1.217v1.217h-1.217z"/><path d="M129.575 12.775h1.217v1.217h-1.217zm-31.633 1.217h1.217v1.217h-1.217z"/><path d="M99.158 13.992h1.217v1.217h-1.217zm1.217 0h1.217v1.217h-1.217zm1.217 0h1.217v1.217h-1.217zm27.983 0h1.217v1.217h-1.217zm1.217 0h1.217v1.217h-1.217z"/><path d="M132.008 13.992h1.217v1.217h-1.217zm-35.283 1.216h1.217v1.217h-1.217zm1.217 0h1.217v1.217h-1.217zm3.65 0h1.217v1.217h-1.217z"/><path d="M102.808 15.208h1.217v1.217h-1.217zm1.217 0h1.217v1.217h-1.217zm27.983 0h1.217v1.217h-1.217z"/><path d="M133.225 15.208h1.217v1.217h-1.217zm1.217 0h1.217v1.217h-1.217zm-37.717 1.217h1.217v1.217h-1.217zm7.3 0h1.217v1.217h-1.217zm1.217 0h1.217v1.217h-1.217z"/><path d="M106.458 16.425h1.217v1.217h-1.217zm27.984 0h1.217v1.217h-1.217z"/><path d="M135.658 16.425h1.217v1.217h-1.217zm1.217 0h1.217v1.217h-1.217zm-41.367 1.217h1.217v1.217h-1.217zm1.217 0h1.217v1.217h-1.217zm9.733 0h1.217v1.217h-1.217zm1.217 0h1.217v1.217h-1.217zm1.217 0h1.217v1.217h-1.217zm27.983 0h1.217v1.217h-1.217zm1.217 0h1.217v1.217h-1.217z"/><path d="M139.308 17.642h1.217v1.217h-1.217zm-43.8 1.216h1.217v1.217h-1.217zm13.384 0h1.217v1.217h-1.217z"/><path d="M110.108 18.858h1.217v1.217h-1.217zm1.217 0h1.217v1.217h-1.217zm27.983 0h1.217v1.217h-1.217zm1.217 0h1.217v1.217h-1.217z"/><path d="M141.742 18.858h1.217v1.217h-1.217zm-47.45 1.217h1.217v1.217h-1.217z"/><path d="M95.508 20.075h1.217v1.217h-1.217zm15.817 0h1.217v1.217h-1.217zm1.217 0h1.217v1.217h-1.217z"/><path d="M113.758 20.075h1.217v1.217h-1.217zm27.984 0h1.217v1.217h-1.217z"/><path d="M142.958 20.075h1.217v1.217h-1.217zm1.217 0h1.217v1.217h-1.217zm-49.883 1.217h1.217v1.217h-1.217zm19.466 0h1.217v1.217h-1.217zm1.217 0h1.217v1.217h-1.217zm1.217 0h1.217v1.217h-1.217zm27.983 0h1.217v1.217h-1.217z"/><path d="M145.392 21.292h1.217v1.217h-1.217z"/><path d="M146.608 21.292h1.217v1.217h-1.217zm-52.316 1.216h1.217v1.217h-1.217zm21.9 0h1.217v1.217h-1.217z"/><path d="M117.408 22.508h1.217v1.217h-1.217zm1.217 0h1.217v1.217h-1.217zm27.983 0h1.217v1.217h-1.217z"/><path d="M147.825 22.508h1.217v1.217h-1.217zm-54.75 1.217h1.217v1.217h-1.217zm25.55 0h1.217v1.217h-1.217zm1.217 0h1.217v1.217h-1.217z"/><path d="M121.058 23.725h1.217v1.217h-1.217zm23.117 0h1.217v1.217h-1.217z"/><path d="M145.392 23.725h1.217v1.217h-1.217z"/><path d="M146.608 23.725h1.217v1.217h-1.217z"/><path d="M147.825 23.725h1.217v1.217h-1.217zm-54.75 1.217h1.217v1.217h-1.217zm27.983 0h1.217v1.217h-1.217zm1.217 0h1.217v1.217h-1.217zm1.217 0h1.217v1.217h-1.217zm19.466 0h1.217v1.217h-1.217zm1.217 0h1.217v1.217h-1.217zm3.65 0h1.217v1.217h-1.217zm-55.967 1.216h1.217v1.217h-1.217z"/><path d="M93.075 26.158h1.217v1.217h-1.217zm30.417 0h1.217v1.217h-1.217z"/><path d="M124.708 26.158h1.217v1.217h-1.217zm1.217 0h1.217v1.217h-1.217zm14.6 0h1.217v1.217h-1.217z"/><path d="M141.742 26.158h1.217v1.217h-1.217z"/><path d="M142.958 26.158h1.217v1.217h-1.217zm4.867 0h1.217v1.217h-1.217zm-55.967 1.217h1.217v1.217h-1.217zm34.067 0h1.217v1.217h-1.217zm1.217 0h1.217v1.217h-1.217z"/><path d="M128.358 27.375h1.217v1.217h-1.217zm9.734 0h1.217v1.217h-1.217z"/><path d="M139.308 27.375h1.217v1.217h-1.217zm1.217 0h1.217v1.217h-1.217zm7.3 0h1.217v1.217h-1.217zm-57.183 1.217h1.217v1.217h-1.217z"/><path d="M91.858 28.592h1.217v1.217h-1.217zm36.5 0h1.217v1.217h-1.217z"/><path d="M129.575 28.592h1.217v1.217h-1.217zm1.217 0h1.217v1.217h-1.217zm6.083 0h1.217v1.217h-1.217zm1.217 0h1.217v1.217h-1.217zm9.733 0h1.217v1.217h-1.217zm-57.183 1.216h1.217v1.217h-1.217z"/><path d="M130.792 29.808h1.217v1.217h-1.217z"/><path d="M132.008 29.808h1.217v1.217h-1.217z"/><path d="M133.225 29.808h1.217v1.217h-1.217zm1.217 0h1.217v1.217h-1.217z"/><path d="M135.658 29.808h1.217v1.217h-1.217zm10.95 0h1.217v1.217h-1.217zm1.217 0h1.217v1.217h-1.217zm-58.4 1.217h1.217v1.217h-1.217zm1.217 0h1.217v1.217h-1.217zm42.583 0h1.217v1.217h-1.217zm1.217 0h1.217v1.217h-1.217zm12.166 0h1.217v1.217h-1.217zm1.217 0h1.217v1.217h-1.217zm-58.4 1.217h1.217v1.217h-1.217zm43.8 0h1.217v1.217h-1.217zm13.383 0h1.217v1.217h-1.217z"/><path d="M147.825 32.242h1.217v1.217h-1.217zm-59.617 1.216h1.217v1.217h-1.217zm1.217 0h1.217v1.217h-1.217zm42.583 0h1.217v1.217h-1.217z"/><path d="M133.225 33.458h1.217v1.217h-1.217zm13.383 0h1.217v1.217h-1.217zm-58.4 1.217h1.217v1.217h-1.217zm43.8 0h1.217v1.217h-1.217zm14.6 0h1.217v1.217h-1.217zm-58.4 1.217h1.217v1.217h-1.217zm42.584 0h1.217v1.217h-1.217z"/><path d="M132.008 35.892h1.217v1.217h-1.217zm14.6 0h1.217v1.217h-1.217zm-59.616 1.216h1.217v1.217h-1.217z"/><path d="M88.208 37.108h1.217v1.217h-1.217zm42.584 0h1.217v1.217h-1.217zm15.816 0h1.217v1.217h-1.217zm-59.616 1.217h1.217v1.217h-1.217zm43.8 0h1.217v1.217h-1.217zm15.816 0h1.217v1.217h-1.217zm-60.833 1.217h1.217v1.217h-1.217zm1.217 0h1.217v1.217h-1.217zm42.583 0h1.217v1.217h-1.217zm17.033 0h1.217v1.217h-1.217z"/><path d="M85.775 40.758h1.217v1.217h-1.217zm43.8 0h1.217v1.217h-1.217zm17.033 0h1.217v1.217h-1.217zm-62.05 1.217h1.217v1.217h-1.217zm1.217 0h1.217v1.217h-1.217zm42.583 0h1.217v1.217h-1.217z"/><path d="M129.575 41.975h1.217v1.217h-1.217zm15.817 0h1.217v1.217h-1.217z"/><path d="M146.608 41.975h1.217v1.217h-1.217zm-62.05 1.217h1.217v1.217h-1.217zm43.8 0h1.217v1.217h-1.217zm17.034 0h1.217v1.217h-1.217z"/><path d="M146.608 43.192h1.217v1.217h-1.217zm-63.266 1.216h1.217v1.217h-1.217z"/><path d="M84.558 44.408h1.217v1.217h-1.217zm42.584 0h1.217v1.217h-1.217z"/><path d="M128.358 44.408h1.217v1.217h-1.217zm17.034 0h1.217v1.217h-1.217z"/><path d="M146.608 44.408h1.217v1.217h-1.217zm-63.266 1.217h1.217v1.217h-1.217zm43.8 0h1.217v1.217h-1.217zm18.25 0h1.217v1.217h-1.217zm-62.05 1.217h1.217v1.217h-1.217zm42.583 0h1.217v1.217h-1.217zm1.217 0h1.217v1.217h-1.217zm18.25 0h1.217v1.217h-1.217zm-63.267 1.216h1.217v1.217h-1.217z"/><path d="M83.342 48.058h1.217v1.217h-1.217zm42.583 0h1.217v1.217h-1.217zm19.467 0h1.217v1.217h-1.217zm-63.267 1.217h1.217v1.217h-1.217zm42.583 0h1.217v1.217h-1.217zm1.217 0h1.217v1.217h-1.217zm19.467 0h1.217v1.217h-1.217z"/><path d="M146.608 49.275h1.217v1.217h-1.217z"/><path d="M147.825 49.275h1.217v1.217h-1.217zm1.217 0h1.217v1.217h-1.217zm-68.134 1.217h1.217v1.217h-1.217zm1.217 0h1.217v1.217h-1.217zm42.583 0h1.217v1.217h-1.217zm20.684 0h1.217v1.217h-1.217z"/><path d="M146.608 50.492h1.217v1.217h-1.217zm2.434 0h1.217v1.217h-1.217z"/><path d="M150.258 50.492h1.217v1.217h-1.217z"/><path d="M151.475 50.492h1.217v1.217h-1.217zm-70.567 1.216h1.217v1.217h-1.217zm43.8 0h1.217v1.217h-1.217zm20.684 0h1.217v1.217h-1.217z"/><path d="M151.475 51.708h1.217v1.217h-1.217zm1.217 0h1.217v1.217h-1.217z"/><path d="M153.908 51.708h1.217v1.217h-1.217zm-74.216 1.217h1.217v1.217h-1.217z"/><path d="M80.908 52.925h1.217v1.217h-1.217zm42.584 0h1.217v1.217h-1.217z"/><path d="M124.708 52.925h1.217v1.217h-1.217zm19.467 0h1.217v1.217h-1.217z"/><path d="M145.392 52.925h1.217v1.217h-1.217zm8.516 0h1.217v1.217h-1.217zm1.217 0h1.217v1.217h-1.217zm1.217 0h1.217v1.217h-1.217zm-76.65 1.217h1.217v1.217h-1.217zm43.8 0h1.217v1.217h-1.217zm20.683 0h1.217v1.217h-1.217z"/><path d="M145.392 54.142h1.217v1.217h-1.217zm10.95 0h1.217v1.217h-1.217z"/><path d="M157.558 54.142h1.217v1.217h-1.217zm1.217 0h1.217v1.217h-1.217zm-80.3 1.216h1.217v1.217h-1.217zm1.217 0h1.217v1.217h-1.217zm42.583 0h1.217v1.217h-1.217zm1.217 0h1.217v1.217h-1.217zm20.683 0h1.217v1.217h-1.217z"/><path d="M145.392 55.358h1.217v1.217h-1.217zm13.383 0h1.217v1.217h-1.217z"/><path d="M159.992 55.358h1.217v1.217h-1.217z"/><path d="M161.208 55.358h1.217v1.217h-1.217zm-82.733 1.217h1.217v1.217h-1.217zm43.8 0h1.217v1.217h-1.217zm21.9 0h1.217v1.217h-1.217zm17.033 0h1.217v1.217h-1.217zm1.217 0h1.217v1.217h-1.217zm1.217 0h1.217v1.217h-1.217zm-85.167 1.217h1.217v1.217h-1.217zm42.583 0h1.217v1.217h-1.217zm1.217 0h1.217v1.217h-1.217zm21.9 0h1.217v1.217h-1.217zm19.467 0h1.217v1.217h-1.217z"/><path d="M164.858 57.792h1.217v1.217h-1.217z"/><path d="M166.075 57.792h1.217v1.217h-1.217zm-88.817 1.216h1.217v1.217h-1.217zm1.217 0h1.217v1.217h-1.217zm42.583 0h1.217v1.217h-1.217zm23.117 0h1.217v1.217h-1.217z"/><path d="M166.075 59.008h1.217v1.217h-1.217zm1.217 0h1.217v1.217h-1.217z"/><path d="M168.508 59.008h1.217v1.217h-1.217zm-91.25 1.217h1.217v1.217h-1.217zm42.584 0h1.217v1.217h-1.217z"/><path d="M121.058 60.225h1.217v1.217h-1.217zm23.117 0h1.217v1.217h-1.217zm24.333 0h1.217v1.217h-1.217z"/><path d="M169.725 60.225h1.217v1.217h-1.217zm1.217 0h1.217v1.217h-1.217zm-94.9 1.217h1.217v1.217h-1.217z"/><path d="M77.258 61.442h1.217v1.217h-1.217zm42.584 0h1.217v1.217h-1.217zm24.333 0h1.217v1.217h-1.217zm26.767 0h1.217v1.217h-1.217z"/><path d="M172.158 61.442h1.217v1.217h-1.217zm1.217 0h1.217v1.217h-1.217zm-97.333 1.216h1.217v1.217h-1.217zm43.8 0h1.217v1.217h-1.217zm24.333 0h1.217v1.217h-1.217z"/><path d="M173.375 62.658h1.217v1.217h-1.217zm1.217 0h1.217v1.217h-1.217z"/><path d="M175.808 62.658h1.217v1.217h-1.217zM74.825 63.875h1.217v1.217h-1.217zm1.217 0h1.217v1.217h-1.217zm42.583 0h1.217v1.217h-1.217zm1.217 0h1.217v1.217h-1.217zm24.333 0h1.217v1.217h-1.217zm31.633 0h1.217v1.217h-1.217zm1.217 0h1.217v1.217h-1.217z"/><path d="M178.242 63.875h1.217v1.217h-1.217zM74.825 65.092h1.217v1.217h-1.217zm43.8 0h1.217v1.217h-1.217zm24.333 0h1.217v1.217h-1.217zm1.217 0h1.217v1.217h-1.217zm34.067 0h1.217v1.217h-1.217z"/><path d="M179.458 65.092h1.217v1.217h-1.217zm1.217 0h1.217v1.217h-1.217zM73.608 66.308h1.217v1.217h-1.217zm1.217 0h1.217v1.217h-1.217zm42.583 0h1.217v1.217h-1.217zm1.217 0h1.217v1.217h-1.217zm24.333 0h1.217v1.217h-1.217zm1.217 0h1.217v1.217h-1.217z"/><path d="M180.675 66.308h1.217v1.217h-1.217z"/><path d="M181.892 66.308h1.217v1.217h-1.217z"/><path d="M183.108 66.308h1.217v1.217h-1.217zm-109.5 1.217h1.217v1.217h-1.217zm43.8 0h1.217v1.217h-1.217zm25.55 0h1.217v1.217h-1.217zm1.217 0h1.217v1.217h-1.217zm37.717 0h1.217v1.217h-1.217z"/><path d="M183.108 67.525h1.217v1.217h-1.217zm-109.5 1.217h1.217v1.217h-1.217zm42.584 0h1.217v1.217h-1.217z"/><path d="M117.408 68.742h1.217v1.217h-1.217zm25.55 0h1.217v1.217h-1.217zm36.5 0h1.217v1.217h-1.217zm1.217 0h1.217v1.217h-1.217z"/><path d="M181.892 68.742h1.217v1.217h-1.217z"/><path d="M183.108 68.742h1.217v1.217h-1.217zM72.392 69.958h1.217v1.217h-1.217zm43.8 0h1.217v1.217h-1.217zm26.766 0h1.217v1.217h-1.217zm34.067 0h1.217v1.217h-1.217z"/><path d="M178.242 69.958h1.217v1.217h-1.217z"/><path d="M179.458 69.958h1.217v1.217h-1.217zm2.434 0h1.217v1.217h-1.217zm-109.5 1.217h1.217v1.217h-1.217zm42.583 0h1.217v1.217h-1.217zm1.217 0h1.217v1.217h-1.217zm26.766 0h1.217v1.217h-1.217zm31.634 0h1.217v1.217h-1.217z"/><path d="M175.808 71.175h1.217v1.217h-1.217zm1.217 0h1.217v1.217h-1.217zm3.65 0h1.217v1.217h-1.217z"/><path d="M181.892 71.175h1.217v1.217h-1.217zM71.175 72.392h1.217v1.217h-1.217zm1.217 0h1.217v1.217h-1.217zm42.583 0h1.217v1.217h-1.217zm27.983 0h1.217v1.217h-1.217zm30.417 0h1.217v1.217h-1.217zm1.217 0h1.217v1.217h-1.217zm6.083 0h1.217v1.217h-1.217z"/><path d="M71.175 73.608h1.217v1.217h-1.217zm43.8 0h1.217v1.217h-1.217zm27.983 0h1.217v1.217h-1.217zm27.984 0h1.217v1.217h-1.217z"/><path d="M172.158 73.608h1.217v1.217h-1.217zm1.217 0h1.217v1.217h-1.217zm6.083 0h1.217v1.217h-1.217zm1.217 0h1.217v1.217h-1.217zM69.958 74.825h1.217v1.217h-1.217zm1.217 0h1.217v1.217h-1.217zm42.583 0h1.217v1.217h-1.217zm1.217 0h1.217v1.217h-1.217zm27.983 0h1.217v1.217h-1.217zm25.55 0h1.217v1.217h-1.217z"/><path d="M169.725 74.825h1.217v1.217h-1.217zm1.217 0h1.217v1.217h-1.217zm8.516 0h1.217v1.217h-1.217zm-109.5 1.217h1.217v1.217h-1.217zm43.8 0h1.217v1.217h-1.217zm29.2 0h1.217v1.217h-1.217zm24.334 0h1.217v1.217h-1.217z"/><path d="M168.508 76.042h1.217v1.217h-1.217zm9.734 0h1.217v1.217h-1.217z"/><path d="M179.458 76.042h1.217v1.217h-1.217zM68.742 77.258h1.217v1.217h-1.217z"/><path d="M69.958 77.258h1.217v1.217h-1.217zm42.584 0h1.217v1.217h-1.217z"/><path d="M113.758 77.258h1.217v1.217h-1.217zm27.984 0h1.217v1.217h-1.217z"/><path d="M142.958 77.258h1.217v1.217h-1.217zm21.9 0h1.217v1.217h-1.217z"/><path d="M166.075 77.258h1.217v1.217h-1.217zm12.167 0h1.217v1.217h-1.217zm-109.5 1.217h1.217v1.217h-1.217zm43.8 0h1.217v1.217h-1.217zm29.2 0h1.217v1.217h-1.217z"/><path d="M142.958 78.475h1.217v1.217h-1.217zm19.467 0h1.217v1.217h-1.217z"/><path d="M163.642 78.475h1.217v1.217h-1.217z"/><path d="M164.858 78.475h1.217v1.217h-1.217zm12.167 0h1.217v1.217h-1.217z"/><path d="M178.242 78.475h1.217v1.217h-1.217zM67.525 79.692h1.217v1.217h-1.217zm1.217 0h1.217v1.217h-1.217zm42.583 0h1.217v1.217h-1.217zm1.217 0h1.217v1.217h-1.217zm29.2 0h1.217v1.217h-1.217z"/><path d="M142.958 79.692h1.217v1.217h-1.217zm17.034 0h1.217v1.217h-1.217z"/><path d="M161.208 79.692h1.217v1.217h-1.217zm1.217 0h1.217v1.217h-1.217zm14.6 0h1.217v1.217h-1.217zm-109.5 1.216h1.217v1.217h-1.217zm43.8 0h1.217v1.217h-1.217zm30.417 0h1.217v1.217h-1.217zm17.033 0h1.217v1.217h-1.217z"/><path d="M159.992 80.908h1.217v1.217h-1.217zm15.816 0h1.217v1.217h-1.217zm1.217 0h1.217v1.217h-1.217zm-109.5 1.217h1.217v1.217h-1.217zm42.583 0h1.217v1.217h-1.217zm1.217 0h1.217v1.217h-1.217zm30.417 0h1.217v1.217h-1.217zm14.6 0h1.217v1.217h-1.217z"/><path d="M157.558 82.125h1.217v1.217h-1.217zm1.217 0h1.217v1.217h-1.217zm17.033 0h1.217v1.217h-1.217zm-109.5 1.217h1.217v1.217h-1.217zm1.217 0h1.217v1.217h-1.217zm42.583 0h1.217v1.217h-1.217zm31.634 0h1.217v1.217h-1.217zm12.166 0h1.217v1.217h-1.217zm1.217 0h1.217v1.217h-1.217zm1.217 0h1.217v1.217h-1.217zm18.25 0h1.217v1.217h-1.217z"/><path d="M175.808 83.342h1.217v1.217h-1.217zm-109.5 1.216h1.217v1.217h-1.217zm42.584 0h1.217v1.217h-1.217z"/><path d="M110.108 84.558h1.217v1.217h-1.217zm31.634 0h1.217v1.217h-1.217zm9.733 0h1.217v1.217h-1.217zm1.217 0h1.217v1.217h-1.217z"/><path d="M153.908 84.558h1.217v1.217h-1.217zm20.684 0h1.217v1.217h-1.217zm-109.5 1.217h1.217v1.217h-1.217z"/><path d="M66.308 85.775h1.217v1.217h-1.217zm42.584 0h1.217v1.217h-1.217zm32.85 0h1.217v1.217h-1.217zm8.516 0h1.217v1.217h-1.217z"/><path d="M151.475 85.775h1.217v1.217h-1.217zm21.9 0h1.217v1.217h-1.217zm1.217 0h1.217v1.217h-1.217zm-109.5 1.217h1.217v1.217h-1.217zm43.8 0h1.217v1.217h-1.217zm32.85 0h1.217v1.217h-1.217zm6.083 0h1.217v1.217h-1.217zm1.217 0h1.217v1.217h-1.217z"/><path d="M150.258 86.992h1.217v1.217h-1.217zm23.117 0h1.217v1.217h-1.217zm-109.5 1.216h1.217v1.217h-1.217zm1.217 0h1.217v1.217h-1.217zm42.583 0h1.217v1.217h-1.217zm1.217 0h1.217v1.217h-1.217zm32.85 0h1.217v1.217h-1.217zm3.65 0h1.217v1.217h-1.217z"/><path d="M146.608 88.208h1.217v1.217h-1.217z"/><path d="M147.825 88.208h1.217v1.217h-1.217zm24.333 0h1.217v1.217h-1.217zm1.217 0h1.217v1.217h-1.217zm-109.5 1.217h1.217v1.217h-1.217zm43.8 0h1.217v1.217h-1.217zm32.85 0h1.217v1.217h-1.217z"/><path d="M141.742 89.425h1.217v1.217h-1.217zm2.433 0h1.217v1.217h-1.217zm1.217 0h1.217v1.217h-1.217zm26.766 0h1.217v1.217h-1.217zm-109.5 1.217h1.217v1.217h-1.217zm1.217 0h1.217v1.217h-1.217zm42.583 0h1.217v1.217h-1.217zm1.217 0h1.217v1.217h-1.217zm32.85 0h1.217v1.217h-1.217zm1.217 0h1.217v1.217h-1.217z"/><path d="M142.958 90.642h1.217v1.217h-1.217zm27.984 0h1.217v1.217h-1.217z"/><path d="M172.158 90.642h1.217v1.217h-1.217zm-109.5 1.216h1.217v1.217h-1.217zm43.8 0h1.217v1.217h-1.217zm34.067 0h1.217v1.217h-1.217z"/><path d="M141.742 91.858h1.217v1.217h-1.217zm29.2 0h1.217v1.217h-1.217zM62.658 93.075h1.217v1.217h-1.217zm42.584 0h1.217v1.217h-1.217z"/><path d="M106.458 93.075h1.217v1.217h-1.217zm63.267 0h1.217v1.217h-1.217zm1.217 0h1.217v1.217h-1.217zm-109.5 1.217h1.217v1.217h-1.217z"/><path d="M62.658 94.292h1.217v1.217h-1.217zm42.584 0h1.217v1.217h-1.217zm64.483 0h1.217v1.217h-1.217z"/><path d="M61.442 95.508h1.217v1.217h-1.217zm42.583 0h1.217v1.217h-1.217zm1.217 0h1.217v1.217h-1.217zm63.266 0h1.217v1.217h-1.217z"/><path d="M169.725 95.508h1.217v1.217h-1.217zm-109.5 1.217h1.217v1.217h-1.217zm1.217 0h1.217v1.217h-1.217zm42.583 0h1.217v1.217h-1.217zm64.483 0h1.217v1.217h-1.217zM60.225 97.942h1.217v1.217h-1.217zm43.8 0h1.217v1.217h-1.217zm63.267 0h1.217v1.217h-1.217z"/><path d="M168.508 97.942h1.217v1.217h-1.217zm-109.5 1.216h1.217v1.217h-1.217zm1.217 0h1.217v1.217h-1.217zm42.583 0h1.217v1.217h-1.217zm1.217 0h1.217v1.217h-1.217z"/><path d="M167.292 99.158h1.217v1.217h-1.217zm-108.284 1.217h1.217v1.217h-1.217zm43.8 0h1.217v1.217h-1.217zm63.267 0h1.217v1.217h-1.217zm-108.283 1.217h1.217v1.217h-1.217z"/><path d="M59.008 101.592h1.217v1.217h-1.217zm42.584 0h1.217v1.217h-1.217z"/><path d="M102.808 101.592h1.217v1.217h-1.217zm63.267 0h1.217v1.217h-1.217zm-108.283 1.216h1.217v1.217h-1.217z"/><path d="M101.592 102.808h1.217v1.217h-1.217zm63.266 0h1.217v1.217h-1.217zm-107.066 1.217h1.217v1.217h-1.217zm42.583 0h1.217v1.217h-1.217zm1.217 0h1.217v1.217h-1.217zm62.05 0h1.217v1.217h-1.217z"/><path d="M164.858 104.025h1.217v1.217h-1.217zm-108.283 1.217h1.217v1.217h-1.217zm1.217 0h1.217v1.217h-1.217zm42.583 0h1.217v1.217h-1.217zm63.267 0h1.217v1.217h-1.217z"/><path d="M56.575 106.458h1.217v1.217h-1.217zm42.583 0h1.217v1.217h-1.217zm1.217 0h1.217v1.217h-1.217zm62.05 0h1.217v1.217h-1.217z"/><path d="M163.642 106.458h1.217v1.217h-1.217zm-108.284 1.217h1.217v1.217h-1.217zm1.217 0h1.217v1.217h-1.217zm42.583 0h1.217v1.217h-1.217zm63.267 0h1.217v1.217h-1.217zm-107.067 1.217h1.217v1.217h-1.217zm43.8 0h1.217v1.217h-1.217zm62.05 0h1.217v1.217h-1.217zm1.217 0h1.217v1.217h-1.217z"/><path d="M54.142 110.108h1.217v1.217h-1.217z"/><path d="M55.358 110.108h1.217v1.217h-1.217zm42.584 0h1.217v1.217h-1.217z"/><path d="M99.158 110.108h1.217v1.217h-1.217zm62.05 0h1.217v1.217h-1.217zm-107.066 1.217h1.217v1.217h-1.217zm43.8 0h1.217v1.217h-1.217zm62.05 0h1.217v1.217h-1.217z"/><path d="M161.208 111.325h1.217v1.217h-1.217zm-108.283 1.217h1.217v1.217h-1.217zm1.217 0h1.217v1.217h-1.217zm42.583 0h1.217v1.217h-1.217zm1.217 0h1.217v1.217h-1.217zm62.05 0h1.217v1.217h-1.217z"/><path d="M52.925 113.758h1.217v1.217h-1.217zm43.8 0h1.217v1.217h-1.217zm62.05 0h1.217v1.217h-1.217zm1.217 0h1.217v1.217h-1.217zm-108.284 1.217h1.217v1.217h-1.217zm1.217 0h1.217v1.217h-1.217zm42.583 0h1.217v1.217h-1.217zm1.217 0h1.217v1.217h-1.217zm62.05 0h1.217v1.217h-1.217zm-107.067 1.217h1.217v1.217h-1.217zm43.8 0h1.217v1.217h-1.217zm62.05 0h1.217v1.217h-1.217zm1.217 0h1.217v1.217h-1.217z"/><path d="M51.708 117.408h1.217v1.217h-1.217zm42.584 0h1.217v1.217h-1.217z"/><path d="M95.508 117.408h1.217v1.217h-1.217zm62.05 0h1.217v1.217h-1.217zm-107.066 1.217h1.217v1.217h-1.217z"/><path d="M51.708 118.625h1.217v1.217h-1.217zm42.584 0h1.217v1.217h-1.217zm62.05 0h1.217v1.217h-1.217z"/><path d="M157.558 118.625h1.217v1.217h-1.217zm-107.066 1.217h1.217v1.217h-1.217zm43.8 0h1.217v1.217h-1.217zm62.05 0h1.217v1.217h-1.217zm-107.067 1.216h1.217v1.217h-1.217z"/><path d="M50.492 121.058h1.217v1.217h-1.217zm42.583 0h1.217v1.217h-1.217zm1.217 0h1.217v1.217h-1.217zm60.833 0h1.217v1.217h-1.217zm1.217 0h1.217v1.217h-1.217zm-107.067 1.217h1.217v1.217h-1.217zm43.8 0h1.217v1.217h-1.217zm62.05 0h1.217v1.217h-1.217zm-107.067 1.217h1.217v1.217h-1.217zm1.217 0h1.217v1.217h-1.217zm42.583 0h1.217v1.217h-1.217zm1.217 0h1.217v1.217h-1.217zm60.833 0h1.217v1.217h-1.217zm1.217 0h1.217v1.217h-1.217z"/><path d="M48.058 124.708h1.217v1.217h-1.217zm43.8 0h1.217v1.217h-1.217zm62.05 0h1.217v1.217h-1.217zm-107.066 1.217h1.217v1.217h-1.217z"/><path d="M48.058 125.925h1.217v1.217h-1.217zm42.584 0h1.217v1.217h-1.217z"/><path d="M91.858 125.925h1.217v1.217h-1.217zm60.834 0h1.217v1.217h-1.217z"/><path d="M153.908 125.925h1.217v1.217h-1.217zm-107.066 1.217h1.217v1.217h-1.217zm43.8 0h1.217v1.217h-1.217zm62.05 0h1.217v1.217h-1.217z"/><path d="M46.842 128.358h1.217v1.217h-1.217zm42.583 0h1.217v1.217h-1.217zm1.217 0h1.217v1.217h-1.217zm60.833 0h1.217v1.217h-1.217zm1.217 0h1.217v1.217h-1.217zm-107.067 1.217h1.217v1.217h-1.217z"/><path d="M46.842 129.575h1.217v1.217h-1.217zm42.583 0h1.217v1.217h-1.217zm62.05 0h1.217v1.217h-1.217zm-105.85 1.217h1.217v1.217h-1.217zm42.583 0h1.217v1.217h-1.217zm1.217 0h1.217v1.217h-1.217zm60.833 0h1.217v1.217h-1.217z"/><path d="M151.475 130.792h1.217v1.217h-1.217zm-107.067 1.216h1.217v1.217h-1.217zm1.217 0h1.217v1.217h-1.217zm42.583 0h1.217v1.217h-1.217z"/><path d="M150.258 132.008h1.217v1.217h-1.217zm-105.85 1.217h1.217v1.217h-1.217zm43.8 0h1.217v1.217h-1.217z"/><path d="M149.042 133.225h1.217v1.217h-1.217z"/><path d="M150.258 133.225h1.217v1.217h-1.217zm-107.066 1.217h1.217v1.217h-1.217z"/><path d="M44.408 134.442h1.217v1.217h-1.217zm42.584 0h1.217v1.217h-1.217z"/><path d="M88.208 134.442h1.217v1.217h-1.217zm60.834 0h1.217v1.217h-1.217zm-105.85 1.216h1.217v1.217h-1.217z"/><path d="M86.992 135.658h1.217v1.217h-1.217zm60.833 0h1.217v1.217h-1.217zm1.217 0h1.217v1.217h-1.217zm-107.067 1.217h1.217v1.217h-1.217zm1.217 0h1.217v1.217h-1.217zm42.583 0h1.217v1.217h-1.217zm1.217 0h1.217v1.217h-1.217zm60.833 0h1.217v1.217h-1.217zm-105.85 1.217h1.217v1.217h-1.217zm43.8 0h1.217v1.217h-1.217zm60.833 0h1.217v1.217h-1.217z"/><path d="M147.825 138.092h1.217v1.217h-1.217zm-105.85 1.216h1.217v1.217h-1.217zm42.583 0h1.217v1.217h-1.217zm1.217 0h1.217v1.217h-1.217z"/><path d="M146.608 139.308h1.217v1.217h-1.217zm-105.85 1.217h1.217v1.217h-1.217zm1.217 0h1.217v1.217h-1.217zm42.583 0h1.217v1.217h-1.217zm60.834 0h1.217v1.217h-1.217z"/><path d="M146.608 140.525h1.217v1.217h-1.217zm-105.85 1.217h1.217v1.217h-1.217zm42.584 0h1.217v1.217h-1.217z"/><path d="M84.558 141.742h1.217v1.217h-1.217zm60.834 0h1.217v1.217h-1.217zm-105.85 1.216h1.217v1.217h-1.217z"/><path d="M40.758 142.958h1.217v1.217h-1.217zm42.584 0h1.217v1.217h-1.217zm60.833 0h1.217v1.217h-1.217z"/><path d="M145.392 142.958h1.217v1.217h-1.217zm-105.85 1.217h1.217v1.217h-1.217zm43.8 0h1.217v1.217h-1.217zm60.833 0h1.217v1.217h-1.217zm-105.85 1.217h1.217v1.217h-1.217z"/><path d="M39.542 145.392h1.217v1.217h-1.217zm42.583 0h1.217v1.217h-1.217zm1.217 0h1.217v1.217h-1.217zm59.616 0h1.217v1.217h-1.217zm1.217 0h1.217v1.217h-1.217zm-105.85 1.216h1.217v1.217h-1.217z"/><path d="M82.125 146.608h1.217v1.217h-1.217zm60.833 0h1.217v1.217h-1.217zm-105.85 1.217h1.217v1.217h-1.217zm1.217 0h1.217v1.217h-1.217zm42.583 0h1.217v1.217h-1.217z"/><path d="M82.125 147.825h1.217v1.217h-1.217zm59.617 0h1.217v1.217h-1.217z"/><path d="M142.958 147.825h1.217v1.217h-1.217zm-105.85 1.217h1.217v1.217h-1.217zm43.8 0h1.217v1.217h-1.217zm60.834 0h1.217v1.217h-1.217z"/><path d="M37.108 150.258h1.217v1.217h-1.217zm42.584 0h1.217v1.217h-1.217z"/><path d="M80.908 150.258h1.217v1.217h-1.217zm59.617 0h1.217v1.217h-1.217z"/><path d="M141.742 150.258h1.217v1.217h-1.217zm-105.85 1.217h1.217v1.217h-1.217z"/><path d="M37.108 151.475h1.217v1.217h-1.217zm42.584 0h1.217v1.217h-1.217zm60.833 0h1.217v1.217h-1.217zm-104.633 1.217h1.217v1.217h-1.217zm42.583 0h1.217v1.217h-1.217zm1.217 0h1.217v1.217h-1.217zm24.333 0h1.217v1.217h-1.217zm1.217 0h1.217v1.217h-1.217zm34.066 0h1.217v1.217h-1.217zm-104.633 1.216h1.217v1.217h-1.217z"/><path d="M35.892 153.908h1.217v1.217h-1.217zm42.583 0h1.217v1.217h-1.217zm24.333 0h1.217v1.217h-1.217zm1.217 0h1.217v1.217h-1.217zm1.217 0h1.217v1.217h-1.217zm34.066 0h1.217v1.217h-1.217zm-104.633 1.217h1.217v1.217h-1.217zm1.217 0h1.217v1.217h-1.217zm42.583 0h1.217v1.217h-1.217zm21.9 0h1.217v1.217h-1.217zm1.217 0h1.217v1.217h-1.217zm3.65 0h1.217v1.217h-1.217zm32.85 0h1.217v1.217h-1.217zm-102.2 1.217h1.217v1.217h-1.217z"/><path d="M37.108 156.342h1.217v1.217h-1.217zm1.217 0h1.217v1.217h-1.217zm38.933 0h1.217v1.217h-1.217zm1.217 0h1.217v1.217h-1.217zm19.467 0h1.217v1.217h-1.217z"/><path d="M99.158 156.342h1.217v1.217h-1.217zm1.217 0h1.217v1.217h-1.217zm4.867 0h1.217v1.217h-1.217zm31.633 0h1.217v1.217h-1.217zm1.217 0h1.217v1.217h-1.217zm-99.767 1.216h1.217v1.217h-1.217zm1.217 0h1.217v1.217h-1.217z"/><path d="M40.758 157.558h1.217v1.217h-1.217zm36.5 0h1.217v1.217h-1.217zm18.25 0h1.217v1.217h-1.217zm1.217 0h1.217v1.217h-1.217zm1.217 0h1.217v1.217h-1.217zm7.3 0h1.217v1.217h-1.217zm31.633 0h1.217v1.217h-1.217zm-96.117 1.217h1.217v1.217h-1.217zm1.217 0h1.217v1.217h-1.217zm1.217 0h1.217v1.217h-1.217zm32.85 0h1.217v1.217h-1.217z"/><path d="M77.258 158.775h1.217v1.217h-1.217zm17.034 0h1.217v1.217h-1.217z"/><path d="M95.508 158.775h1.217v1.217h-1.217zm9.734 0h1.217v1.217h-1.217zm30.416 0h1.217v1.217h-1.217zm1.217 0h1.217v1.217h-1.217zm-93.683 1.217h1.217v1.217h-1.217z"/><path d="M44.408 159.992h1.217v1.217h-1.217zm1.217 0h1.217v1.217h-1.217zm30.417 0h1.217v1.217h-1.217zm15.816 0h1.217v1.217h-1.217zm1.217 0h1.217v1.217h-1.217zm1.217 0h1.217v1.217h-1.217zm9.733 0h1.217v1.217h-1.217zm1.217 0h1.217v1.217h-1.217zm30.416 0h1.217v1.217h-1.217z"/><path d="M45.625 161.208h1.217v1.217h-1.217zm1.217 0h1.217v1.217h-1.217z"/><path d="M48.058 161.208h1.217v1.217h-1.217zm26.767 0h1.217v1.217h-1.217zm1.217 0h1.217v1.217h-1.217zm13.383 0h1.217v1.217h-1.217zm1.217 0h1.217v1.217h-1.217z"/><path d="M91.858 161.208h1.217v1.217h-1.217zm12.167 0h1.217v1.217h-1.217zm1.217 0h1.217v1.217h-1.217zm29.2 0h1.217v1.217h-1.217z"/><path d="M135.658 161.208h1.217v1.217h-1.217zm-87.6 1.217h1.217v1.217h-1.217zm1.217 0h1.217v1.217h-1.217zm1.217 0h1.217v1.217h-1.217zm24.333 0h1.217v1.217h-1.217zm12.167 0h1.217v1.217h-1.217z"/><path d="M88.208 162.425h1.217v1.217h-1.217zm1.217 0h1.217v1.217h-1.217zm14.6 0h1.217v1.217h-1.217zm1.217 0h1.217v1.217h-1.217zm29.2 0h1.217v1.217h-1.217zm-83.95 1.217h1.217v1.217h-1.217z"/><path d="M51.708 163.642h1.217v1.217h-1.217zm1.217 0h1.217v1.217h-1.217zm20.683 0h1.217v1.217h-1.217zm1.217 0h1.217v1.217h-1.217zm10.95 0h1.217v1.217h-1.217zm1.217 0h1.217v1.217h-1.217zm17.033 0h1.217v1.217h-1.217zm29.2 0h1.217v1.217h-1.217zm1.217 0h1.217v1.217h-1.217z"/><path d="M52.925 164.858h1.217v1.217h-1.217zm1.217 0h1.217v1.217h-1.217z"/><path d="M55.358 164.858h1.217v1.217h-1.217zm18.25 0h1.217v1.217h-1.217zm9.734 0h1.217v1.217h-1.217z"/><path d="M84.558 164.858h1.217v1.217h-1.217zm1.217 0h1.217v1.217h-1.217zm18.25 0h1.217v1.217h-1.217zm29.2 0h1.217v1.217h-1.217zm-77.867 1.217h1.217v1.217h-1.217zm1.217 0h1.217v1.217h-1.217zm1.217 0h1.217v1.217h-1.217zm15.816 0h1.217v1.217h-1.217zm7.3 0h1.217v1.217h-1.217zm1.217 0h1.217v1.217h-1.217z"/><path d="M83.342 166.075h1.217v1.217h-1.217zm20.683 0h1.217v1.217h-1.217zm27.983 0h1.217v1.217h-1.217z"/><path d="M133.225 166.075h1.217v1.217h-1.217zm-75.433 1.217h1.217v1.217h-1.217z"/><path d="M59.008 167.292h1.217v1.217h-1.217zm1.217 0h1.217v1.217h-1.217zm12.167 0h1.217v1.217h-1.217z"/><path d="M73.608 167.292h1.217v1.217h-1.217zm6.084 0h1.217v1.217h-1.217z"/><path d="M80.908 167.292h1.217v1.217h-1.217zm23.117 0h1.217v1.217h-1.217zm27.983 0h1.217v1.217h-1.217zm-71.783 1.216h1.217v1.217h-1.217zm1.217 0h1.217v1.217h-1.217z"/><path d="M62.658 168.508h1.217v1.217h-1.217zm9.734 0h1.217v1.217h-1.217zm4.866 0h1.217v1.217h-1.217zm1.217 0h1.217v1.217h-1.217zm25.55 0h1.217v1.217h-1.217zm26.767 0h1.217v1.217h-1.217z"/><path d="M132.008 168.508h1.217v1.217h-1.217zm-69.35 1.217h1.217v1.217h-1.217zm1.217 0h1.217v1.217h-1.217zm1.217 0h1.217v1.217h-1.217zm6.083 0h1.217v1.217h-1.217zm1.217 0h1.217v1.217h-1.217zm2.433 0h1.217v1.217h-1.217zm1.217 0h1.217v1.217h-1.217z"/><path d="M77.258 169.725h1.217v1.217h-1.217zm25.55 0h1.217v1.217h-1.217zm1.217 0h1.217v1.217h-1.217zm26.767 0h1.217v1.217h-1.217zm-65.7 1.217h1.217v1.217h-1.217z"/><path d="M66.308 170.942h1.217v1.217h-1.217zm1.217 0h1.217v1.217h-1.217zm3.65 0h1.217v1.217h-1.217zm1.217 0h1.217v1.217h-1.217z"/><path d="M73.608 170.942h1.217v1.217h-1.217zm1.217 0h1.217v1.217h-1.217zm27.983 0h1.217v1.217h-1.217zm1.217 0h1.217v1.217h-1.217zm25.55 0h1.217v1.217h-1.217zm1.217 0h1.217v1.217h-1.217zm-65.7 1.216h1.217v1.217h-1.217z"/><path d="M66.308 172.158h1.217v1.217h-1.217zm1.217 0h1.217v1.217h-1.217zm1.217 0h1.217v1.217h-1.217z"/><path d="M69.958 172.158h1.217v1.217h-1.217zm1.217 0h1.217v1.217h-1.217zm1.217 0h1.217v1.217h-1.217zm30.416 0h1.217v1.217h-1.217zm1.217 0h1.217v1.217h-1.217zm25.55 0h1.217v1.217h-1.217zm-64.483 1.217h1.217v1.217h-1.217zm4.866 0h1.217v1.217h-1.217zm32.85 0h1.217v1.217h-1.217zm25.55 0h1.217v1.217h-1.217z"/><path d="M129.575 173.375h1.217v1.217h-1.217zm-64.483 1.217h1.217v1.217h-1.217zm37.716 0h1.217v1.217h-1.217zm25.55 0h1.217v1.217h-1.217z"/><path d="M65.092 175.808h1.217v1.217h-1.217zm37.716 0h1.217v1.217h-1.217zm24.334 0h1.217v1.217h-1.217z"/><path d="M128.358 175.808h1.217v1.217h-1.217zm-63.266 1.217h1.217v1.217h-1.217zm37.716 0h1.217v1.217h-1.217zm24.334 0h1.217v1.217h-1.217z"/><path d="M65.092 178.242h1.217v1.217h-1.217zm37.716 0h1.217v1.217h-1.217zm23.117 0h1.217v1.217h-1.217zm1.217 0h1.217v1.217h-1.217z"/><path d="M65.092 179.458h1.217v1.217h-1.217zm37.716 0h1.217v1.217h-1.217zm23.117 0h1.217v1.217h-1.217zm-62.05 1.217h1.217v1.217h-1.217zm1.217 0h1.217v1.217h-1.217zm36.5 0h1.217v1.217h-1.217z"/><path d="M102.808 180.675h1.217v1.217h-1.217zm21.9 0h1.217v1.217h-1.217zm1.217 0h1.217v1.217h-1.217zm-62.05 1.217h1.217v1.217h-1.217zm1.217 0h1.217v1.217h-1.217z"/><path d="M101.592 181.892h1.217v1.217h-1.217z"/><path d="M102.808 181.892h1.217v1.217h-1.217zm21.9 0h1.217v1.217h-1.217zm-60.833 1.216h1.217v1.217h-1.217zm1.217 0h1.217v1.217h-1.217z"/><path d="M101.592 183.108h1.217v1.217h-1.217z"/><path d="M102.808 183.108h1.217v1.217h-1.217zm20.684 0h1.217v1.217h-1.217z"/><path d="M124.708 183.108h1.217v1.217h-1.217zm-60.833 1.217h1.217v1.217h-1.217zm37.717 0h1.217v1.217h-1.217z"/><path d="M123.492 184.325h1.217v1.217h-1.217zm-59.617 1.217h1.217v1.217h-1.217zm37.717 0h1.217v1.217h-1.217zm20.683 0h1.217v1.217h-1.217zm1.217 0h1.217v1.217h-1.217z"/><path d="M63.875 186.758h1.217v1.217h-1.217zm37.717 0h1.217v1.217h-1.217zm20.683 0h1.217v1.217h-1.217z"/><path d="M63.875 187.975h1.217v1.217h-1.217zm37.717 0h1.217v1.217h-1.217zm19.466 0h1.217v1.217h-1.217zm1.217 0h1.217v1.217h-1.217zm-58.4 1.217h1.217v1.217h-1.217zm37.717 0h1.217v1.217h-1.217zm19.466 0h1.217v1.217h-1.217z"/><path d="M63.875 190.408h1.217v1.217h-1.217zm37.717 0h1.217v1.217h-1.217zm18.25 0h1.217v1.217h-1.217z"/><path d="M121.058 190.408h1.217v1.217h-1.217zm-58.4 1.217h1.217v1.217h-1.217zm1.217 0h1.217v1.217h-1.217zm36.5 0h1.217v1.217h-1.217zm1.217 0h1.217v1.217h-1.217zm18.25 0h1.217v1.217h-1.217zm-57.184 1.217h1.217v1.217h-1.217zm1.217 0h1.217v1.217h-1.217zm36.5 0h1.217v1.217h-1.217zm1.217 0h1.217v1.217h-1.217zm17.033 0h1.217v1.217h-1.217zm1.217 0h1.217v1.217h-1.217z"/><path d="M62.658 194.058h1.217v1.217h-1.217zm1.217 0h1.217v1.217h-1.217zm36.5 0h1.217v1.217h-1.217zm18.25 0h1.217v1.217h-1.217zm-55.967 1.217h1.217v1.217h-1.217zm37.717 0h1.217v1.217h-1.217zm17.033 0h1.217v1.217h-1.217zm1.217 0h1.217v1.217h-1.217z"/><path d="M62.658 196.492h1.217v1.217h-1.217zm1.217 0h1.217v1.217h-1.217zm1.217 0h1.217v1.217h-1.217zm35.283 0h1.217v1.217h-1.217zm17.033 0h1.217v1.217h-1.217z"/><path d="M65.092 197.708h1.217v1.217h-1.217z"/><path d="M66.308 197.708h1.217v1.217h-1.217zm1.217 0h1.217v1.217h-1.217zm32.85 0h1.217v1.217h-1.217zm15.817 0h1.217v1.217h-1.217z"/><path d="M117.408 197.708h1.217v1.217h-1.217zm-49.883 1.217h1.217v1.217h-1.217zm1.217 0h1.217v1.217h-1.217z"/><path d="M69.958 198.925h1.217v1.217h-1.217zm30.417 0h1.217v1.217h-1.217zm15.817 0h1.217v1.217h-1.217z"/><path d="M69.958 200.142h1.217v1.217h-1.217zm1.217 0h1.217v1.217h-1.217zm1.217 0h1.217v1.217h-1.217zm27.983 0h1.217v1.217h-1.217zm14.6 0h1.217v1.217h-1.217zm1.217 0h1.217v1.217h-1.217z"/><path d="M72.392 201.358h1.217v1.217h-1.217z"/><path d="M73.608 201.358h1.217v1.217h-1.217zm1.217 0h1.217v1.217h-1.217zm24.333 0h1.217v1.217h-1.217zm1.217 0h1.217v1.217h-1.217zm14.6 0h1.217v1.217h-1.217z"/><path d="M74.825 202.575h1.217v1.217h-1.217zm1.217 0h1.217v1.217h-1.217z"/><path d="M77.258 202.575h1.217v1.217h-1.217zm21.9 0h1.217v1.217h-1.217zm1.217 0h1.217v1.217h-1.217zm13.383 0h1.217v1.217h-1.217zm1.217 0h1.217v1.217h-1.217zm-37.717 1.217h1.217v1.217h-1.217zm1.217 0h1.217v1.217h-1.217zm1.217 0h1.217v1.217h-1.217zm19.466 0h1.217v1.217h-1.217zm1.217 0h1.217v1.217h-1.217zm13.383 0h1.217v1.217h-1.217z"/><path d="M79.692 205.008h1.217v1.217h-1.217z"/><path d="M80.908 205.008h1.217v1.217h-1.217zm1.217 0h1.217v1.217h-1.217zm17.033 0h1.217v1.217h-1.217zm13.384 0h1.217v1.217h-1.217z"/><path d="M82.125 206.225h1.217v1.217h-1.217zm1.217 0h1.217v1.217h-1.217z"/><path d="M84.558 206.225h1.217v1.217h-1.217zm14.6 0h1.217v1.217h-1.217zm10.95 0h1.217v1.217h-1.217zm1.217 0h1.217v1.217h-1.217zm1.217 0h1.217v1.217h-1.217zm-27.984 1.217h1.217v1.217h-1.217zm1.217 0h1.217v1.217h-1.217zm1.217 0h1.217v1.217h-1.217zm12.166 0h1.217v1.217h-1.217zm8.517 0h1.217v1.217h-1.217zm1.217 0h1.217v1.217h-1.217z"/><path d="M110.108 207.442h1.217v1.217h-1.217zm-23.116 1.216h1.217v1.217h-1.217z"/><path d="M88.208 208.658h1.217v1.217h-1.217zm1.217 0h1.217v1.217h-1.217zm9.733 0h1.217v1.217h-1.217zm7.3 0h1.217v1.217h-1.217zm1.217 0h1.217v1.217h-1.217zm-18.25 1.217h1.217v1.217h-1.217zm1.217 0h1.217v1.217h-1.217z"/><path d="M91.858 209.875h1.217v1.217h-1.217zm7.3 0h1.217v1.217h-1.217zm4.867 0h1.217v1.217h-1.217zm1.217 0h1.217v1.217h-1.217z"/><path d="M106.458 209.875h1.217v1.217h-1.217zm-14.6 1.217h1.217v1.217h-1.217zm1.217 0h1.217v1.217h-1.217zm1.217 0h1.217v1.217h-1.217zm4.866 0h1.217v1.217h-1.217zm2.434 0h1.217v1.217h-1.217z"/><path d="M102.808 211.092h1.217v1.217h-1.217zm1.217 0h1.217v1.217h-1.217zm-9.733 1.216h1.217v1.217h-1.217z"/><path d="M95.508 212.308h1.217v1.217h-1.217zm1.217 0h1.217v1.217h-1.217zm1.217 0h1.217v1.217h-1.217z"/><path d="M99.158 212.308h1.217v1.217h-1.217zm1.217 0h1.217v1.217h-1.217zm1.217 0h1.217v1.217h-1.217zm-4.867 1.217h1.217v1.217h-1.217zm1.217 0h1.217v1.217h-1.217z"/><path d="M99.158 213.525h1.217v1.217h-1.217z"/></g></svg>