<svg xmlns="http://www.w3.org/2000/svg" width="219" height="219" fill="none"><g fill="#F4F7F5" opacity=".64"><path d="M100.375 12.775h1.217v1.217h-1.217zm1.217 0h1.217v1.217h-1.217z"/><path d="M102.808 12.775h1.217v1.217h-1.217zm1.217 0h1.217v1.217h-1.217zm1.217 0h1.217v1.217h-1.217z"/><path d="M106.458 12.775h1.217v1.217h-1.217zm1.217 0h1.217v1.217h-1.217zm1.217 0h1.217v1.217h-1.217z"/><path d="M110.108 12.775h1.217v1.217h-1.217zm1.217 0h1.217v1.217h-1.217zm1.217 0h1.217v1.217h-1.217z"/><path d="M113.758 12.775h1.217v1.217h-1.217zm1.217 0h1.217v1.217h-1.217zm1.217 0h1.217v1.217h-1.217z"/><path d="M117.408 12.775h1.217v1.217h-1.217zm-21.9 1.217h1.217v1.217h-1.217zm1.217 0h1.217v1.217h-1.217zm1.217 0h1.217v1.217h-1.217z"/><path d="M99.158 13.992h1.217v1.217h-1.217zm1.217 0h1.217v1.217h-1.217zm1.217 0h1.217v1.217h-1.217zm15.816 0h1.217v1.217h-1.217zm1.217 0h1.217v1.217h-1.217zm1.217 0h1.217v1.217h-1.217z"/><path d="M121.058 13.992h1.217v1.217h-1.217zm-29.2 1.216h1.217v1.217h-1.217zm1.217 0h1.217v1.217h-1.217zm1.217 0h1.217v1.217h-1.217z"/><path d="M95.508 15.208h1.217v1.217h-1.217zm25.55 0h1.217v1.217h-1.217zm1.217 0h1.217v1.217h-1.217zm1.217 0h1.217v1.217h-1.217zm-34.067 1.217h1.217v1.217h-1.217zm1.217 0h1.217v1.217h-1.217z"/><path d="M91.858 16.425h1.217v1.217h-1.217zm32.85 0h1.217v1.217h-1.217zm1.217 0h1.217v1.217h-1.217zm-40.15 1.217h1.217v1.217h-1.217zm1.217 0h1.217v1.217h-1.217z"/><path d="M88.208 17.642h1.217v1.217h-1.217zm1.217 0h1.217v1.217h-1.217zm36.5 0h1.217v1.217h-1.217zm1.217 0h1.217v1.217h-1.217z"/><path d="M128.358 17.642h1.217v1.217h-1.217zm-45.016 1.216h1.217v1.217h-1.217z"/><path d="M84.558 18.858h1.217v1.217h-1.217zm1.217 0h1.217v1.217h-1.217zm42.583 0h1.217v1.217h-1.217z"/><path d="M129.575 18.858h1.217v1.217h-1.217zm1.217 0h1.217v1.217h-1.217zm-48.667 1.217h1.217v1.217h-1.217zm1.217 0h1.217v1.217h-1.217zm47.45 0h1.217v1.217h-1.217z"/><path d="M132.008 20.075h1.217v1.217h-1.217z"/><path d="M133.225 20.075h1.217v1.217h-1.217zm-53.533 1.217h1.217v1.217h-1.217z"/><path d="M80.908 21.292h1.217v1.217h-1.217zm1.217 0h1.217v1.217h-1.217zm51.1 0h1.217v1.217h-1.217zm1.217 0h1.217v1.217h-1.217z"/><path d="M135.658 21.292h1.217v1.217h-1.217zm-58.4 1.216h1.217v1.217h-1.217zm1.217 0h1.217v1.217h-1.217zm1.217 0h1.217v1.217h-1.217z"/><path d="M135.658 22.508h1.217v1.217h-1.217zm1.217 0h1.217v1.217h-1.217zm1.217 0h1.217v1.217h-1.217zm-63.267 1.217h1.217v1.217h-1.217zm1.217 0h1.217v1.217h-1.217z"/><path d="M77.258 23.725h1.217v1.217h-1.217zm60.834 0h1.217v1.217h-1.217z"/><path d="M139.308 23.725h1.217v1.217h-1.217zm1.217 0h1.217v1.217h-1.217zm-66.917 1.217h1.217v1.217h-1.217zm1.217 0h1.217v1.217h-1.217zm66.917 0h1.217v1.217h-1.217z"/><path d="M142.958 24.942h1.217v1.217h-1.217zm-71.783 1.216h1.217v1.217h-1.217zm1.217 0h1.217v1.217h-1.217z"/><path d="M73.608 26.158h1.217v1.217h-1.217zm70.567 0h1.217v1.217h-1.217z"/><path d="M145.392 26.158h1.217v1.217h-1.217zm-75.434 1.217h1.217v1.217h-1.217zm1.217 0h1.217v1.217h-1.217zm75.433 0h1.217v1.217h-1.217z"/><path d="M147.825 27.375h1.217v1.217h-1.217zm-79.083 1.217h1.217v1.217h-1.217z"/><path d="M69.958 28.592h1.217v1.217h-1.217zm79.084 0h1.217v1.217h-1.217z"/><path d="M150.258 28.592h1.217v1.217h-1.217zm-83.95 1.216h1.217v1.217h-1.217zm1.217 0h1.217v1.217h-1.217zm1.217 0h1.217v1.217h-1.217z"/><path d="M151.475 29.808h1.217v1.217h-1.217zm1.217 0h1.217v1.217h-1.217zm-87.6 1.217h1.217v1.217h-1.217z"/><path d="M66.308 31.025h1.217v1.217h-1.217zm87.6 0h1.217v1.217h-1.217zm1.217 0h1.217v1.217h-1.217zm-91.25 1.217h1.217v1.217h-1.217zm1.217 0h1.217v1.217h-1.217zm91.25 0h1.217v1.217h-1.217z"/><path d="M157.558 32.242h1.217v1.217h-1.217zm-94.9 1.216h1.217v1.217h-1.217zm1.217 0h1.217v1.217h-1.217zm83.95 0h1.217v1.217h-1.217zm1.217 0h1.217v1.217h-1.217z"/><path d="M150.258 33.458h1.217v1.217h-1.217z"/><path d="M151.475 33.458h1.217v1.217h-1.217zm1.217 0h1.217v1.217h-1.217z"/><path d="M153.908 33.458h1.217v1.217h-1.217zm1.217 0h1.217v1.217h-1.217zm1.217 0h1.217v1.217h-1.217zm2.433 0h1.217v1.217h-1.217z"/><path d="M159.992 33.458h1.217v1.217h-1.217zm-98.55 1.217h1.217v1.217h-1.217z"/><path d="M62.658 34.675h1.217v1.217h-1.217zm79.084 0h1.217v1.217h-1.217z"/><path d="M142.958 34.675h1.217v1.217h-1.217zm1.217 0h1.217v1.217h-1.217z"/><path d="M145.392 34.675h1.217v1.217h-1.217z"/><path d="M146.608 34.675h1.217v1.217h-1.217z"/><path d="M147.825 34.675h1.217v1.217h-1.217zm1.217 0h1.217v1.217h-1.217z"/><path d="M150.258 34.675h1.217v1.217h-1.217z"/><path d="M151.475 34.675h1.217v1.217h-1.217zm1.217 0h1.217v1.217h-1.217z"/><path d="M153.908 34.675h1.217v1.217h-1.217zm1.217 0h1.217v1.217h-1.217zm1.217 0h1.217v1.217h-1.217z"/><path d="M157.558 34.675h1.217v1.217h-1.217zm1.217 0h1.217v1.217h-1.217z"/><path d="M159.992 34.675h1.217v1.217h-1.217z"/><path d="M161.208 34.675h1.217v1.217h-1.217zm1.217 0h1.217v1.217h-1.217zm-102.2 1.217h1.217v1.217h-1.217zm1.217 0h1.217v1.217h-1.217zm75.433 0h1.217v1.217h-1.217zm1.217 0h1.217v1.217h-1.217z"/><path d="M139.308 35.892h1.217v1.217h-1.217zm1.217 0h1.217v1.217h-1.217z"/><path d="M141.742 35.892h1.217v1.217h-1.217zm19.466 0h1.217v1.217h-1.217zm1.217 0h1.217v1.217h-1.217z"/><path d="M163.642 35.892h1.217v1.217h-1.217z"/><path d="M164.858 35.892h1.217v1.217h-1.217zM57.792 37.108h1.217v1.217h-1.217z"/><path d="M59.008 37.108h1.217v1.217h-1.217zm75.434 0h1.217v1.217h-1.217z"/><path d="M135.658 37.108h1.217v1.217h-1.217zm1.217 0h1.217v1.217h-1.217zm1.217 0h1.217v1.217h-1.217zm26.766 0h1.217v1.217h-1.217z"/><path d="M166.075 37.108h1.217v1.217h-1.217zm1.217 0h1.217v1.217h-1.217zM56.575 38.325h1.217v1.217h-1.217zm1.217 0h1.217v1.217h-1.217zm73 0h1.217v1.217h-1.217z"/><path d="M132.008 38.325h1.217v1.217h-1.217z"/><path d="M133.225 38.325h1.217v1.217h-1.217zm1.217 0h1.217v1.217h-1.217zm34.066 0h1.217v1.217h-1.217z"/><path d="M169.725 38.325h1.217v1.217h-1.217zM55.358 39.542h1.217v1.217h-1.217zm1.217 0h1.217v1.217h-1.217zm71.783 0h1.217v1.217h-1.217z"/><path d="M129.575 39.542h1.217v1.217h-1.217zm1.217 0h1.217v1.217h-1.217zm38.933 0h1.217v1.217h-1.217zm1.217 0h1.217v1.217h-1.217z"/><path d="M172.158 39.542h1.217v1.217h-1.217zM54.142 40.758h1.217v1.217h-1.217z"/><path d="M55.358 40.758h1.217v1.217h-1.217zm70.567 0h1.217v1.217h-1.217zm1.217 0h1.217v1.217h-1.217z"/><path d="M128.358 40.758h1.217v1.217h-1.217zm43.8 0h1.217v1.217h-1.217zm1.217 0h1.217v1.217h-1.217zm-120.45 1.217h1.217v1.217h-1.217zm1.217 0h1.217v1.217h-1.217zm69.35 0h1.217v1.217h-1.217z"/><path d="M124.708 41.975h1.217v1.217h-1.217zm1.217 0h1.217v1.217h-1.217zm47.45 0h1.217v1.217h-1.217zm1.217 0h1.217v1.217h-1.217zM52.925 43.192h1.217v1.217h-1.217zm68.133 0h1.217v1.217h-1.217zm1.217 0h1.217v1.217h-1.217zm1.217 0h1.217v1.217h-1.217zm51.1 0h1.217v1.217h-1.217z"/><path d="M175.808 43.192h1.217v1.217h-1.217zm-124.1 1.216h1.217v1.217h-1.217zm68.134 0h1.217v1.217h-1.217z"/><path d="M121.058 44.408h1.217v1.217h-1.217zm54.75 0h1.217v1.217h-1.217zm1.217 0h1.217v1.217h-1.217zM50.492 45.625h1.217v1.217h-1.217z"/><path d="M51.708 45.625h1.217v1.217h-1.217zm65.7 0h1.217v1.217h-1.217zm1.217 0h1.217v1.217h-1.217zm1.217 0h1.217v1.217h-1.217zm57.183 0h1.217v1.217h-1.217z"/><path d="M178.242 45.625h1.217v1.217h-1.217zM49.275 46.842h1.217v1.217h-1.217zm1.217 0h1.217v1.217h-1.217zm65.7 0h1.217v1.217h-1.217z"/><path d="M117.408 46.842h1.217v1.217h-1.217zm60.834 0h1.217v1.217h-1.217z"/><path d="M179.458 46.842h1.217v1.217h-1.217zm-131.4 1.216h1.217v1.217h-1.217zm1.217 0h1.217v1.217h-1.217zm64.483 0h1.217v1.217h-1.217zm1.217 0h1.217v1.217h-1.217zm1.217 0h1.217v1.217h-1.217z"/><path d="M179.458 48.058h1.217v1.217h-1.217zm1.217 0h1.217v1.217h-1.217zM46.842 49.275h1.217v1.217h-1.217z"/><path d="M48.058 49.275h1.217v1.217h-1.217zm64.484 0h1.217v1.217h-1.217z"/><path d="M113.758 49.275h1.217v1.217h-1.217zm66.917 0h1.217v1.217h-1.217zm-135.05 1.217h1.217v1.217h-1.217zm1.217 0h1.217v1.217h-1.217zm64.483 0h1.217v1.217h-1.217zm1.217 0h1.217v1.217h-1.217zm68.133 0h1.217v1.217h-1.217z"/><path d="M181.892 50.492h1.217v1.217h-1.217zM45.625 51.708h1.217v1.217h-1.217zm63.267 0h1.217v1.217h-1.217z"/><path d="M110.108 51.708h1.217v1.217h-1.217zm71.784 0h1.217v1.217h-1.217zM44.408 52.925h1.217v1.217h-1.217zm1.217 0h1.217v1.217h-1.217zm62.05 0h1.217v1.217h-1.217zm1.217 0h1.217v1.217h-1.217zm74.216 0h1.217v1.217h-1.217zM43.192 54.142h1.217v1.217h-1.217z"/><path d="M44.408 54.142h1.217v1.217h-1.217zm62.05 0h1.217v1.217h-1.217zm1.217 0h1.217v1.217h-1.217zm75.433 0h1.217v1.217h-1.217zM41.975 55.358h1.217v1.217h-1.217z"/><path d="M43.192 55.358h1.217v1.217h-1.217zm62.05 0h1.217v1.217h-1.217z"/><path d="M106.458 55.358h1.217v1.217h-1.217zm31.634 0h1.217v1.217h-1.217z"/><path d="M139.308 55.358h1.217v1.217h-1.217zm1.217 0h1.217v1.217h-1.217z"/><path d="M141.742 55.358h1.217v1.217h-1.217z"/><path d="M142.958 55.358h1.217v1.217h-1.217zm1.217 0h1.217v1.217h-1.217z"/><path d="M145.392 55.358h1.217v1.217h-1.217z"/><path d="M146.608 55.358h1.217v1.217h-1.217z"/><path d="M147.825 55.358h1.217v1.217h-1.217zm1.217 0h1.217v1.217h-1.217z"/><path d="M150.258 55.358h1.217v1.217h-1.217zm32.85 0h1.217v1.217h-1.217z"/><path d="M184.325 55.358h1.217v1.217h-1.217zm-142.35 1.217h1.217v1.217h-1.217zm62.05 0h1.217v1.217h-1.217zm1.217 0h1.217v1.217h-1.217zm27.983 0h1.217v1.217h-1.217zm1.217 0h1.217v1.217h-1.217z"/><path d="M135.658 56.575h1.217v1.217h-1.217zm1.217 0h1.217v1.217h-1.217zm1.217 0h1.217v1.217h-1.217z"/><path d="M139.308 56.575h1.217v1.217h-1.217zm10.95 0h1.217v1.217h-1.217zm1.217 0h1.217v1.217h-1.217zm1.217 0h1.217v1.217h-1.217z"/><path d="M153.908 56.575h1.217v1.217h-1.217zm30.417 0h1.217v1.217h-1.217zM40.758 57.792h1.217v1.217h-1.217zm1.217 0h1.217v1.217h-1.217zm59.617 0h1.217v1.217h-1.217z"/><path d="M102.808 57.792h1.217v1.217h-1.217zm27.984 0h1.217v1.217h-1.217z"/><path d="M132.008 57.792h1.217v1.217h-1.217z"/><path d="M133.225 57.792h1.217v1.217h-1.217zm1.217 0h1.217v1.217h-1.217zm19.466 0h1.217v1.217h-1.217zm1.217 0h1.217v1.217h-1.217zm1.217 0h1.217v1.217h-1.217zm27.983 0h1.217v1.217h-1.217zm1.217 0h1.217v1.217h-1.217zm-146 1.216h1.217v1.217h-1.217z"/><path d="M40.758 59.008h1.217v1.217h-1.217zm59.617 0h1.217v1.217h-1.217zm1.217 0h1.217v1.217h-1.217zm25.55 0h1.217v1.217h-1.217z"/><path d="M128.358 59.008h1.217v1.217h-1.217z"/><path d="M129.575 59.008h1.217v1.217h-1.217zm1.217 0h1.217v1.217h-1.217zm25.55 0h1.217v1.217h-1.217z"/><path d="M157.558 59.008h1.217v1.217h-1.217zm1.217 0h1.217v1.217h-1.217zm26.767 0h1.217v1.217h-1.217zM38.325 60.225h1.217v1.217h-1.217zm1.217 0h1.217v1.217h-1.217zm59.616 0h1.217v1.217h-1.217zm1.217 0h1.217v1.217h-1.217zm24.333 0h1.217v1.217h-1.217zm1.217 0h1.217v1.217h-1.217zm1.217 0h1.217v1.217h-1.217z"/><path d="M128.358 60.225h1.217v1.217h-1.217zm30.417 0h1.217v1.217h-1.217z"/><path d="M159.992 60.225h1.217v1.217h-1.217zm25.55 0h1.217v1.217h-1.217zM38.325 61.442h1.217v1.217h-1.217zm59.617 0h1.217v1.217h-1.217z"/><path d="M99.158 61.442h1.217v1.217h-1.217zm24.334 0h1.217v1.217h-1.217z"/><path d="M124.708 61.442h1.217v1.217h-1.217zm3.65 0h1.217v1.217h-1.217zm31.634 0h1.217v1.217h-1.217z"/><path d="M161.208 61.442h1.217v1.217h-1.217zm1.217 0h1.217v1.217h-1.217zm23.117 0h1.217v1.217h-1.217z"/><path d="M186.758 61.442h1.217v1.217h-1.217zm-149.65 1.216h1.217v1.217h-1.217zm1.217 0h1.217v1.217h-1.217zm58.4 0h1.217v1.217h-1.217zm1.217 0h1.217v1.217h-1.217zm23.116 0h1.217v1.217h-1.217zm1.217 0h1.217v1.217h-1.217zm6.083 0h1.217v1.217h-1.217zm34.067 0h1.217v1.217h-1.217z"/><path d="M163.642 62.658h1.217v1.217h-1.217zm21.9 0h1.217v1.217h-1.217z"/><path d="M186.758 62.658h1.217v1.217h-1.217zm-149.65 1.217h1.217v1.217h-1.217zm58.4 0h1.217v1.217h-1.217zm1.217 0h1.217v1.217h-1.217zm21.9 0h1.217v1.217h-1.217zm1.217 0h1.217v1.217h-1.217z"/><path d="M121.058 63.875h1.217v1.217h-1.217zm7.3 0h1.217v1.217h-1.217zm35.284 0h1.217v1.217h-1.217zm23.116 0h1.217v1.217h-1.217zM35.892 65.092h1.217v1.217h-1.217zm59.616 0h1.217v1.217h-1.217zm21.9 0h1.217v1.217h-1.217zm1.217 0h1.217v1.217h-1.217zm9.733 0h1.217v1.217h-1.217z"/><path d="M129.575 65.092h1.217v1.217h-1.217zm35.283 0h1.217v1.217h-1.217zm21.9 0h1.217v1.217h-1.217zM34.675 66.308h1.217v1.217h-1.217zm1.217 0h1.217v1.217h-1.217zm58.4 0h1.217v1.217h-1.217zm20.683 0h1.217v1.217h-1.217zm1.217 0h1.217v1.217h-1.217z"/><path d="M117.408 66.308h1.217v1.217h-1.217zm10.95 0h1.217v1.217h-1.217z"/><path d="M129.575 66.308h1.217v1.217h-1.217zm35.283 0h1.217v1.217h-1.217z"/><path d="M166.075 66.308h1.217v1.217h-1.217zm20.683 0h1.217v1.217h-1.217zM34.675 67.525h1.217v1.217h-1.217zm58.4 0h1.217v1.217h-1.217zm1.217 0h1.217v1.217h-1.217zm19.466 0h1.217v1.217h-1.217zm1.217 0h1.217v1.217h-1.217zm13.383 0h1.217v1.217h-1.217zm1.217 0h1.217v1.217h-1.217zm36.5 0h1.217v1.217h-1.217zm1.217 0h1.217v1.217h-1.217zm19.466 0h1.217v1.217h-1.217z"/><path d="M187.975 67.525h1.217v1.217h-1.217zM33.458 68.742h1.217v1.217h-1.217zm1.217 0h1.217v1.217h-1.217zm57.183 0h1.217v1.217h-1.217zm1.217 0h1.217v1.217h-1.217zm19.467 0h1.217v1.217h-1.217z"/><path d="M113.758 68.742h1.217v1.217h-1.217zm14.6 0h1.217v1.217h-1.217z"/><path d="M129.575 68.742h1.217v1.217h-1.217zm37.717 0h1.217v1.217h-1.217zm19.466 0h1.217v1.217h-1.217zm1.217 0h1.217v1.217h-1.217zM32.242 69.958h1.217v1.217h-1.217z"/><path d="M33.458 69.958h1.217v1.217h-1.217zm57.184 0h1.217v1.217h-1.217z"/><path d="M91.858 69.958h1.217v1.217h-1.217zm19.467 0h1.217v1.217h-1.217zm1.217 0h1.217v1.217h-1.217zm15.816 0h1.217v1.217h-1.217z"/><path d="M129.575 69.958h1.217v1.217h-1.217zm37.717 0h1.217v1.217h-1.217z"/><path d="M168.508 69.958h1.217v1.217h-1.217zm19.467 0h1.217v1.217h-1.217zM32.242 71.175h1.217v1.217h-1.217zm57.183 0h1.217v1.217h-1.217zm1.217 0h1.217v1.217h-1.217zm18.25 0h1.217v1.217h-1.217z"/><path d="M110.108 71.175h1.217v1.217h-1.217zm18.25 0h1.217v1.217h-1.217z"/><path d="M129.575 71.175h1.217v1.217h-1.217zm38.933 0h1.217v1.217h-1.217zm19.467 0h1.217v1.217h-1.217zm-156.95 1.217h1.217v1.217h-1.217zm1.217 0h1.217v1.217h-1.217zm55.966 0h1.217v1.217h-1.217zm1.217 0h1.217v1.217h-1.217zm18.25 0h1.217v1.217h-1.217zm1.217 0h1.217v1.217h-1.217zm19.466 0h1.217v1.217h-1.217zm1.217 0h1.217v1.217h-1.217zm38.933 0h1.217v1.217h-1.217z"/><path d="M169.725 72.392h1.217v1.217h-1.217zm18.25 0h1.217v1.217h-1.217zm-156.95 1.216h1.217v1.217h-1.217zm57.183 0h1.217v1.217h-1.217zm18.25 0h1.217v1.217h-1.217zm1.217 0h1.217v1.217h-1.217zm1.217 0h1.217v1.217h-1.217z"/><path d="M110.108 73.608h1.217v1.217h-1.217zm18.25 0h1.217v1.217h-1.217z"/><path d="M129.575 73.608h1.217v1.217h-1.217zm38.933 0h1.217v1.217h-1.217zm1.217 0h1.217v1.217h-1.217zm18.25 0h1.217v1.217h-1.217zM29.808 74.825h1.217v1.217h-1.217zm1.217 0h1.217v1.217h-1.217zm55.967 0h1.217v1.217h-1.217z"/><path d="M88.208 74.825h1.217v1.217h-1.217zm17.034 0h1.217v1.217h-1.217z"/><path d="M106.458 74.825h1.217v1.217h-1.217zm3.65 0h1.217v1.217h-1.217zm1.217 0h1.217v1.217h-1.217zm1.217 0h1.217v1.217h-1.217zm15.816 0h1.217v1.217h-1.217zm41.367 0h1.217v1.217h-1.217zm18.25 0h1.217v1.217h-1.217zM29.808 76.042h1.217v1.217h-1.217zm55.967 0h1.217v1.217h-1.217zm1.217 0h1.217v1.217h-1.217zm17.033 0h1.217v1.217h-1.217zm1.217 0h1.217v1.217h-1.217zm7.3 0h1.217v1.217h-1.217z"/><path d="M113.758 76.042h1.217v1.217h-1.217zm1.217 0h1.217v1.217h-1.217zm13.383 0h1.217v1.217h-1.217zm41.367 0h1.217v1.217h-1.217zm1.217 0h1.217v1.217h-1.217zm17.033 0h1.217v1.217h-1.217zM28.592 77.258h1.217v1.217h-1.217z"/><path d="M29.808 77.258h1.217v1.217h-1.217zm54.75 0h1.217v1.217h-1.217zm1.217 0h1.217v1.217h-1.217zm17.033 0h1.217v1.217h-1.217zm1.217 0h1.217v1.217h-1.217zm10.95 0h1.217v1.217h-1.217zm1.217 0h1.217v1.217h-1.217z"/><path d="M117.408 77.258h1.217v1.217h-1.217zm10.95 0h1.217v1.217h-1.217zm41.367 0h1.217v1.217h-1.217zm1.217 0h1.217v1.217h-1.217zm17.033 0h1.217v1.217h-1.217zM28.592 78.475h1.217v1.217h-1.217zm55.966 0h1.217v1.217h-1.217zm17.034 0h1.217v1.217h-1.217z"/><path d="M102.808 78.475h1.217v1.217h-1.217zm14.6 0h1.217v1.217h-1.217zm1.217 0h1.217v1.217h-1.217zm1.217 0h1.217v1.217h-1.217zm8.516 0h1.217v1.217h-1.217zm42.584 0h1.217v1.217h-1.217zm17.033 0h1.217v1.217h-1.217zm-160.6 1.217h1.217v1.217h-1.217zm1.217 0h1.217v1.217h-1.217zm54.75 0h1.217v1.217h-1.217z"/><path d="M84.558 79.692h1.217v1.217h-1.217zm15.817 0h1.217v1.217h-1.217zm1.217 0h1.217v1.217h-1.217zm18.25 0h1.217v1.217h-1.217z"/><path d="M121.058 79.692h1.217v1.217h-1.217zm1.217 0h1.217v1.217h-1.217zm6.083 0h1.217v1.217h-1.217zm42.584 0h1.217v1.217h-1.217zm17.033 0h1.217v1.217h-1.217zm-160.6 1.216h1.217v1.217h-1.217zm54.75 0h1.217v1.217h-1.217zm1.217 0h1.217v1.217h-1.217zm15.816 0h1.217v1.217h-1.217zm1.217 0h1.217v1.217h-1.217z"/><path d="M122.275 80.908h1.217v1.217h-1.217zm1.217 0h1.217v1.217h-1.217z"/><path d="M124.708 80.908h1.217v1.217h-1.217zm3.65 0h1.217v1.217h-1.217zm42.584 0h1.217v1.217h-1.217zm17.033 0h1.217v1.217h-1.217zM26.158 82.125h1.217v1.217h-1.217zm1.217 0h1.217v1.217h-1.217zm54.75 0h1.217v1.217h-1.217zm17.033 0h1.217v1.217h-1.217zm1.217 0h1.217v1.217h-1.217zm24.333 0h1.217v1.217h-1.217zm1.217 0h1.217v1.217h-1.217zm1.217 0h1.217v1.217h-1.217z"/><path d="M128.358 82.125h1.217v1.217h-1.217zm42.584 0h1.217v1.217h-1.217zm17.033 0h1.217v1.217h-1.217zM26.158 83.342h1.217v1.217h-1.217zm54.75 0h1.217v1.217h-1.217zm1.217 0h1.217v1.217h-1.217zm15.817 0h1.217v1.217h-1.217z"/><path d="M99.158 83.342h1.217v1.217h-1.217zm1.217 0h1.217v1.217h-1.217zm1.217 0h1.217v1.217h-1.217z"/><path d="M102.808 83.342h1.217v1.217h-1.217zm24.334 0h1.217v1.217h-1.217z"/><path d="M128.358 83.342h1.217v1.217h-1.217z"/><path d="M129.575 83.342h1.217v1.217h-1.217zm41.367 0h1.217v1.217h-1.217z"/><path d="M172.158 83.342h1.217v1.217h-1.217zm15.817 0h1.217v1.217h-1.217zM24.942 84.558h1.217v1.217h-1.217z"/><path d="M26.158 84.558h1.217v1.217h-1.217zm53.534 0h1.217v1.217h-1.217z"/><path d="M80.908 84.558h1.217v1.217h-1.217zm15.817 0h1.217v1.217h-1.217zm1.217 0h1.217v1.217h-1.217zm4.866 0h1.217v1.217h-1.217zm1.217 0h1.217v1.217h-1.217zm1.217 0h1.217v1.217h-1.217zm24.333 0h1.217v1.217h-1.217zm1.217 0h1.217v1.217h-1.217z"/><path d="M132.008 84.558h1.217v1.217h-1.217zm38.934 0h1.217v1.217h-1.217z"/><path d="M172.158 84.558h1.217v1.217h-1.217zm15.817 0h1.217v1.217h-1.217zM24.942 85.775h1.217v1.217h-1.217zm54.75 0h1.217v1.217h-1.217zm15.816 0h1.217v1.217h-1.217zm1.217 0h1.217v1.217h-1.217zm8.517 0h1.217v1.217h-1.217z"/><path d="M106.458 85.775h1.217v1.217h-1.217zm1.217 0h1.217v1.217h-1.217zm24.333 0h1.217v1.217h-1.217zm1.217 0h1.217v1.217h-1.217zm1.217 0h1.217v1.217h-1.217zm36.5 0h1.217v1.217h-1.217z"/><path d="M172.158 85.775h1.217v1.217h-1.217zm15.817 0h1.217v1.217h-1.217zm-164.25 1.217h1.217v1.217h-1.217zm1.217 0h1.217v1.217h-1.217zm53.533 0h1.217v1.217h-1.217zm1.217 0h1.217v1.217h-1.217zm14.6 0h1.217v1.217h-1.217z"/><path d="M95.508 86.992h1.217v1.217h-1.217zm1.217 0h1.217v1.217h-1.217zm10.95 0h1.217v1.217h-1.217zm1.217 0h1.217v1.217h-1.217z"/><path d="M110.108 86.992h1.217v1.217h-1.217zm24.334 0h1.217v1.217h-1.217z"/><path d="M135.658 86.992h1.217v1.217h-1.217zm1.217 0h1.217v1.217h-1.217zm35.283 0h1.217v1.217h-1.217zm15.817 0h1.217v1.217h-1.217zm-164.25 1.216h1.217v1.217h-1.217zm53.533 0h1.217v1.217h-1.217zm1.217 0h1.217v1.217h-1.217zm15.817 0h1.217v1.217h-1.217zm2.433 0h1.217v1.217h-1.217zm1.217 0h1.217v1.217h-1.217z"/><path d="M99.158 88.208h1.217v1.217h-1.217zm10.95 0h1.217v1.217h-1.217zm1.217 0h1.217v1.217h-1.217zm1.217 0h1.217v1.217h-1.217zm24.333 0h1.217v1.217h-1.217zm1.217 0h1.217v1.217h-1.217z"/><path d="M139.308 88.208h1.217v1.217h-1.217zm32.85 0h1.217v1.217h-1.217zm15.817 0h1.217v1.217h-1.217zM22.508 89.425h1.217v1.217h-1.217zm1.217 0h1.217v1.217h-1.217zm53.533 0h1.217v1.217h-1.217zm15.817 0h1.217v1.217h-1.217zm1.217 0h1.217v1.217h-1.217zm4.866 0h1.217v1.217h-1.217zm1.217 0h1.217v1.217h-1.217zm1.217 0h1.217v1.217h-1.217zm10.95 0h1.217v1.217h-1.217z"/><path d="M113.758 89.425h1.217v1.217h-1.217zm1.217 0h1.217v1.217h-1.217zm24.333 0h1.217v1.217h-1.217zm1.217 0h1.217v1.217h-1.217zm31.633 0h1.217v1.217h-1.217zm15.817 0h1.217v1.217h-1.217zM22.508 90.642h1.217v1.217h-1.217zm53.534 0h1.217v1.217h-1.217z"/><path d="M77.258 90.642h1.217v1.217h-1.217zm14.6 0h1.217v1.217h-1.217zm1.217 0h1.217v1.217h-1.217zm8.517 0h1.217v1.217h-1.217z"/><path d="M102.808 90.642h1.217v1.217h-1.217zm1.217 0h1.217v1.217h-1.217zm10.95 0h1.217v1.217h-1.217zm1.217 0h1.217v1.217h-1.217z"/><path d="M117.408 90.642h1.217v1.217h-1.217zm20.684 0h1.217v1.217h-1.217z"/><path d="M139.308 90.642h1.217v1.217h-1.217zm1.217 0h1.217v1.217h-1.217z"/><path d="M141.742 90.642h1.217v1.217h-1.217zm30.416 0h1.217v1.217h-1.217zm15.817 0h1.217v1.217h-1.217zM22.508 91.858h1.217v1.217h-1.217zm53.534 0h1.217v1.217h-1.217zm15.816 0h1.217v1.217h-1.217zm12.167 0h1.217v1.217h-1.217zm1.217 0h1.217v1.217h-1.217z"/><path d="M106.458 91.858h1.217v1.217h-1.217zm10.95 0h1.217v1.217h-1.217zm1.217 0h1.217v1.217h-1.217zm1.217 0h1.217v1.217h-1.217zm15.816 0h1.217v1.217h-1.217zm1.217 0h1.217v1.217h-1.217zm1.217 0h1.217v1.217h-1.217zm3.65 0h1.217v1.217h-1.217z"/><path d="M142.958 91.858h1.217v1.217h-1.217zm29.2 0h1.217v1.217h-1.217zm15.817 0h1.217v1.217h-1.217zM21.292 93.075h1.217v1.217h-1.217z"/><path d="M22.508 93.075h1.217v1.217h-1.217zm52.317 0h1.217v1.217h-1.217zm1.217 0h1.217v1.217h-1.217zm14.6 0h1.217v1.217h-1.217z"/><path d="M91.858 93.075h1.217v1.217h-1.217zm13.384 0h1.217v1.217h-1.217z"/><path d="M106.458 93.075h1.217v1.217h-1.217zm1.217 0h1.217v1.217h-1.217zm12.167 0h1.217v1.217h-1.217z"/><path d="M121.058 93.075h1.217v1.217h-1.217zm1.217 0h1.217v1.217h-1.217zm12.167 0h1.217v1.217h-1.217z"/><path d="M135.658 93.075h1.217v1.217h-1.217zm7.3 0h1.217v1.217h-1.217zm29.2 0h1.217v1.217h-1.217zm15.817 0h1.217v1.217h-1.217zM21.292 94.292h1.217v1.217h-1.217zm52.316 0h1.217v1.217h-1.217zm1.217 0h1.217v1.217h-1.217zm14.6 0h1.217v1.217h-1.217zm1.217 0h1.217v1.217h-1.217zm12.166 0h1.217v1.217h-1.217zm1.217 0h1.217v1.217h-1.217zm1.217 0h1.217v1.217h-1.217zm2.433 0h1.217v1.217h-1.217zm14.6 0h1.217v1.217h-1.217zm1.217 0h1.217v1.217h-1.217z"/><path d="M124.708 94.292h1.217v1.217h-1.217zm7.3 0h1.217v1.217h-1.217z"/><path d="M133.225 94.292h1.217v1.217h-1.217zm1.217 0h1.217v1.217h-1.217zm8.516 0h1.217v1.217h-1.217zm1.217 0h1.217v1.217h-1.217zm27.983 0h1.217v1.217h-1.217zm14.6 0h1.217v1.217h-1.217z"/><path d="M187.975 94.292h1.217v1.217h-1.217zm-167.9 1.216h1.217v1.217h-1.217zm1.217 0h1.217v1.217h-1.217zm52.316 0h1.217v1.217h-1.217zm15.817 0h1.217v1.217h-1.217zm10.95 0h1.217v1.217h-1.217zm1.217 0h1.217v1.217h-1.217z"/><path d="M102.808 95.508h1.217v1.217h-1.217zm4.867 0h1.217v1.217h-1.217zm17.033 0h1.217v1.217h-1.217zm1.217 0h1.217v1.217h-1.217zm1.217 0h1.217v1.217h-1.217zm2.433 0h1.217v1.217h-1.217zm1.217 0h1.217v1.217h-1.217z"/><path d="M132.008 95.508h1.217v1.217h-1.217zm12.167 0h1.217v1.217h-1.217zm26.767 0h1.217v1.217h-1.217z"/><path d="M172.158 95.508h1.217v1.217h-1.217zm14.6 0h1.217v1.217h-1.217zm1.217 0h1.217v1.217h-1.217zm-167.9 1.217h1.217v1.217h-1.217zm52.317 0h1.217v1.217h-1.217z"/><path d="M73.608 96.725h1.217v1.217h-1.217zm14.6 0h1.217v1.217h-1.217zm1.217 0h1.217v1.217h-1.217zm9.733 0h1.217v1.217h-1.217zm1.217 0h1.217v1.217h-1.217zm7.3 0h1.217v1.217h-1.217zm1.217 0h1.217v1.217h-1.217zm18.25 0h1.217v1.217h-1.217z"/><path d="M128.358 96.725h1.217v1.217h-1.217z"/><path d="M129.575 96.725h1.217v1.217h-1.217zm14.6 0h1.217v1.217h-1.217zm1.217 0h1.217v1.217h-1.217zm25.55 0h1.217v1.217h-1.217z"/><path d="M172.158 96.725h1.217v1.217h-1.217zm14.6 0h1.217v1.217h-1.217zm1.217 0h1.217v1.217h-1.217zm-167.9 1.217h1.217v1.217h-1.217zm52.317 0h1.217v1.217h-1.217zm15.816 0h1.217v1.217h-1.217zm1.217 0h1.217v1.217h-1.217zm1.217 0h1.217v1.217h-1.217z"/><path d="M91.858 97.942h1.217v1.217h-1.217zm4.867 0h1.217v1.217h-1.217zm1.217 0h1.217v1.217h-1.217z"/><path d="M99.158 97.942h1.217v1.217h-1.217zm9.734 0h1.217v1.217h-1.217zm19.466 0h1.217v1.217h-1.217zm17.034 0h1.217v1.217h-1.217zm25.55 0h1.217v1.217h-1.217z"/><path d="M172.158 97.942h1.217v1.217h-1.217zm14.6 0h1.217v1.217h-1.217zm-167.9 1.216h1.217v1.217h-1.217zm1.217 0h1.217v1.217h-1.217zm51.1 0h1.217v1.217h-1.217zm1.217 0h1.217v1.217h-1.217zm14.6 0h1.217v1.217h-1.217zm4.866 0h1.217v1.217h-1.217zm1.217 0h1.217v1.217h-1.217zm1.217 0h1.217v1.217h-1.217z"/><path d="M95.508 99.158h1.217v1.217h-1.217zm1.217 0h1.217v1.217h-1.217zm12.167 0h1.217v1.217h-1.217zm18.25 0h1.217v1.217h-1.217z"/><path d="M128.358 99.158h1.217v1.217h-1.217zm18.25 0h1.217v1.217h-1.217zm24.334 0h1.217v1.217h-1.217z"/><path d="M172.158 99.158h1.217v1.217h-1.217zm14.6 0h1.217v1.217h-1.217zm-167.9 1.217h1.217v1.217h-1.217zm52.317 0h1.217v1.217h-1.217zm14.6 0h1.217v1.217h-1.217zm1.217 0h1.217v1.217h-1.217zm7.3 0h1.217v1.217h-1.217zm14.6 0h1.217v1.217h-1.217z"/><path d="M110.108 100.375h1.217v1.217h-1.217zm17.034 0h1.217v1.217h-1.217z"/><path d="M128.358 100.375h1.217v1.217h-1.217zm18.25 0h1.217v1.217h-1.217z"/><path d="M147.825 100.375h1.217v1.217h-1.217zm23.117 0h1.217v1.217h-1.217zm15.816 0h1.217v1.217h-1.217zm-167.9 1.217h1.217v1.217h-1.217zm51.1 0h1.217v1.217h-1.217zm1.217 0h1.217v1.217h-1.217zm14.6 0h1.217v1.217h-1.217zm8.517 0h1.217v1.217h-1.217zm14.6 0h1.217v1.217h-1.217z"/><path d="M110.108 101.592h1.217v1.217h-1.217zm17.034 0h1.217v1.217h-1.217zm20.683 0h1.217v1.217h-1.217zm1.217 0h1.217v1.217h-1.217zm21.9 0h1.217v1.217h-1.217zm14.6 0h1.217v1.217h-1.217z"/><path d="M186.758 101.592h1.217v1.217h-1.217zm-169.116 1.216h1.217v1.217h-1.217z"/><path d="M18.858 102.808h1.217v1.217h-1.217zm51.1 0h1.217v1.217h-1.217zm14.6 0h1.217v1.217h-1.217zm1.217 0h1.217v1.217h-1.217zm7.3 0h1.217v1.217h-1.217zm1.217 0h1.217v1.217h-1.217zm15.816 0h1.217v1.217h-1.217zm17.034 0h1.217v1.217h-1.217zm20.683 0h1.217v1.217h-1.217zm1.217 0h1.217v1.217h-1.217z"/><path d="M150.258 102.808h1.217v1.217h-1.217z"/><path d="M151.475 102.808h1.217v1.217h-1.217zm19.467 0h1.217v1.217h-1.217zm14.6 0h1.217v1.217h-1.217z"/><path d="M186.758 102.808h1.217v1.217h-1.217zm-169.116 1.217h1.217v1.217h-1.217zm51.1 0h1.217v1.217h-1.217z"/><path d="M69.958 104.025h1.217v1.217h-1.217zm14.6 0h1.217v1.217h-1.217zm8.517 0h1.217v1.217h-1.217zm17.033 0h1.217v1.217h-1.217zm15.817 0h1.217v1.217h-1.217zm1.217 0h1.217v1.217h-1.217zm21.9 0h1.217v1.217h-1.217zm2.433 0h1.217v1.217h-1.217zm1.217 0h1.217v1.217h-1.217z"/><path d="M153.908 104.025h1.217v1.217h-1.217zm17.034 0h1.217v1.217h-1.217zm14.6 0h1.217v1.217h-1.217zm-167.9 1.217h1.217v1.217h-1.217zm51.1 0h1.217v1.217h-1.217zm14.6 0h1.217v1.217h-1.217z"/><path d="M84.558 105.242h1.217v1.217h-1.217zm8.517 0h1.217v1.217h-1.217zm17.033 0h1.217v1.217h-1.217zm1.217 0h1.217v1.217h-1.217zm14.6 0h1.217v1.217h-1.217zm1.217 0h1.217v1.217h-1.217zm21.9 0h1.217v1.217h-1.217z"/><path d="M150.258 105.242h1.217v1.217h-1.217zm3.65 0h1.217v1.217h-1.217zm1.217 0h1.217v1.217h-1.217zm1.217 0h1.217v1.217h-1.217zm14.6 0h1.217v1.217h-1.217zm14.6 0h1.217v1.217h-1.217zm-167.9 1.216h1.217v1.217h-1.217zm49.883 0h1.217v1.217h-1.217zm1.217 0h1.217v1.217h-1.217zm14.6 0h1.217v1.217h-1.217zm9.733 0h1.217v1.217h-1.217zm18.25 0h1.217v1.217h-1.217zm14.6 0h1.217v1.217h-1.217z"/><path d="M150.258 106.458h1.217v1.217h-1.217z"/><path d="M151.475 106.458h1.217v1.217h-1.217zm4.867 0h1.217v1.217h-1.217z"/><path d="M157.558 106.458h1.217v1.217h-1.217zm1.217 0h1.217v1.217h-1.217zm10.95 0h1.217v1.217h-1.217zm1.217 0h1.217v1.217h-1.217zm14.6 0h1.217v1.217h-1.217zm-169.117 1.217h1.217v1.217h-1.217zm1.217 0h1.217v1.217h-1.217zm49.883 0h1.217v1.217h-1.217zm14.6 0h1.217v1.217h-1.217zm1.217 0h1.217v1.217h-1.217zm8.516 0h1.217v1.217h-1.217zm1.217 0h1.217v1.217h-1.217zm18.25 0h1.217v1.217h-1.217zm14.6 0h1.217v1.217h-1.217zm25.55 0h1.217v1.217h-1.217zm6.083 0h1.217v1.217h-1.217zm1.217 0h1.217v1.217h-1.217z"/><path d="M159.992 107.675h1.217v1.217h-1.217zm9.733 0h1.217v1.217h-1.217zm14.6 0h1.217v1.217h-1.217zm1.217 0h1.217v1.217h-1.217zm-169.117 1.217h1.217v1.217h-1.217zm49.883 0h1.217v1.217h-1.217zm1.217 0h1.217v1.217h-1.217zm14.6 0h1.217v1.217h-1.217zm9.733 0h1.217v1.217h-1.217zm19.467 0h1.217v1.217h-1.217zm1.217 0h1.217v1.217h-1.217zm12.166 0h1.217v1.217h-1.217zm1.217 0h1.217v1.217h-1.217zm25.55 0h1.217v1.217h-1.217zm1.217 0h1.217v1.217h-1.217zm3.65 0h1.217v1.217h-1.217z"/><path d="M157.558 108.892h1.217v1.217h-1.217zm1.217 0h1.217v1.217h-1.217z"/><path d="M159.992 108.892h1.217v1.217h-1.217zm9.733 0h1.217v1.217h-1.217zm14.6 0h1.217v1.217h-1.217zm-167.9 1.216h1.217v1.217h-1.217zm49.883 0h1.217v1.217h-1.217zm14.6 0h1.217v1.217h-1.217zm1.217 0h1.217v1.217h-1.217zm9.733 0h1.217v1.217h-1.217zm20.684 0h1.217v1.217h-1.217zm12.166 0h1.217v1.217h-1.217zm1.217 0h1.217v1.217h-1.217zm26.767 0h1.217v1.217h-1.217z"/><path d="M153.908 110.108h1.217v1.217h-1.217zm1.217 0h1.217v1.217h-1.217zm1.217 0h1.217v1.217h-1.217zm2.433 0h1.217v1.217h-1.217z"/><path d="M159.992 110.108h1.217v1.217h-1.217zm9.733 0h1.217v1.217h-1.217zm14.6 0h1.217v1.217h-1.217zm-167.9 1.217h1.217v1.217h-1.217zm49.883 0h1.217v1.217h-1.217zm14.6 0h1.217v1.217h-1.217zm10.95 0h1.217v1.217h-1.217zm20.684 0h1.217v1.217h-1.217zm12.166 0h1.217v1.217h-1.217zm27.984 0h1.217v1.217h-1.217z"/><path d="M153.908 111.325h1.217v1.217h-1.217zm4.867 0h1.217v1.217h-1.217zm1.217 0h1.217v1.217h-1.217zm8.516 0h1.217v1.217h-1.217zm1.217 0h1.217v1.217h-1.217zm13.383 0h1.217v1.217h-1.217z"/><path d="M184.325 111.325h1.217v1.217h-1.217zm-169.117 1.217h1.217v1.217h-1.217zm1.217 0h1.217v1.217h-1.217zm48.667 0h1.217v1.217h-1.217z"/><path d="M66.308 112.542h1.217v1.217h-1.217zm13.384 0h1.217v1.217h-1.217z"/><path d="M80.908 112.542h1.217v1.217h-1.217zm9.734 0h1.217v1.217h-1.217z"/><path d="M91.858 112.542h1.217v1.217h-1.217zm20.684 0h1.217v1.217h-1.217z"/><path d="M113.758 112.542h1.217v1.217h-1.217zm10.95 0h1.217v1.217h-1.217zm10.95 0h1.217v1.217h-1.217zm23.117 0h1.217v1.217h-1.217zm1.217 0h1.217v1.217h-1.217zm8.516 0h1.217v1.217h-1.217zm14.6 0h1.217v1.217h-1.217z"/><path d="M184.325 112.542h1.217v1.217h-1.217zm-169.117 1.216h1.217v1.217h-1.217zm49.884 0h1.217v1.217h-1.217zm14.6 0h1.217v1.217h-1.217zm10.95 0h1.217v1.217h-1.217zm21.9 0h1.217v1.217h-1.217z"/><path d="M113.758 113.758h1.217v1.217h-1.217zm10.95 0h1.217v1.217h-1.217zm10.95 0h1.217v1.217h-1.217zm1.217 0h1.217v1.217h-1.217zm21.9 0h1.217v1.217h-1.217z"/><path d="M159.992 113.758h1.217v1.217h-1.217zm8.516 0h1.217v1.217h-1.217zm14.6 0h1.217v1.217h-1.217zm-167.9 1.217h1.217v1.217h-1.217zm48.667 0h1.217v1.217h-1.217zm1.217 0h1.217v1.217h-1.217zm14.6 0h1.217v1.217h-1.217zm10.95 0h1.217v1.217h-1.217zm23.116 0h1.217v1.217h-1.217zm9.734 0h1.217v1.217h-1.217z"/><path d="M124.708 114.975h1.217v1.217h-1.217zm10.95 0h1.217v1.217h-1.217zm1.217 0h1.217v1.217h-1.217zm21.9 0h1.217v1.217h-1.217z"/><path d="M159.992 114.975h1.217v1.217h-1.217zm8.516 0h1.217v1.217h-1.217zm14.6 0h1.217v1.217h-1.217zm-167.9 1.217h1.217v1.217h-1.217zm48.667 0h1.217v1.217h-1.217zm14.6 0h1.217v1.217h-1.217zm1.217 0h1.217v1.217h-1.217zm10.95 0h1.217v1.217h-1.217zm23.116 0h1.217v1.217h-1.217zm9.734 0h1.217v1.217h-1.217zm10.95 0h1.217v1.217h-1.217z"/><path d="M135.658 116.192h1.217v1.217h-1.217zm1.217 0h1.217v1.217h-1.217zm1.217 0h1.217v1.217h-1.217zm20.683 0h1.217v1.217h-1.217z"/><path d="M159.992 116.192h1.217v1.217h-1.217zm7.3 0h1.217v1.217h-1.217z"/><path d="M168.508 116.192h1.217v1.217h-1.217zm13.384 0h1.217v1.217h-1.217z"/><path d="M183.108 116.192h1.217v1.217h-1.217zm-167.9 1.216h1.217v1.217h-1.217zm48.667 0h1.217v1.217h-1.217zm14.6 0h1.217v1.217h-1.217zm10.95 0h1.217v1.217h-1.217zm1.217 0h1.217v1.217h-1.217zm23.116 0h1.217v1.217h-1.217zm1.217 0h1.217v1.217h-1.217zm8.517 0h1.217v1.217h-1.217zm10.95 0h1.217v1.217h-1.217zm3.65 0h1.217v1.217h-1.217z"/><path d="M139.308 117.408h1.217v1.217h-1.217zm19.467 0h1.217v1.217h-1.217zm1.217 0h1.217v1.217h-1.217zm7.3 0h1.217v1.217h-1.217zm14.6 0h1.217v1.217h-1.217zm-167.9 1.217h1.217v1.217h-1.217z"/><path d="M15.208 118.625h1.217v1.217h-1.217zm47.45 0h1.217v1.217h-1.217zm1.217 0h1.217v1.217h-1.217zm13.383 0h1.217v1.217h-1.217zm1.217 0h1.217v1.217h-1.217zm10.95 0h1.217v1.217h-1.217zm25.55 0h1.217v1.217h-1.217zm8.517 0h1.217v1.217h-1.217zm10.95 0h1.217v1.217h-1.217zm4.866 0h1.217v1.217h-1.217zm19.467 0h1.217v1.217h-1.217zm1.217 0h1.217v1.217h-1.217zm7.3 0h1.217v1.217h-1.217zm14.6 0h1.217v1.217h-1.217zm-167.9 1.217h1.217v1.217h-1.217z"/><path d="M15.208 119.842h1.217v1.217h-1.217zm47.45 0h1.217v1.217h-1.217zm14.6 0h1.217v1.217h-1.217zm1.217 0h1.217v1.217h-1.217zm10.95 0h1.217v1.217h-1.217zm25.55 0h1.217v1.217h-1.217zm7.3 0h1.217v1.217h-1.217zm1.217 0h1.217v1.217h-1.217zm10.95 0h1.217v1.217h-1.217zm4.866 0h1.217v1.217h-1.217zm1.217 0h1.217v1.217h-1.217zm18.25 0h1.217v1.217h-1.217z"/><path d="M159.992 119.842h1.217v1.217h-1.217zm6.083 0h1.217v1.217h-1.217zm1.217 0h1.217v1.217h-1.217zm13.383 0h1.217v1.217h-1.217z"/><path d="M181.892 119.842h1.217v1.217h-1.217zm-167.9 1.216h1.217v1.217h-1.217zm48.666 0h1.217v1.217h-1.217zm14.6 0h1.217v1.217h-1.217zm10.95 0h1.217v1.217h-1.217zm1.217 0h1.217v1.217h-1.217zm10.95 0h1.217v1.217h-1.217zm14.6 0h1.217v1.217h-1.217zm1.217 0h1.217v1.217h-1.217zm6.083 0h1.217v1.217h-1.217zm10.95 0h1.217v1.217h-1.217zm1.217 0h1.217v1.217h-1.217zm6.083 0h1.217v1.217h-1.217zm18.25 0h1.217v1.217h-1.217zm1.217 0h1.217v1.217h-1.217zm6.083 0h1.217v1.217h-1.217zm14.6 0h1.217v1.217h-1.217zm-166.683 1.217h1.217v1.217h-1.217zm47.45 0h1.217v1.217h-1.217z"/><path d="M62.658 122.275h1.217v1.217h-1.217zm13.384 0h1.217v1.217h-1.217z"/><path d="M77.258 122.275h1.217v1.217h-1.217zm10.95 0h1.217v1.217h-1.217zm1.217 0h1.217v1.217h-1.217zm9.733 0h1.217v1.217h-1.217zm1.217 0h1.217v1.217h-1.217zm1.217 0h1.217v1.217h-1.217zm14.6 0h1.217v1.217h-1.217zm6.083 0h1.217v1.217h-1.217zm10.95 0h1.217v1.217h-1.217zm7.3 0h1.217v1.217h-1.217z"/><path d="M141.742 122.275h1.217v1.217h-1.217zm15.816 0h1.217v1.217h-1.217zm1.217 0h1.217v1.217h-1.217zm6.083 0h1.217v1.217h-1.217z"/><path d="M166.075 122.275h1.217v1.217h-1.217zm13.383 0h1.217v1.217h-1.217zm1.217 0h1.217v1.217h-1.217zm-166.683 1.217h1.217v1.217h-1.217zm47.45 0h1.217v1.217h-1.217zm14.6 0h1.217v1.217h-1.217z"/><path d="M77.258 123.492h1.217v1.217h-1.217zm10.95 0h1.217v1.217h-1.217zm10.95 0h1.217v1.217h-1.217zm1.217 0h1.217v1.217h-1.217zm1.217 0h1.217v1.217h-1.217zm14.6 0h1.217v1.217h-1.217zm6.083 0h1.217v1.217h-1.217zm10.95 0h1.217v1.217h-1.217zm1.217 0h1.217v1.217h-1.217zm7.3 0h1.217v1.217h-1.217zm13.383 0h1.217v1.217h-1.217zm1.217 0h1.217v1.217h-1.217z"/><path d="M157.558 123.492h1.217v1.217h-1.217zm7.3 0h1.217v1.217h-1.217zm14.6 0h1.217v1.217h-1.217zm-165.466 1.216h1.217v1.217h-1.217zm47.45 0h1.217v1.217h-1.217zm14.6 0h1.217v1.217h-1.217zm12.166 0h1.217v1.217h-1.217zm10.95 0h1.217v1.217h-1.217zm2.434 0h1.217v1.217h-1.217zm14.6 0h1.217v1.217h-1.217z"/><path d="M117.408 124.708h1.217v1.217h-1.217zm3.65 0h1.217v1.217h-1.217zm1.217 0h1.217v1.217h-1.217zm10.95 0h1.217v1.217h-1.217zm1.217 0h1.217v1.217h-1.217z"/><path d="M135.658 124.708h1.217v1.217h-1.217zm1.217 0h1.217v1.217h-1.217zm6.083 0h1.217v1.217h-1.217zm9.734 0h1.217v1.217h-1.217z"/><path d="M153.908 124.708h1.217v1.217h-1.217zm1.217 0h1.217v1.217h-1.217zm9.733 0h1.217v1.217h-1.217zm14.6 0h1.217v1.217h-1.217zm-165.466 1.217h1.217v1.217h-1.217zm46.233 0h1.217v1.217h-1.217zm1.217 0h1.217v1.217h-1.217zm14.6 0h1.217v1.217h-1.217zm10.95 0h1.217v1.217h-1.217z"/><path d="M88.208 125.925h1.217v1.217h-1.217zm10.95 0h1.217v1.217h-1.217zm2.434 0h1.217v1.217h-1.217zm15.816 0h1.217v1.217h-1.217zm3.65 0h1.217v1.217h-1.217zm10.95 0h1.217v1.217h-1.217z"/><path d="M133.225 125.925h1.217v1.217h-1.217zm3.65 0h1.217v1.217h-1.217zm1.217 0h1.217v1.217h-1.217z"/><path d="M139.308 125.925h1.217v1.217h-1.217zm3.65 0h1.217v1.217h-1.217zm1.217 0h1.217v1.217h-1.217zm7.3 0h1.217v1.217h-1.217zm1.217 0h1.217v1.217h-1.217zm10.95 0h1.217v1.217h-1.217z"/><path d="M164.858 125.925h1.217v1.217h-1.217zm13.384 0h1.217v1.217h-1.217z"/><path d="M179.458 125.925h1.217v1.217h-1.217zm-165.466 1.217h1.217v1.217h-1.217zm46.233 0h1.217v1.217h-1.217zm14.6 0h1.217v1.217h-1.217zm1.217 0h1.217v1.217h-1.217zm10.95 0h1.217v1.217h-1.217z"/><path d="M88.208 127.142h1.217v1.217h-1.217zm9.734 0h1.217v1.217h-1.217z"/><path d="M99.158 127.142h1.217v1.217h-1.217zm2.434 0h1.217v1.217h-1.217z"/><path d="M102.808 127.142h1.217v1.217h-1.217zm14.6 0h1.217v1.217h-1.217zm3.65 0h1.217v1.217h-1.217zm10.95 0h1.217v1.217h-1.217zm7.3 0h1.217v1.217h-1.217zm1.217 0h1.217v1.217h-1.217z"/><path d="M141.742 127.142h1.217v1.217h-1.217zm2.433 0h1.217v1.217h-1.217zm4.867 0h1.217v1.217h-1.217z"/><path d="M150.258 127.142h1.217v1.217h-1.217z"/><path d="M151.475 127.142h1.217v1.217h-1.217zm12.167 0h1.217v1.217h-1.217zm14.6 0h1.217v1.217h-1.217zm-165.467 1.216h1.217v1.217h-1.217zm1.217 0h1.217v1.217h-1.217zm46.233 0h1.217v1.217h-1.217zm14.6 0h1.217v1.217h-1.217zm12.167 0h1.217v1.217h-1.217zm10.95 0h1.217v1.217h-1.217zm4.866 0h1.217v1.217h-1.217zm14.6 0h1.217v1.217h-1.217zm1.217 0h1.217v1.217h-1.217zm2.433 0h1.217v1.217h-1.217zm10.95 0h1.217v1.217h-1.217zm9.734 0h1.217v1.217h-1.217z"/><path d="M142.958 128.358h1.217v1.217h-1.217zm1.217 0h1.217v1.217h-1.217z"/><path d="M145.392 128.358h1.217v1.217h-1.217z"/><path d="M146.608 128.358h1.217v1.217h-1.217z"/><path d="M147.825 128.358h1.217v1.217h-1.217zm1.217 0h1.217v1.217h-1.217zm13.383 0h1.217v1.217h-1.217z"/><path d="M163.642 128.358h1.217v1.217h-1.217zm13.383 0h1.217v1.217h-1.217z"/><path d="M178.242 128.358h1.217v1.217h-1.217zm-165.467 1.217h1.217v1.217h-1.217zm1.217 0h1.217v1.217h-1.217zm46.233 0h1.217v1.217h-1.217zm14.6 0h1.217v1.217h-1.217zm12.167 0h1.217v1.217h-1.217zm10.95 0h1.217v1.217h-1.217zm4.866 0h1.217v1.217h-1.217zm14.6 0h1.217v1.217h-1.217zm1.217 0h1.217v1.217h-1.217zm1.217 0h1.217v1.217h-1.217z"/><path d="M121.058 129.575h1.217v1.217h-1.217zm10.95 0h1.217v1.217h-1.217zm12.167 0h1.217v1.217h-1.217z"/><path d="M145.392 129.575h1.217v1.217h-1.217z"/><path d="M146.608 129.575h1.217v1.217h-1.217zm15.817 0h1.217v1.217h-1.217zm14.6 0h1.217v1.217h-1.217zm-164.25 1.217h1.217v1.217h-1.217zm1.217 0h1.217v1.217h-1.217zm45.016 0h1.217v1.217h-1.217zm1.217 0h1.217v1.217h-1.217zm14.6 0h1.217v1.217h-1.217zm10.95 0h1.217v1.217h-1.217zm1.217 0h1.217v1.217h-1.217zm10.95 0h1.217v1.217h-1.217zm4.866 0h1.217v1.217h-1.217zm1.217 0h1.217v1.217h-1.217zm14.6 0h1.217v1.217h-1.217zm1.217 0h1.217v1.217h-1.217z"/><path d="M121.058 130.792h1.217v1.217h-1.217zm9.734 0h1.217v1.217h-1.217z"/><path d="M132.008 130.792h1.217v1.217h-1.217zm29.2 0h1.217v1.217h-1.217zm1.217 0h1.217v1.217h-1.217zm14.6 0h1.217v1.217h-1.217zm-163.033 1.216h1.217v1.217h-1.217z"/><path d="M15.208 132.008h1.217v1.217h-1.217zm1.217 0h1.217v1.217h-1.217zm42.583 0h1.217v1.217h-1.217zm14.6 0h1.217v1.217h-1.217zm1.217 0h1.217v1.217h-1.217zm10.95 0h1.217v1.217h-1.217zm1.217 0h1.217v1.217h-1.217zm9.733 0h1.217v1.217h-1.217zm1.217 0h1.217v1.217h-1.217zm6.083 0h1.217v1.217h-1.217zm14.6 0h1.217v1.217h-1.217zm1.217 0h1.217v1.217h-1.217zm10.95 0h1.217v1.217h-1.217z"/><path d="M132.008 132.008h1.217v1.217h-1.217zm29.2 0h1.217v1.217h-1.217zm14.6 0h1.217v1.217h-1.217zm1.217 0h1.217v1.217h-1.217zm-160.6 1.217h1.217v1.217h-1.217zm1.217 0h1.217v1.217h-1.217z"/><path d="M18.858 133.225h1.217v1.217h-1.217zm40.15 0h1.217v1.217h-1.217zm14.6 0h1.217v1.217h-1.217zm1.217 0h1.217v1.217h-1.217zm10.95 0h1.217v1.217h-1.217zm10.95 0h1.217v1.217h-1.217zm7.3 0h1.217v1.217h-1.217zm14.6 0h1.217v1.217h-1.217zm1.217 0h1.217v1.217h-1.217zm10.95 0h1.217v1.217h-1.217zm29.2 0h1.217v1.217h-1.217z"/><path d="M161.208 133.225h1.217v1.217h-1.217zm14.6 0h1.217v1.217h-1.217zm-156.95 1.217h1.217v1.217h-1.217zm1.217 0h1.217v1.217h-1.217zm1.217 0h1.217v1.217h-1.217zm37.716 0h1.217v1.217h-1.217zm14.6 0h1.217v1.217h-1.217zm12.167 0h1.217v1.217h-1.217zm10.95 0h1.217v1.217h-1.217zm7.3 0h1.217v1.217h-1.217zm1.217 0h1.217v1.217h-1.217zm14.6 0h1.217v1.217h-1.217zm10.95 0h1.217v1.217h-1.217zm29.2 0h1.217v1.217h-1.217zm14.6 0h1.217v1.217h-1.217z"/><path d="M175.808 134.442h1.217v1.217h-1.217zm-154.516 1.216h1.217v1.217h-1.217z"/><path d="M22.508 135.658h1.217v1.217h-1.217zm1.217 0h1.217v1.217h-1.217zm34.067 0h1.217v1.217h-1.217z"/><path d="M59.008 135.658h1.217v1.217h-1.217zm14.6 0h1.217v1.217h-1.217zm10.95 0h1.217v1.217h-1.217zm1.217 0h1.217v1.217h-1.217zm10.95 0h1.217v1.217h-1.217zm8.517 0h1.217v1.217h-1.217zm24.333 0h1.217v1.217h-1.217zm1.217 0h1.217v1.217h-1.217zm27.983 0h1.217v1.217h-1.217z"/><path d="M159.992 135.658h1.217v1.217h-1.217zm14.6 0h1.217v1.217h-1.217zm-150.867 1.217h1.217v1.217h-1.217zm1.217 0h1.217v1.217h-1.217z"/><path d="M26.158 136.875h1.217v1.217h-1.217zm31.634 0h1.217v1.217h-1.217zm15.816 0h1.217v1.217h-1.217zm10.95 0h1.217v1.217h-1.217zm10.95 0h1.217v1.217h-1.217zm1.217 0h1.217v1.217h-1.217zm8.517 0h1.217v1.217h-1.217zm24.333 0h1.217v1.217h-1.217zm1.217 0h1.217v1.217h-1.217zm27.983 0h1.217v1.217h-1.217zm15.817 0h1.217v1.217h-1.217z"/><path d="M175.808 136.875h1.217v1.217h-1.217zm1.217 0h1.217v1.217h-1.217zm-152.083 1.217h1.217v1.217h-1.217z"/><path d="M26.158 138.092h1.217v1.217h-1.217zm1.217 0h1.217v1.217h-1.217zm1.217 0h1.217v1.217h-1.217zm29.2 0h1.217v1.217h-1.217zm15.816 0h1.217v1.217h-1.217zm10.95 0h1.217v1.217h-1.217zm10.95 0h1.217v1.217h-1.217zm9.734 0h1.217v1.217h-1.217z"/><path d="M106.458 138.092h1.217v1.217h-1.217zm23.117 0h1.217v1.217h-1.217zm27.983 0h1.217v1.217h-1.217zm1.217 0h1.217v1.217h-1.217zm18.25 0h1.217v1.217h-1.217z"/><path d="M178.242 138.092h1.217v1.217h-1.217z"/><path d="M179.458 138.092h1.217v1.217h-1.217zm-156.95 1.216h1.217v1.217h-1.217zm1.217 0h1.217v1.217h-1.217zm1.217 0h1.217v1.217h-1.217zm3.65 0h1.217v1.217h-1.217z"/><path d="M29.808 139.308h1.217v1.217h-1.217zm1.217 0h1.217v1.217h-1.217zm26.767 0h1.217v1.217h-1.217zm14.6 0h1.217v1.217h-1.217z"/><path d="M73.608 139.308h1.217v1.217h-1.217zm10.95 0h1.217v1.217h-1.217zm10.95 0h1.217v1.217h-1.217zm9.734 0h1.217v1.217h-1.217z"/><path d="M106.458 139.308h1.217v1.217h-1.217zm23.117 0h1.217v1.217h-1.217zm27.983 0h1.217v1.217h-1.217zm21.9 0h1.217v1.217h-1.217zm1.217 0h1.217v1.217h-1.217z"/><path d="M181.892 139.308h1.217v1.217h-1.217zm-160.6 1.217h1.217v1.217h-1.217z"/><path d="M22.508 140.525h1.217v1.217h-1.217zm8.517 0h1.217v1.217h-1.217zm1.217 0h1.217v1.217h-1.217z"/><path d="M33.458 140.525h1.217v1.217h-1.217zm24.334 0h1.217v1.217h-1.217zm14.6 0h1.217v1.217h-1.217z"/><path d="M73.608 140.525h1.217v1.217h-1.217zm9.734 0h1.217v1.217h-1.217z"/><path d="M84.558 140.525h1.217v1.217h-1.217zm10.95 0h1.217v1.217h-1.217zm10.95 0h1.217v1.217h-1.217zm21.9 0h1.217v1.217h-1.217z"/><path d="M129.575 140.525h1.217v1.217h-1.217zm26.767 0h1.217v1.217h-1.217z"/><path d="M157.558 140.525h1.217v1.217h-1.217zm24.334 0h1.217v1.217h-1.217z"/><path d="M183.108 140.525h1.217v1.217h-1.217zm-164.25 1.217h1.217v1.217h-1.217zm1.217 0h1.217v1.217h-1.217zm1.217 0h1.217v1.217h-1.217zm12.166 0h1.217v1.217h-1.217zm1.217 0h1.217v1.217h-1.217zm1.217 0h1.217v1.217h-1.217zm20.683 0h1.217v1.217h-1.217zm1.217 0h1.217v1.217h-1.217zm14.6 0h1.217v1.217h-1.217z"/><path d="M73.608 141.742h1.217v1.217h-1.217zm9.734 0h1.217v1.217h-1.217zm10.95 0h1.217v1.217h-1.217z"/><path d="M95.508 141.742h1.217v1.217h-1.217zm10.95 0h1.217v1.217h-1.217zm21.9 0h1.217v1.217h-1.217z"/><path d="M129.575 141.742h1.217v1.217h-1.217zm25.55 0h1.217v1.217h-1.217zm1.217 0h1.217v1.217h-1.217zm26.766 0h1.217v1.217h-1.217z"/><path d="M184.325 141.742h1.217v1.217h-1.217zm1.217 0h1.217v1.217h-1.217zm-169.117 1.216h1.217v1.217h-1.217zm1.217 0h1.217v1.217h-1.217z"/><path d="M18.858 142.958h1.217v1.217h-1.217zm17.034 0h1.217v1.217h-1.217z"/><path d="M37.108 142.958h1.217v1.217h-1.217zm1.217 0h1.217v1.217h-1.217zm18.25 0h1.217v1.217h-1.217zm1.217 0h1.217v1.217h-1.217zm14.6 0h1.217v1.217h-1.217zm10.95 0h1.217v1.217h-1.217zm10.95 0h1.217v1.217h-1.217zm12.166 0h1.217v1.217h-1.217zm1.217 0h1.217v1.217h-1.217zm20.683 0h1.217v1.217h-1.217zm26.767 0h1.217v1.217h-1.217zm30.417 0h1.217v1.217h-1.217z"/><path d="M186.758 142.958h1.217v1.217h-1.217z"/><path d="M187.975 142.958h1.217v1.217h-1.217zm-172.767 1.217h1.217v1.217h-1.217zm1.217 0h1.217v1.217h-1.217zm21.9 0h1.217v1.217h-1.217zm1.217 0h1.217v1.217h-1.217z"/><path d="M40.758 144.175h1.217v1.217h-1.217zm15.817 0h1.217v1.217h-1.217zm13.383 0h1.217v1.217h-1.217zm1.217 0h1.217v1.217h-1.217zm1.217 0h1.217v1.217h-1.217zm10.95 0h1.217v1.217h-1.217zm10.95 0h1.217v1.217h-1.217zm13.383 0h1.217v1.217h-1.217zm20.683 0h1.217v1.217h-1.217zm25.55 0h1.217v1.217h-1.217zm1.217 0h1.217v1.217h-1.217zm32.85 0h1.217v1.217h-1.217zm1.217 0h1.217v1.217h-1.217z"/><path d="M190.408 144.175h1.217v1.217h-1.217zm-177.633 1.217h1.217v1.217h-1.217zm1.217 0h1.217v1.217h-1.217zm26.766 0h1.217v1.217h-1.217zm1.217 0h1.217v1.217h-1.217zm1.217 0h1.217v1.217h-1.217zm13.383 0h1.217v1.217h-1.217zm10.95 0h1.217v1.217h-1.217zm1.217 0h1.217v1.217h-1.217z"/><path d="M69.958 145.392h1.217v1.217h-1.217zm12.167 0h1.217v1.217h-1.217zm1.217 0h1.217v1.217h-1.217zm9.733 0h1.217v1.217h-1.217zm1.217 0h1.217v1.217h-1.217zm13.383 0h1.217v1.217h-1.217zm20.683 0h1.217v1.217h-1.217zm25.55 0h1.217v1.217h-1.217zm36.5 0h1.217v1.217h-1.217zm1.217 0h1.217v1.217h-1.217zm-181.283 1.216h1.217v1.217h-1.217z"/><path d="M11.558 146.608h1.217v1.217h-1.217zm1.217 0h1.217v1.217h-1.217zm30.417 0h1.217v1.217h-1.217z"/><path d="M44.408 146.608h1.217v1.217h-1.217zm1.217 0h1.217v1.217h-1.217zm10.95 0h1.217v1.217h-1.217zm9.733 0h1.217v1.217h-1.217zm1.217 0h1.217v1.217h-1.217zm1.217 0h1.217v1.217h-1.217z"/><path d="M69.958 146.608h1.217v1.217h-1.217zm12.167 0h1.217v1.217h-1.217zm10.95 0h1.217v1.217h-1.217zm1.217 0h1.217v1.217h-1.217zm13.383 0h1.217v1.217h-1.217zm1.217 0h1.217v1.217h-1.217zm18.25 0h1.217v1.217h-1.217z"/><path d="M128.358 146.608h1.217v1.217h-1.217zm24.334 0h1.217v1.217h-1.217z"/><path d="M153.908 146.608h1.217v1.217h-1.217zm37.717 0h1.217v1.217h-1.217zm1.217 0h1.217v1.217h-1.217z"/><path d="M194.058 146.608h1.217v1.217h-1.217zm-186.15 1.217h1.217v1.217H7.908zm1.217 0h1.217v1.217H9.125zm1.217 0h1.217v1.217h-1.217zm35.283 0h1.217v1.217h-1.217zm1.217 0h1.217v1.217h-1.217z"/><path d="M48.058 147.825h1.217v1.217h-1.217zm8.517 0h1.217v1.217h-1.217zm7.3 0h1.217v1.217h-1.217zm1.217 0h1.217v1.217h-1.217z"/><path d="M66.308 147.825h1.217v1.217h-1.217zm3.65 0h1.217v1.217h-1.217zm1.217 0h1.217v1.217h-1.217zm1.217 0h1.217v1.217h-1.217zm9.733 0h1.217v1.217h-1.217zm10.95 0h1.217v1.217h-1.217zm15.817 0h1.217v1.217h-1.217zm18.25 0h1.217v1.217h-1.217zm24.333 0h1.217v1.217h-1.217zm1.217 0h1.217v1.217h-1.217zm41.366 0h1.217v1.217h-1.217zm1.217 0h1.217v1.217h-1.217z"/><path d="M196.492 147.825h1.217v1.217h-1.217zm-189.8 1.217h1.217v1.217H6.692z"/><path d="M7.908 149.042h1.217v1.217H7.908zm40.15 0h1.217v1.217h-1.217zm1.217 0h1.217v1.217h-1.217zm1.217 0h1.217v1.217h-1.217zm6.083 0h1.217v1.217h-1.217zm4.867 0h1.217v1.217h-1.217z"/><path d="M62.658 149.042h1.217v1.217h-1.217zm1.217 0h1.217v1.217h-1.217zm8.517 0h1.217v1.217h-1.217z"/><path d="M73.608 149.042h1.217v1.217h-1.217zm1.217 0h1.217v1.217h-1.217zm7.3 0h1.217v1.217h-1.217zm10.95 0h1.217v1.217h-1.217zm15.817 0h1.217v1.217h-1.217zm18.25 0h1.217v1.217h-1.217zm24.333 0h1.217v1.217h-1.217zm45.017 0h1.217v1.217h-1.217z"/><path d="M197.708 149.042h1.217v1.217h-1.217zm1.217 0h1.217v1.217h-1.217zM4.258 150.258h1.217v1.217H4.258zm1.217 0h1.217v1.217H5.475zm1.217 0h1.217v1.217H6.692zm43.8 0h1.217v1.217h-1.217z"/><path d="M51.708 150.258h1.217v1.217h-1.217zm1.217 0h1.217v1.217h-1.217zm3.65 0h1.217v1.217h-1.217zm2.433 0h1.217v1.217h-1.217zm1.217 0h1.217v1.217h-1.217zm1.217 0h1.217v1.217h-1.217zm13.383 0h1.217v1.217h-1.217zm1.217 0h1.217v1.217h-1.217z"/><path d="M77.258 150.258h1.217v1.217h-1.217zm3.65 0h1.217v1.217h-1.217zm1.217 0h1.217v1.217h-1.217zm9.733 0h1.217v1.217h-1.217zm1.217 0h1.217v1.217h-1.217zm15.817 0h1.217v1.217h-1.217z"/><path d="M110.108 150.258h1.217v1.217h-1.217zm17.034 0h1.217v1.217h-1.217zm23.116 0h1.217v1.217h-1.217zm48.667 0h1.217v1.217h-1.217zm1.217 0h1.217v1.217h-1.217zM4.258 151.475h1.217v1.217H4.258zm1.217 0h1.217v1.217H5.475zm1.217 0h1.217v1.217H6.692z"/><path d="M7.908 151.475h1.217v1.217H7.908zm45.017 0h1.217v1.217h-1.217zm1.217 0h1.217v1.217h-1.217z"/><path d="M55.358 151.475h1.217v1.217h-1.217zm1.217 0h1.217v1.217h-1.217zm1.217 0h1.217v1.217h-1.217z"/><path d="M59.008 151.475h1.217v1.217h-1.217zm18.25 0h1.217v1.217h-1.217zm1.217 0h1.217v1.217h-1.217zm1.217 0h1.217v1.217h-1.217z"/><path d="M80.908 151.475h1.217v1.217h-1.217zm10.95 0h1.217v1.217h-1.217zm1.217 0h1.217v1.217h-1.217zm17.033 0h1.217v1.217h-1.217zm15.817 0h1.217v1.217h-1.217zm1.217 0h1.217v1.217h-1.217zm21.9 0h1.217v1.217h-1.217z"/><path d="M150.258 151.475h1.217v1.217h-1.217zm51.1 0h1.217v1.217h-1.217z"/><path d="M202.575 151.475h1.217v1.217h-1.217zM4.258 152.692h1.217v1.217H4.258zm1.217 0h1.217v1.217H5.475zm2.433 0h1.217v1.217H7.908zm1.217 0h1.217v1.217H9.125zm1.217 0h1.217v1.217h-1.217zm45.016 0h1.217v1.217h-1.217zm1.217 0h1.217v1.217h-1.217zm1.217 0h1.217v1.217h-1.217zm21.9 0h1.217v1.217h-1.217z"/><path d="M80.908 152.692h1.217v1.217h-1.217zm10.95 0h1.217v1.217h-1.217zm1.217 0h1.217v1.217h-1.217zm1.217 0h1.217v1.217h-1.217zm15.816 0h1.217v1.217h-1.217zm15.817 0h1.217v1.217h-1.217zm21.9 0h1.217v1.217h-1.217zm1.217 0h1.217v1.217h-1.217zm53.533 0h1.217v1.217h-1.217zm1.217 0h1.217v1.217h-1.217z"/><path d="M205.008 152.692h1.217v1.217h-1.217zm-200.75 1.216h1.217v1.217H4.258zm1.217 0h1.217v1.217H5.475zm4.867 0h1.217v1.217h-1.217z"/><path d="M11.558 153.908h1.217v1.217h-1.217zm1.217 0h1.217v1.217h-1.217zm65.7 0h1.217v1.217h-1.217zm1.217 0h1.217v1.217h-1.217zm12.166 0h1.217v1.217h-1.217zm2.434 0h1.217v1.217h-1.217z"/><path d="M95.508 153.908h1.217v1.217h-1.217zm1.217 0h1.217v1.217h-1.217zm13.383 0h1.217v1.217h-1.217zm1.217 0h1.217v1.217h-1.217zm14.6 0h1.217v1.217h-1.217zm20.683 0h1.217v1.217h-1.217zm1.217 0h1.217v1.217h-1.217zm57.183 0h1.217v1.217h-1.217zm1.217 0h1.217v1.217h-1.217zm1.217 0h1.217v1.217h-1.217zM4.258 155.125h1.217v1.217H4.258zm1.217 0h1.217v1.217H5.475zm7.3 0h1.217v1.217h-1.217zm1.217 0h1.217v1.217h-1.217z"/><path d="M15.208 155.125h1.217v1.217h-1.217zm60.834 0h1.217v1.217h-1.217z"/><path d="M77.258 155.125h1.217v1.217h-1.217zm13.384 0h1.217v1.217h-1.217z"/><path d="M91.858 155.125h1.217v1.217h-1.217zm4.867 0h1.217v1.217h-1.217zm1.217 0h1.217v1.217h-1.217z"/><path d="M99.158 155.125h1.217v1.217h-1.217zm12.167 0h1.217v1.217h-1.217zm13.383 0h1.217v1.217h-1.217zm1.217 0h1.217v1.217h-1.217zm20.683 0h1.217v1.217h-1.217zm15.817 0h1.217v1.217h-1.217zm45.017 0h1.217v1.217h-1.217z"/><path d="M208.658 155.125h1.217v1.217h-1.217zm-204.4 1.217h1.217v1.217H4.258zm1.217 0h1.217v1.217H5.475zm9.733 0h1.217v1.217h-1.217zm1.217 0h1.217v1.217h-1.217zm1.217 0h1.217v1.217h-1.217zm55.966 0h1.217v1.217h-1.217zm1.217 0h1.217v1.217h-1.217zm1.217 0h1.217v1.217h-1.217zm14.6 0h1.217v1.217h-1.217zm8.516 0h1.217v1.217h-1.217zm1.217 0h1.217v1.217h-1.217zm1.217 0h1.217v1.217h-1.217zm9.733 0h1.217v1.217h-1.217zm12.167 0h1.217v1.217h-1.217z"/><path d="M124.708 156.342h1.217v1.217h-1.217zm20.684 0h1.217v1.217h-1.217z"/><path d="M146.608 156.342h1.217v1.217h-1.217zm15.817 0h1.217v1.217h-1.217z"/><path d="M163.642 156.342h1.217v1.217h-1.217z"/><path d="M164.858 156.342h1.217v1.217h-1.217zm45.017 0h1.217v1.217h-1.217zm1.217 0h1.217v1.217h-1.217zM4.258 157.558h1.217v1.217H4.258zm1.217 0h1.217v1.217H5.475zm12.167 0h1.217v1.217h-1.217z"/><path d="M18.858 157.558h1.217v1.217h-1.217zm1.217 0h1.217v1.217h-1.217zm51.1 0h1.217v1.217h-1.217zm1.217 0h1.217v1.217h-1.217z"/><path d="M73.608 157.558h1.217v1.217h-1.217zm17.034 0h1.217v1.217h-1.217zm10.95 0h1.217v1.217h-1.217z"/><path d="M102.808 157.558h1.217v1.217h-1.217zm1.217 0h1.217v1.217h-1.217zm7.3 0h1.217v1.217h-1.217zm1.217 0h1.217v1.217h-1.217zm8.516 0h1.217v1.217h-1.217zm1.217 0h1.217v1.217h-1.217zm1.217 0h1.217v1.217h-1.217zm20.683 0h1.217v1.217h-1.217z"/><path d="M145.392 157.558h1.217v1.217h-1.217zm15.816 0h1.217v1.217h-1.217zm1.217 0h1.217v1.217h-1.217zm2.433 0h1.217v1.217h-1.217z"/><path d="M166.075 157.558h1.217v1.217h-1.217zm1.217 0h1.217v1.217h-1.217zm43.8 0h1.217v1.217h-1.217z"/><path d="M212.308 157.558h1.217v1.217h-1.217zm1.217 0h1.217v1.217h-1.217zM4.258 158.775h1.217v1.217H4.258zm1.217 0h1.217v1.217H5.475zm14.6 0h1.217v1.217h-1.217zm1.217 0h1.217v1.217h-1.217z"/><path d="M22.508 158.775h1.217v1.217h-1.217zm47.45 0h1.217v1.217h-1.217zm1.217 0h1.217v1.217h-1.217zm19.467 0h1.217v1.217h-1.217zm13.383 0h1.217v1.217h-1.217zm1.217 0h1.217v1.217h-1.217z"/><path d="M106.458 158.775h1.217v1.217h-1.217zm4.867 0h1.217v1.217h-1.217zm1.217 0h1.217v1.217h-1.217zm6.083 0h1.217v1.217h-1.217zm1.217 0h1.217v1.217h-1.217z"/><path d="M121.058 158.775h1.217v1.217h-1.217zm21.9 0h1.217v1.217h-1.217zm1.217 0h1.217v1.217h-1.217zm15.817 0h1.217v1.217h-1.217z"/><path d="M161.208 158.775h1.217v1.217h-1.217zm1.217 0h1.217v1.217h-1.217z"/><path d="M163.642 158.775h1.217v1.217h-1.217z"/><path d="M164.858 158.775h1.217v1.217h-1.217zm2.434 0h1.217v1.217h-1.217z"/><path d="M168.508 158.775h1.217v1.217h-1.217zm43.8 0h1.217v1.217h-1.217zm1.217 0h1.217v1.217h-1.217zM4.258 159.992h1.217v1.217H4.258zm1.217 0h1.217v1.217H5.475zm17.033 0h1.217v1.217h-1.217zm1.217 0h1.217v1.217h-1.217zm1.217 0h1.217v1.217h-1.217zm42.583 0h1.217v1.217h-1.217zm1.217 0h1.217v1.217h-1.217z"/><path d="M69.958 159.992h1.217v1.217h-1.217zm19.467 0h1.217v1.217h-1.217zm1.217 0h1.217v1.217h-1.217zm15.816 0h1.217v1.217h-1.217zm1.217 0h1.217v1.217h-1.217zm1.217 0h1.217v1.217h-1.217zm3.65 0h1.217v1.217h-1.217zm3.65 0h1.217v1.217h-1.217z"/><path d="M117.408 159.992h1.217v1.217h-1.217zm1.217 0h1.217v1.217h-1.217zm23.117 0h1.217v1.217h-1.217z"/><path d="M142.958 159.992h1.217v1.217h-1.217zm17.034 0h1.217v1.217h-1.217zm4.866 0h1.217v1.217h-1.217z"/><path d="M166.075 159.992h1.217v1.217h-1.217zm1.217 0h1.217v1.217h-1.217z"/><path d="M168.508 159.992h1.217v1.217h-1.217z"/><path d="M169.725 159.992h1.217v1.217h-1.217zm1.217 0h1.217v1.217h-1.217zm41.366 0h1.217v1.217h-1.217zm-208.05 1.216h1.217v1.217H4.258zm1.217 0h1.217v1.217H5.475zm19.467 0h1.217v1.217h-1.217z"/><path d="M26.158 161.208h1.217v1.217h-1.217zm1.217 0h1.217v1.217h-1.217zm37.717 0h1.217v1.217h-1.217z"/><path d="M66.308 161.208h1.217v1.217h-1.217zm1.217 0h1.217v1.217h-1.217zm21.9 0h1.217v1.217h-1.217zm19.467 0h1.217v1.217h-1.217z"/><path d="M110.108 161.208h1.217v1.217h-1.217zm1.217 0h1.217v1.217h-1.217zm1.217 0h1.217v1.217h-1.217zm2.433 0h1.217v1.217h-1.217zm1.217 0h1.217v1.217h-1.217zm24.333 0h1.217v1.217h-1.217zm1.217 0h1.217v1.217h-1.217zm17.033 0h1.217v1.217h-1.217zm8.517 0h1.217v1.217h-1.217z"/><path d="M168.508 161.208h1.217v1.217h-1.217z"/><path d="M169.725 161.208h1.217v1.217h-1.217zm1.217 0h1.217v1.217h-1.217z"/><path d="M172.158 161.208h1.217v1.217h-1.217zm1.217 0h1.217v1.217h-1.217zm37.717 0h1.217v1.217h-1.217z"/><path d="M212.308 161.208h1.217v1.217h-1.217zm-208.05 1.217h1.217v1.217H4.258zm1.217 0h1.217v1.217H5.475zm21.9 0h1.217v1.217h-1.217zm1.217 0h1.217v1.217h-1.217z"/><path d="M29.808 162.425h1.217v1.217h-1.217zm32.85 0h1.217v1.217h-1.217zm1.217 0h1.217v1.217h-1.217zm1.217 0h1.217v1.217h-1.217zm23.116 0h1.217v1.217h-1.217zm1.217 0h1.217v1.217h-1.217zm21.9 0h1.217v1.217h-1.217zm1.217 0h1.217v1.217h-1.217z"/><path d="M113.758 162.425h1.217v1.217h-1.217zm1.217 0h1.217v1.217h-1.217zm24.333 0h1.217v1.217h-1.217zm1.217 0h1.217v1.217h-1.217zm17.033 0h1.217v1.217h-1.217zm1.217 0h1.217v1.217h-1.217zm10.95 0h1.217v1.217h-1.217zm1.217 0h1.217v1.217h-1.217z"/><path d="M172.158 162.425h1.217v1.217h-1.217zm1.217 0h1.217v1.217h-1.217zm1.217 0h1.217v1.217h-1.217z"/><path d="M175.808 162.425h1.217v1.217h-1.217zm34.067 0h1.217v1.217h-1.217zm1.217 0h1.217v1.217h-1.217zM4.258 163.642h1.217v1.217H4.258zm1.217 0h1.217v1.217H5.475zm24.333 0h1.217v1.217h-1.217zm1.217 0h1.217v1.217h-1.217zm1.217 0h1.217v1.217h-1.217zm29.2 0h1.217v1.217h-1.217z"/><path d="M62.658 163.642h1.217v1.217h-1.217zm23.117 0h1.217v1.217h-1.217zm1.217 0h1.217v1.217h-1.217z"/><path d="M88.208 163.642h1.217v1.217h-1.217zm49.884 0h1.217v1.217h-1.217z"/><path d="M139.308 163.642h1.217v1.217h-1.217zm17.034 0h1.217v1.217h-1.217z"/><path d="M157.558 163.642h1.217v1.217h-1.217zm14.6 0h1.217v1.217h-1.217zm1.217 0h1.217v1.217h-1.217zm1.217 0h1.217v1.217h-1.217z"/><path d="M175.808 163.642h1.217v1.217h-1.217zm1.217 0h1.217v1.217h-1.217zm32.85 0h1.217v1.217h-1.217zM4.258 164.858h1.217v1.217H4.258zm1.217 0h1.217v1.217H5.475zm1.217 0h1.217v1.217H6.692zm25.55 0h1.217v1.217h-1.217z"/><path d="M33.458 164.858h1.217v1.217h-1.217zm1.217 0h1.217v1.217h-1.217zm24.333 0h1.217v1.217h-1.217zm1.217 0h1.217v1.217h-1.217zm1.217 0h1.217v1.217h-1.217zm21.9 0h1.217v1.217h-1.217z"/><path d="M84.558 164.858h1.217v1.217h-1.217zm1.217 0h1.217v1.217h-1.217zm51.1 0h1.217v1.217h-1.217zm1.217 0h1.217v1.217h-1.217zm18.25 0h1.217v1.217h-1.217zm18.25 0h1.217v1.217h-1.217z"/><path d="M175.808 164.858h1.217v1.217h-1.217zm1.217 0h1.217v1.217h-1.217z"/><path d="M178.242 164.858h1.217v1.217h-1.217z"/><path d="M179.458 164.858h1.217v1.217h-1.217zm29.2 0h1.217v1.217h-1.217zm1.217 0h1.217v1.217h-1.217zM6.692 166.075h1.217v1.217H6.692z"/><path d="M7.908 166.075h1.217v1.217H7.908zm1.217 0h1.217v1.217H9.125zm25.55 0h1.217v1.217h-1.217zm1.217 0h1.217v1.217h-1.217z"/><path d="M37.108 166.075h1.217v1.217h-1.217zm19.467 0h1.217v1.217h-1.217zm1.217 0h1.217v1.217h-1.217z"/><path d="M59.008 166.075h1.217v1.217h-1.217zm21.9 0h1.217v1.217h-1.217zm1.217 0h1.217v1.217h-1.217zm1.217 0h1.217v1.217h-1.217zm52.316 0h1.217v1.217h-1.217zm1.217 0h1.217v1.217h-1.217zm18.25 0h1.217v1.217h-1.217zm21.9 0h1.217v1.217h-1.217z"/><path d="M178.242 166.075h1.217v1.217h-1.217z"/><path d="M179.458 166.075h1.217v1.217h-1.217zm1.217 0h1.217v1.217h-1.217z"/><path d="M181.892 166.075h1.217v1.217h-1.217zm26.766 0h1.217v1.217h-1.217zM9.125 167.292h1.217v1.217H9.125zm1.217 0h1.217v1.217h-1.217z"/><path d="M11.558 167.292h1.217v1.217h-1.217zm25.55 0h1.217v1.217h-1.217zm1.217 0h1.217v1.217h-1.217zm1.217 0h1.217v1.217h-1.217zm14.6 0h1.217v1.217h-1.217z"/><path d="M55.358 167.292h1.217v1.217h-1.217zm1.217 0h1.217v1.217h-1.217zm23.117 0h1.217v1.217h-1.217z"/><path d="M80.908 167.292h1.217v1.217h-1.217zm53.534 0h1.217v1.217h-1.217z"/><path d="M135.658 167.292h1.217v1.217h-1.217zm18.25 0h1.217v1.217h-1.217zm1.217 0h1.217v1.217h-1.217zm24.333 0h1.217v1.217h-1.217zm1.217 0h1.217v1.217h-1.217z"/><path d="M181.892 167.292h1.217v1.217h-1.217z"/><path d="M183.108 167.292h1.217v1.217h-1.217z"/><path d="M184.325 167.292h1.217v1.217h-1.217zm23.117 0h1.217v1.217h-1.217z"/><path d="M208.658 167.292h1.217v1.217h-1.217zm-197.1 1.216h1.217v1.217h-1.217zm1.217 0h1.217v1.217h-1.217zm1.217 0h1.217v1.217h-1.217zm25.55 0h1.217v1.217h-1.217z"/><path d="M40.758 168.508h1.217v1.217h-1.217zm1.217 0h1.217v1.217h-1.217zm10.95 0h1.217v1.217h-1.217zm1.217 0h1.217v1.217h-1.217zm23.116 0h1.217v1.217h-1.217zm1.217 0h1.217v1.217h-1.217zm1.217 0h1.217v1.217h-1.217zm53.533 0h1.217v1.217h-1.217zm1.217 0h1.217v1.217h-1.217zm18.25 0h1.217v1.217h-1.217z"/><path d="M153.908 168.508h1.217v1.217h-1.217zm27.984 0h1.217v1.217h-1.217z"/><path d="M183.108 168.508h1.217v1.217h-1.217z"/><path d="M184.325 168.508h1.217v1.217h-1.217zm1.217 0h1.217v1.217h-1.217zm21.9 0h1.217v1.217h-1.217zm-193.45 1.217h1.217v1.217h-1.217z"/><path d="M15.208 169.725h1.217v1.217h-1.217zm1.217 0h1.217v1.217h-1.217zm25.55 0h1.217v1.217h-1.217zm1.217 0h1.217v1.217h-1.217z"/><path d="M44.408 169.725h1.217v1.217h-1.217zm6.084 0h1.217v1.217h-1.217z"/><path d="M51.708 169.725h1.217v1.217h-1.217zm1.217 0h1.217v1.217h-1.217zm21.9 0h1.217v1.217h-1.217zm1.217 0h1.217v1.217h-1.217z"/><path d="M77.258 169.725h1.217v1.217h-1.217zm53.534 0h1.217v1.217h-1.217z"/><path d="M132.008 169.725h1.217v1.217h-1.217z"/><path d="M133.225 169.725h1.217v1.217h-1.217zm18.25 0h1.217v1.217h-1.217zm1.217 0h1.217v1.217h-1.217zm31.633 0h1.217v1.217h-1.217zm1.217 0h1.217v1.217h-1.217z"/><path d="M186.758 169.725h1.217v1.217h-1.217z"/><path d="M187.975 169.725h1.217v1.217h-1.217zm18.25 0h1.217v1.217h-1.217zm-189.8 1.217h1.217v1.217h-1.217zm1.217 0h1.217v1.217h-1.217z"/><path d="M18.858 170.942h1.217v1.217h-1.217zm25.55 0h1.217v1.217h-1.217zm1.217 0h1.217v1.217h-1.217zm1.217 0h1.217v1.217h-1.217z"/><path d="M48.058 170.942h1.217v1.217h-1.217zm1.217 0h1.217v1.217h-1.217zm1.217 0h1.217v1.217h-1.217zm23.116 0h1.217v1.217h-1.217zm1.217 0h1.217v1.217h-1.217zm54.75 0h1.217v1.217h-1.217zm1.217 0h1.217v1.217h-1.217zm19.466 0h1.217v1.217h-1.217z"/><path d="M151.475 170.942h1.217v1.217h-1.217zm35.283 0h1.217v1.217h-1.217zm1.217 0h1.217v1.217h-1.217zm1.217 0h1.217v1.217h-1.217z"/><path d="M190.408 170.942h1.217v1.217h-1.217zm14.6 0h1.217v1.217h-1.217zm1.217 0h1.217v1.217h-1.217zm-187.367 1.216h1.217v1.217h-1.217zm1.217 0h1.217v1.217h-1.217zm1.217 0h1.217v1.217h-1.217zm25.55 0h1.217v1.217h-1.217z"/><path d="M48.058 172.158h1.217v1.217h-1.217zm23.117 0h1.217v1.217h-1.217zm1.217 0h1.217v1.217h-1.217z"/><path d="M73.608 172.158h1.217v1.217h-1.217zm54.75 0h1.217v1.217h-1.217z"/><path d="M129.575 172.158h1.217v1.217h-1.217zm19.467 0h1.217v1.217h-1.217z"/><path d="M150.258 172.158h1.217v1.217h-1.217zm38.934 0h1.217v1.217h-1.217z"/><path d="M190.408 172.158h1.217v1.217h-1.217zm1.217 0h1.217v1.217h-1.217zm1.217 0h1.217v1.217h-1.217zm12.166 0h1.217v1.217h-1.217zm-183.716 1.217h1.217v1.217h-1.217z"/><path d="M22.508 173.375h1.217v1.217h-1.217zm1.217 0h1.217v1.217h-1.217zm24.333 0h1.217v1.217h-1.217zm20.684 0h1.217v1.217h-1.217z"/><path d="M69.958 173.375h1.217v1.217h-1.217zm1.217 0h1.217v1.217h-1.217zm2.433 0h1.217v1.217h-1.217zm1.217 0h1.217v1.217h-1.217zm1.217 0h1.217v1.217h-1.217zm49.883 0h1.217v1.217h-1.217zm1.217 0h1.217v1.217h-1.217z"/><path d="M128.358 173.375h1.217v1.217h-1.217zm20.684 0h1.217v1.217h-1.217zm42.583 0h1.217v1.217h-1.217zm1.217 0h1.217v1.217h-1.217z"/><path d="M194.058 173.375h1.217v1.217h-1.217zm9.734 0h1.217v1.217h-1.217z"/><path d="M205.008 173.375h1.217v1.217h-1.217zm-181.283 1.217h1.217v1.217h-1.217zm1.217 0h1.217v1.217h-1.217z"/><path d="M26.158 174.592h1.217v1.217h-1.217zm21.9 0h1.217v1.217h-1.217zm18.25 0h1.217v1.217h-1.217zm1.217 0h1.217v1.217h-1.217zm1.217 0h1.217v1.217h-1.217zm7.3 0h1.217v1.217h-1.217z"/><path d="M77.258 174.592h1.217v1.217h-1.217zm1.217 0h1.217v1.217h-1.217zm46.233 0h1.217v1.217h-1.217zm1.217 0h1.217v1.217h-1.217zm21.9 0h1.217v1.217h-1.217zm46.233 0h1.217v1.217h-1.217zm1.217 0h1.217v1.217h-1.217z"/><path d="M196.492 174.592h1.217v1.217h-1.217zm7.3 0h1.217v1.217h-1.217zm-177.634 1.216h1.217v1.217h-1.217zm1.217 0h1.217v1.217h-1.217zm1.217 0h1.217v1.217h-1.217zm19.466 0h1.217v1.217h-1.217zm17.034 0h1.217v1.217h-1.217z"/><path d="M66.308 175.808h1.217v1.217h-1.217zm12.167 0h1.217v1.217h-1.217zm1.217 0h1.217v1.217h-1.217z"/><path d="M80.908 175.808h1.217v1.217h-1.217zm41.367 0h1.217v1.217h-1.217zm1.217 0h1.217v1.217h-1.217z"/><path d="M124.708 175.808h1.217v1.217h-1.217zm21.9 0h1.217v1.217h-1.217zm49.884 0h1.217v1.217h-1.217z"/><path d="M197.708 175.808h1.217v1.217h-1.217zm1.217 0h1.217v1.217h-1.217zm3.65 0h1.217v1.217h-1.217zm1.217 0h1.217v1.217h-1.217zm-175.2 1.217h1.217v1.217h-1.217z"/><path d="M29.808 177.025h1.217v1.217h-1.217zm1.217 0h1.217v1.217h-1.217zm17.033 0h1.217v1.217h-1.217zm14.6 0h1.217v1.217h-1.217zm1.217 0h1.217v1.217h-1.217zm1.217 0h1.217v1.217h-1.217zm15.816 0h1.217v1.217h-1.217zm1.217 0h1.217v1.217h-1.217zm1.217 0h1.217v1.217h-1.217zm36.5 0h1.217v1.217h-1.217z"/><path d="M121.058 177.025h1.217v1.217h-1.217zm1.217 0h1.217v1.217h-1.217zm23.117 0h1.217v1.217h-1.217z"/><path d="M146.608 177.025h1.217v1.217h-1.217zm52.317 0h1.217v1.217h-1.217z"/><path d="M200.142 177.025h1.217v1.217h-1.217z"/><path d="M201.358 177.025h1.217v1.217h-1.217z"/><path d="M202.575 177.025h1.217v1.217h-1.217zm-171.55 1.217h1.217v1.217h-1.217zm1.217 0h1.217v1.217h-1.217z"/><path d="M33.458 178.242h1.217v1.217h-1.217zm14.6 0h1.217v1.217h-1.217zm12.167 0h1.217v1.217h-1.217zm1.217 0h1.217v1.217h-1.217z"/><path d="M62.658 178.242h1.217v1.217h-1.217zm20.684 0h1.217v1.217h-1.217z"/><path d="M84.558 178.242h1.217v1.217h-1.217zm1.217 0h1.217v1.217h-1.217zm31.633 0h1.217v1.217h-1.217zm1.217 0h1.217v1.217h-1.217zm1.217 0h1.217v1.217h-1.217zm24.333 0h1.217v1.217h-1.217z"/><path d="M145.392 178.242h1.217v1.217h-1.217zm55.966 0h1.217v1.217h-1.217zm-167.9 1.216h1.217v1.217h-1.217zm1.217 0h1.217v1.217h-1.217zm1.217 0h1.217v1.217h-1.217zm12.166 0h1.217v1.217h-1.217zm9.734 0h1.217v1.217h-1.217z"/><path d="M59.008 179.458h1.217v1.217h-1.217zm1.217 0h1.217v1.217h-1.217zm23.117 0h1.217v1.217h-1.217z"/><path d="M84.558 179.458h1.217v1.217h-1.217zm1.217 0h1.217v1.217h-1.217zm1.217 0h1.217v1.217h-1.217zm27.983 0h1.217v1.217h-1.217zm1.217 0h1.217v1.217h-1.217z"/><path d="M117.408 179.458h1.217v1.217h-1.217zm25.55 0h1.217v1.217h-1.217zm1.217 0h1.217v1.217h-1.217zm-109.5 1.217h1.217v1.217h-1.217zm1.217 0h1.217v1.217h-1.217z"/><path d="M37.108 180.675h1.217v1.217h-1.217zm1.217 0h1.217v1.217h-1.217zm9.733 0h1.217v1.217h-1.217zm8.517 0h1.217v1.217h-1.217zm1.217 0h1.217v1.217h-1.217zm23.116 0h1.217v1.217h-1.217zm1.217 0h1.217v1.217h-1.217zm1.217 0h1.217v1.217h-1.217zm3.65 0h1.217v1.217h-1.217z"/><path d="M88.208 180.675h1.217v1.217h-1.217zm1.217 0h1.217v1.217h-1.217zm21.9 0h1.217v1.217h-1.217zm1.217 0h1.217v1.217h-1.217z"/><path d="M113.758 180.675h1.217v1.217h-1.217zm1.217 0h1.217v1.217h-1.217zm26.767 0h1.217v1.217h-1.217z"/><path d="M142.958 180.675h1.217v1.217h-1.217zm-105.85 1.217h1.217v1.217h-1.217zm1.217 0h1.217v1.217h-1.217zm1.217 0h1.217v1.217h-1.217z"/><path d="M40.758 181.892h1.217v1.217h-1.217zm7.3 0h1.217v1.217h-1.217zm6.084 0h1.217v1.217h-1.217z"/><path d="M55.358 181.892h1.217v1.217h-1.217zm1.217 0h1.217v1.217h-1.217zm21.9 0h1.217v1.217h-1.217zm1.217 0h1.217v1.217h-1.217z"/><path d="M80.908 181.892h1.217v1.217h-1.217zm8.517 0h1.217v1.217h-1.217zm1.217 0h1.217v1.217h-1.217z"/><path d="M91.858 181.892h1.217v1.217h-1.217zm1.217 0h1.217v1.217h-1.217zm1.217 0h1.217v1.217h-1.217zm12.166 0h1.217v1.217h-1.217zm1.217 0h1.217v1.217h-1.217zm1.217 0h1.217v1.217h-1.217z"/><path d="M110.108 181.892h1.217v1.217h-1.217zm1.217 0h1.217v1.217h-1.217zm27.983 0h1.217v1.217h-1.217zm1.217 0h1.217v1.217h-1.217zm-100.983 1.216h1.217v1.217h-1.217z"/><path d="M40.758 183.108h1.217v1.217h-1.217zm1.217 0h1.217v1.217h-1.217zm1.217 0h1.217v1.217h-1.217zm4.866 0h1.217v1.217h-1.217zm3.65 0h1.217v1.217h-1.217zm1.217 0h1.217v1.217h-1.217zm1.217 0h1.217v1.217h-1.217zm23.116 0h1.217v1.217h-1.217zm1.217 0h1.217v1.217h-1.217zm14.6 0h1.217v1.217h-1.217zm1.217 0h1.217v1.217h-1.217z"/><path d="M95.508 183.108h1.217v1.217h-1.217zm1.217 0h1.217v1.217h-1.217zm1.217 0h1.217v1.217h-1.217z"/><path d="M99.158 183.108h1.217v1.217h-1.217zm1.217 0h1.217v1.217h-1.217zm1.217 0h1.217v1.217h-1.217z"/><path d="M102.808 183.108h1.217v1.217h-1.217zm1.217 0h1.217v1.217h-1.217zm1.217 0h1.217v1.217h-1.217z"/><path d="M106.458 183.108h1.217v1.217h-1.217zm1.217 0h1.217v1.217h-1.217zm30.417 0h1.217v1.217h-1.217z"/><path d="M139.308 183.108h1.217v1.217h-1.217zm-97.333 1.217h1.217v1.217h-1.217zm1.217 0h1.217v1.217h-1.217z"/><path d="M44.408 184.325h1.217v1.217h-1.217zm1.217 0h1.217v1.217h-1.217zm2.433 0h1.217v1.217h-1.217zm2.434 0h1.217v1.217h-1.217z"/><path d="M51.708 184.325h1.217v1.217h-1.217zm1.217 0h1.217v1.217h-1.217zm1.217 0h1.217v1.217h-1.217zm20.683 0h1.217v1.217h-1.217zm1.217 0h1.217v1.217h-1.217zm60.833 0h1.217v1.217h-1.217zm1.217 0h1.217v1.217h-1.217zm-93.684 1.217h1.217v1.217h-1.217zm1.217 0h1.217v1.217h-1.217zm1.217 0h1.217v1.217h-1.217z"/><path d="M48.058 185.542h1.217v1.217h-1.217zm1.217 0h1.217v1.217h-1.217zm4.867 0h1.217v1.217h-1.217z"/><path d="M55.358 185.542h1.217v1.217h-1.217zm1.217 0h1.217v1.217h-1.217zm15.817 0h1.217v1.217h-1.217z"/><path d="M73.608 185.542h1.217v1.217h-1.217zm1.217 0h1.217v1.217h-1.217zm60.833 0h1.217v1.217h-1.217zm1.217 0h1.217v1.217h-1.217zm-90.033 1.216h1.217v1.217h-1.217z"/><path d="M48.058 186.758h1.217v1.217h-1.217zm1.217 0h1.217v1.217h-1.217zm7.3 0h1.217v1.217h-1.217zm1.217 0h1.217v1.217h-1.217z"/><path d="M59.008 186.758h1.217v1.217h-1.217zm10.95 0h1.217v1.217h-1.217zm1.217 0h1.217v1.217h-1.217zm1.217 0h1.217v1.217h-1.217zm62.05 0h1.217v1.217h-1.217z"/><path d="M135.658 186.758h1.217v1.217h-1.217zm-86.383 1.217h1.217v1.217h-1.217zm1.217 0h1.217v1.217h-1.217z"/><path d="M51.708 187.975h1.217v1.217h-1.217zm7.3 0h1.217v1.217h-1.217zm1.217 0h1.217v1.217h-1.217zm1.217 0h1.217v1.217h-1.217zm7.3 0h1.217v1.217h-1.217z"/><path d="M69.958 187.975h1.217v1.217h-1.217zm62.05 0h1.217v1.217h-1.217zm1.217 0h1.217v1.217h-1.217zm1.217 0h1.217v1.217h-1.217zm-82.734 1.217h1.217v1.217h-1.217zm1.217 0h1.217v1.217h-1.217zm1.217 0h1.217v1.217h-1.217zm7.3 0h1.217v1.217h-1.217z"/><path d="M62.658 189.192h1.217v1.217h-1.217zm1.217 0h1.217v1.217h-1.217zm2.433 0h1.217v1.217h-1.217zm1.217 0h1.217v1.217h-1.217zm1.217 0h1.217v1.217h-1.217zm62.05 0h1.217v1.217h-1.217z"/><path d="M132.008 189.192h1.217v1.217h-1.217zm-77.866 1.216h1.217v1.217h-1.217z"/><path d="M55.358 190.408h1.217v1.217h-1.217zm1.217 0h1.217v1.217h-1.217zm7.3 0h1.217v1.217h-1.217zm1.217 0h1.217v1.217h-1.217z"/><path d="M66.308 190.408h1.217v1.217h-1.217zm63.267 0h1.217v1.217h-1.217zm1.217 0h1.217v1.217h-1.217zm-74.217 1.217h1.217v1.217h-1.217zm1.217 0h1.217v1.217h-1.217z"/><path d="M59.008 191.625h1.217v1.217h-1.217zm6.084 0h1.217v1.217h-1.217z"/><path d="M66.308 191.625h1.217v1.217h-1.217zm60.834 0h1.217v1.217h-1.217z"/><path d="M128.358 191.625h1.217v1.217h-1.217z"/><path d="M129.575 191.625h1.217v1.217h-1.217zm-70.567 1.217h1.217v1.217h-1.217zm1.217 0h1.217v1.217h-1.217zm1.217 0h1.217v1.217h-1.217zm4.866 0h1.217v1.217h-1.217zm1.217 0h1.217v1.217h-1.217zm58.4 0h1.217v1.217h-1.217zm1.217 0h1.217v1.217h-1.217z"/><path d="M61.442 194.058h1.217v1.217h-1.217z"/><path d="M62.658 194.058h1.217v1.217h-1.217zm1.217 0h1.217v1.217h-1.217zm3.65 0h1.217v1.217h-1.217zm1.217 0h1.217v1.217h-1.217zm54.75 0h1.217v1.217h-1.217z"/><path d="M124.708 194.058h1.217v1.217h-1.217zm1.217 0h1.217v1.217h-1.217zm-62.05 1.217h1.217v1.217h-1.217zm1.217 0h1.217v1.217h-1.217z"/><path d="M66.308 195.275h1.217v1.217h-1.217zm2.434 0h1.217v1.217h-1.217z"/><path d="M69.958 195.275h1.217v1.217h-1.217zm51.1 0h1.217v1.217h-1.217zm1.217 0h1.217v1.217h-1.217zm1.217 0h1.217v1.217h-1.217zm-57.184 1.217h1.217v1.217h-1.217zm1.217 0h1.217v1.217h-1.217z"/><path d="M68.742 196.492h1.217v1.217h-1.217z"/><path d="M69.958 196.492h1.217v1.217h-1.217zm1.217 0h1.217v1.217h-1.217zm47.45 0h1.217v1.217h-1.217zm1.217 0h1.217v1.217h-1.217z"/><path d="M121.058 196.492h1.217v1.217h-1.217zm-52.316 1.216h1.217v1.217h-1.217z"/><path d="M69.958 197.708h1.217v1.217h-1.217zm1.217 0h1.217v1.217h-1.217zm1.217 0h1.217v1.217h-1.217zm43.8 0h1.217v1.217h-1.217z"/><path d="M117.408 197.708h1.217v1.217h-1.217zm1.217 0h1.217v1.217h-1.217zm-47.45 1.217h1.217v1.217h-1.217zm1.217 0h1.217v1.217h-1.217z"/><path d="M73.608 198.925h1.217v1.217h-1.217zm1.217 0h1.217v1.217h-1.217zm38.933 0h1.217v1.217h-1.217zm1.217 0h1.217v1.217h-1.217zm1.217 0h1.217v1.217h-1.217z"/><path d="M73.608 200.142h1.217v1.217h-1.217zm1.217 0h1.217v1.217h-1.217zm1.217 0h1.217v1.217h-1.217zm35.283 0h1.217v1.217h-1.217zm1.217 0h1.217v1.217h-1.217z"/><path d="M113.758 200.142h1.217v1.217h-1.217zm-37.716 1.216h1.217v1.217h-1.217z"/><path d="M77.258 201.358h1.217v1.217h-1.217zm1.217 0h1.217v1.217h-1.217zm1.217 0h1.217v1.217h-1.217zm27.983 0h1.217v1.217h-1.217zm1.217 0h1.217v1.217h-1.217z"/><path d="M110.108 201.358h1.217v1.217h-1.217zm1.217 0h1.217v1.217h-1.217zm-31.633 1.217h1.217v1.217h-1.217z"/><path d="M80.908 202.575h1.217v1.217h-1.217zm1.217 0h1.217v1.217h-1.217zm1.217 0h1.217v1.217h-1.217zm20.683 0h1.217v1.217h-1.217zm1.217 0h1.217v1.217h-1.217z"/><path d="M106.458 202.575h1.217v1.217h-1.217zm1.217 0h1.217v1.217h-1.217zm-25.55 1.217h1.217v1.217h-1.217zm1.217 0h1.217v1.217h-1.217z"/><path d="M84.558 203.792h1.217v1.217h-1.217zm1.217 0h1.217v1.217h-1.217zm1.217 0h1.217v1.217h-1.217z"/><path d="M88.208 203.792h1.217v1.217h-1.217zm1.217 0h1.217v1.217h-1.217zm1.217 0h1.217v1.217h-1.217zm3.65 0h1.217v1.217h-1.217z"/><path d="M95.508 203.792h1.217v1.217h-1.217zm1.217 0h1.217v1.217h-1.217zm1.217 0h1.217v1.217h-1.217z"/><path d="M99.158 203.792h1.217v1.217h-1.217zm1.217 0h1.217v1.217h-1.217zm1.217 0h1.217v1.217h-1.217z"/><path d="M102.808 203.792h1.217v1.217h-1.217zm1.217 0h1.217v1.217h-1.217zm-15.817 1.216h1.217v1.217h-1.217zm1.217 0h1.217v1.217h-1.217zm1.217 0h1.217v1.217h-1.217z"/><path d="M91.858 205.008h1.217v1.217h-1.217zm1.217 0h1.217v1.217h-1.217zm1.217 0h1.217v1.217h-1.217z"/><path d="M95.508 205.008h1.217v1.217h-1.217zm1.217 0h1.217v1.217h-1.217zm1.217 0h1.217v1.217h-1.217z"/></g></svg>