<svg xmlns="http://www.w3.org/2000/svg" width="219" height="219" fill="none"><g fill="#F4F7F5" opacity=".82"><path d="M147.825 3.65h1.217v1.217h-1.217zm-2.433 1.217h1.217v1.217h-1.217z"/><path d="M146.608 4.867h1.217v1.217h-1.217z"/><path d="M147.825 4.867h1.217v1.217h-1.217zm1.217 0h1.217v1.217h-1.217z"/><path d="M150.258 4.867h1.217v1.217h-1.217zm-7.3 1.216h1.217V7.3h-1.217zm1.217 0h1.217V7.3h-1.217z"/><path d="M145.392 6.083h1.217V7.3h-1.217zm4.866 0h1.217V7.3h-1.217zm1.217 0h1.217V7.3h-1.217zm1.217 0h1.217V7.3h-1.217zM141.742 7.3h1.217v1.217h-1.217z"/><path d="M142.958 7.3h1.217v1.217h-1.217zm9.734 0h1.217v1.217h-1.217z"/><path d="M153.908 7.3h1.217v1.217h-1.217zm1.217 0h1.217v1.217h-1.217zm-15.817 1.217h1.217v1.217h-1.217zm1.217 0h1.217v1.217h-1.217z"/><path d="M141.742 8.517h1.217v1.217h-1.217zm13.383 0h1.217v1.217h-1.217zm1.217 0h1.217v1.217h-1.217z"/><path d="M157.558 8.517h1.217v1.217h-1.217zm-20.683 1.216h1.217v1.217h-1.217zm1.217 0h1.217v1.217h-1.217z"/><path d="M139.308 9.733h1.217v1.217h-1.217zm18.25 0h1.217v1.217h-1.217zm1.217 0h1.217v1.217h-1.217z"/><path d="M159.992 9.733h1.217v1.217h-1.217zm-25.55 1.217h1.217v1.217h-1.217z"/><path d="M135.658 10.95h1.217v1.217h-1.217zm1.217 0h1.217v1.217h-1.217zm23.117 0h1.217v1.217h-1.217z"/><path d="M161.208 10.95h1.217v1.217h-1.217zm1.217 0h1.217v1.217h-1.217zm-29.2 1.217h1.217v1.217h-1.217zm1.217 0h1.217v1.217h-1.217zm27.983 0h1.217v1.217h-1.217z"/><path d="M163.642 12.167h1.217v1.217h-1.217z"/><path d="M164.858 12.167h1.217v1.217h-1.217zm-34.066 1.216h1.217V14.6h-1.217z"/><path d="M132.008 13.383h1.217V14.6h-1.217z"/><path d="M133.225 13.383h1.217V14.6h-1.217zm31.633 0h1.217V14.6h-1.217z"/><path d="M166.075 13.383h1.217V14.6h-1.217zm1.217 0h1.217V14.6h-1.217zM128.358 14.6h1.217v1.217h-1.217z"/><path d="M129.575 14.6h1.217v1.217h-1.217zm1.217 0h1.217v1.217h-1.217zm36.5 0h1.217v1.217h-1.217z"/><path d="M168.508 14.6h1.217v1.217h-1.217z"/><path d="M169.725 14.6h1.217v1.217h-1.217zm-42.583 1.217h1.217v1.217h-1.217z"/><path d="M128.358 15.817h1.217v1.217h-1.217zm41.367 0h1.217v1.217h-1.217zm1.217 0h1.217v1.217h-1.217z"/><path d="M172.158 15.817h1.217v1.217h-1.217zm-47.45 1.216h1.217v1.217h-1.217zm1.217 0h1.217v1.217h-1.217z"/><path d="M172.158 17.033h1.217v1.217h-1.217zm1.217 0h1.217v1.217h-1.217zm1.217 0h1.217v1.217h-1.217zm-52.317 1.217h1.217v1.217h-1.217zm1.217 0h1.217v1.217h-1.217z"/><path d="M124.708 18.25h1.217v1.217h-1.217zm49.884 0h1.217v1.217h-1.217z"/><path d="M175.808 18.25h1.217v1.217h-1.217zm1.217 0h1.217v1.217h-1.217zm-57.183 1.217h1.217v1.217h-1.217z"/><path d="M121.058 19.467h1.217v1.217h-1.217zm1.217 0h1.217v1.217h-1.217zm54.75 0h1.217v1.217h-1.217z"/><path d="M178.242 19.467h1.217v1.217h-1.217z"/><path d="M179.458 19.467h1.217v1.217h-1.217zm-60.833 1.216h1.217V21.9h-1.217zm1.217 0h1.217V21.9h-1.217z"/><path d="M179.458 20.683h1.217V21.9h-1.217zm1.217 0h1.217V21.9h-1.217z"/><path d="M181.892 20.683h1.217V21.9h-1.217zm-65.7 1.217h1.217v1.217h-1.217z"/><path d="M117.408 21.9h1.217v1.217h-1.217zm1.217 0h1.217v1.217h-1.217zm60.833 0h1.217v1.217h-1.217zm1.217 0h1.217v1.217h-1.217z"/><path d="M181.892 21.9h1.217v1.217h-1.217zm-68.134 1.217h1.217v1.217h-1.217zm1.217 0h1.217v1.217h-1.217zm1.217 0h1.217v1.217h-1.217zm60.833 0h1.217v1.217h-1.217zm1.217 0h1.217v1.217h-1.217z"/><path d="M179.458 23.117h1.217v1.217h-1.217zm2.434 0h1.217v1.217h-1.217zm-70.567 1.216h1.217v1.217h-1.217zm1.217 0h1.217v1.217h-1.217z"/><path d="M113.758 24.333h1.217v1.217h-1.217zm62.05 0h1.217v1.217h-1.217zm1.217 0h1.217v1.217h-1.217zm4.867 0h1.217v1.217h-1.217zm-71.784 1.217h1.217v1.217h-1.217zm1.217 0h1.217v1.217h-1.217zm62.05 0h1.217v1.217h-1.217zm1.217 0h1.217v1.217h-1.217zm7.3 0h1.217v1.217h-1.217zm-74.217 1.217h1.217v1.217h-1.217zm1.217 0h1.217v1.217h-1.217z"/><path d="M110.108 26.767h1.217v1.217h-1.217zm60.834 0h1.217v1.217h-1.217z"/><path d="M172.158 26.767h1.217v1.217h-1.217zm1.217 0h1.217v1.217h-1.217zm8.517 0h1.217v1.217h-1.217zm-76.65 1.216h1.217V29.2h-1.217z"/><path d="M106.458 27.983h1.217V29.2h-1.217zm1.217 0h1.217V29.2h-1.217zm60.833 0h1.217V29.2h-1.217zm1.217 0h1.217V29.2h-1.217zm1.217 0h1.217V29.2h-1.217zm10.95 0h1.217V29.2h-1.217zM104.025 29.2h1.217v1.217h-1.217zm1.217 0h1.217v1.217h-1.217zm62.05 0h1.217v1.217h-1.217z"/><path d="M168.508 29.2h1.217v1.217h-1.217zm13.384 0h1.217v1.217h-1.217zm-80.3 1.217h1.217v1.217h-1.217z"/><path d="M102.808 30.417h1.217v1.217h-1.217zm62.05 0h1.217v1.217h-1.217z"/><path d="M166.075 30.417h1.217v1.217h-1.217zm1.217 0h1.217v1.217h-1.217zm14.6 0h1.217v1.217h-1.217zm-82.734 1.216h1.217v1.217h-1.217zm1.217 0h1.217v1.217h-1.217zm1.217 0h1.217v1.217h-1.217zm60.833 0h1.217v1.217h-1.217z"/><path d="M163.642 31.633h1.217v1.217h-1.217z"/><path d="M164.858 31.633h1.217v1.217h-1.217zm17.034 0h1.217v1.217h-1.217zM96.725 32.85h1.217v1.217h-1.217zm1.217 0h1.217v1.217h-1.217z"/><path d="M99.158 32.85h1.217v1.217h-1.217zm60.834 0h1.217v1.217h-1.217z"/><path d="M161.208 32.85h1.217v1.217h-1.217zm1.217 0h1.217v1.217h-1.217zm19.467 0h1.217v1.217h-1.217zm-86.384 1.217h1.217v1.217h-1.217zm1.217 0h1.217v1.217h-1.217zm62.05 0h1.217v1.217h-1.217z"/><path d="M159.992 34.067h1.217v1.217h-1.217zm21.9 0h1.217v1.217h-1.217zm-88.817 1.216h1.217V36.5h-1.217zm1.217 0h1.217V36.5h-1.217zm62.05 0h1.217V36.5h-1.217z"/><path d="M157.558 35.283h1.217V36.5h-1.217zm1.217 0h1.217V36.5h-1.217zm23.117 0h1.217V36.5h-1.217zM90.642 36.5h1.217v1.217h-1.217z"/><path d="M91.858 36.5h1.217v1.217h-1.217zm1.217 0h1.217v1.217h-1.217zm60.833 0h1.217v1.217h-1.217zm1.217 0h1.217v1.217h-1.217zm1.217 0h1.217v1.217h-1.217zm25.55 0h1.217v1.217h-1.217zm-93.684 1.217h1.217v1.217h-1.217zm1.217 0h1.217v1.217h-1.217zm1.217 0h1.217v1.217h-1.217zm60.833 0h1.217v1.217h-1.217zm1.217 0h1.217v1.217h-1.217z"/><path d="M153.908 37.717h1.217v1.217h-1.217zm27.984 0h1.217v1.217h-1.217zm-94.9 1.216h1.217v1.217h-1.217z"/><path d="M88.208 38.933h1.217v1.217h-1.217zm62.05 0h1.217v1.217h-1.217zm1.217 0h1.217v1.217h-1.217zm30.417 0h1.217v1.217h-1.217zM84.558 40.15h1.217v1.217h-1.217zm1.217 0h1.217v1.217h-1.217zm1.217 0h1.217v1.217h-1.217zm60.833 0h1.217v1.217h-1.217zm1.217 0h1.217v1.217h-1.217z"/><path d="M150.258 40.15h1.217v1.217h-1.217zm31.634 0h1.217v1.217h-1.217zm-99.767 1.217h1.217v1.217h-1.217zm1.217 0h1.217v1.217h-1.217z"/><path d="M84.558 41.367h1.217v1.217h-1.217zm60.834 0h1.217v1.217h-1.217z"/><path d="M146.608 41.367h1.217v1.217h-1.217z"/><path d="M147.825 41.367h1.217v1.217h-1.217zm34.067 0h1.217v1.217h-1.217zm-102.2 1.216h1.217V43.8h-1.217z"/><path d="M80.908 42.583h1.217V43.8h-1.217zm1.217 0h1.217V43.8h-1.217zm62.05 0h1.217V43.8h-1.217z"/><path d="M145.392 42.583h1.217V43.8h-1.217zm36.5 0h1.217V43.8h-1.217zM78.475 43.8h1.217v1.217h-1.217zm1.217 0h1.217v1.217h-1.217zm62.05 0h1.217v1.217h-1.217z"/><path d="M142.958 43.8h1.217v1.217h-1.217zm38.934 0h1.217v1.217h-1.217zm-105.85 1.217h1.217v1.217h-1.217z"/><path d="M77.258 45.017h1.217v1.217h-1.217zm1.217 0h1.217v1.217h-1.217zm60.833 0h1.217v1.217h-1.217zm1.217 0h1.217v1.217h-1.217z"/><path d="M141.742 45.017h1.217v1.217h-1.217zm40.15 0h1.217v1.217h-1.217zM73.608 46.233h1.217v1.217h-1.217zm1.217 0h1.217v1.217h-1.217zm1.217 0h1.217v1.217h-1.217zm60.833 0h1.217v1.217h-1.217zm1.217 0h1.217v1.217h-1.217z"/><path d="M139.308 46.233h1.217v1.217h-1.217zm42.584 0h1.217v1.217h-1.217zm-109.5 1.217h1.217v1.217h-1.217z"/><path d="M73.608 47.45h1.217v1.217h-1.217zm62.05 0h1.217v1.217h-1.217zm1.217 0h1.217v1.217h-1.217zm45.017 0h1.217v1.217h-1.217zM69.958 48.667h1.217v1.217h-1.217zm1.217 0h1.217v1.217h-1.217zm62.05 0h1.217v1.217h-1.217zm1.217 0h1.217v1.217h-1.217z"/><path d="M135.658 48.667h1.217v1.217h-1.217zm46.234 0h1.217v1.217h-1.217zM67.525 49.883h1.217V51.1h-1.217zm1.217 0h1.217V51.1h-1.217z"/><path d="M69.958 49.883h1.217V51.1h-1.217zm60.834 0h1.217V51.1h-1.217z"/><path d="M132.008 49.883h1.217V51.1h-1.217z"/><path d="M133.225 49.883h1.217V51.1h-1.217zm48.667 0h1.217V51.1h-1.217zM65.092 51.1h1.217v1.217h-1.217z"/><path d="M66.308 51.1h1.217v1.217h-1.217zm1.217 0h1.217v1.217h-1.217zm60.833 0h1.217v1.217h-1.217z"/><path d="M129.575 51.1h1.217v1.217h-1.217zm1.217 0h1.217v1.217h-1.217zm51.1 0h1.217v1.217h-1.217zM63.875 52.317h1.217v1.217h-1.217zm1.217 0h1.217v1.217h-1.217zm62.05 0h1.217v1.217h-1.217z"/><path d="M128.358 52.317h1.217v1.217h-1.217zm53.534 0h1.217v1.217h-1.217zm-120.45 1.216h1.217v1.217h-1.217z"/><path d="M62.658 53.533h1.217v1.217h-1.217zm1.217 0h1.217v1.217h-1.217zm60.833 0h1.217v1.217h-1.217zm1.217 0h1.217v1.217h-1.217zm1.217 0h1.217v1.217h-1.217zm34.066 0h1.217v1.217h-1.217zm1.217 0h1.217v1.217h-1.217z"/><path d="M163.642 53.533h1.217v1.217h-1.217zm18.25 0h1.217v1.217h-1.217zM59.008 54.75h1.217v1.217h-1.217zm1.217 0h1.217v1.217h-1.217zm1.217 0h1.217v1.217h-1.217zm60.833 0h1.217v1.217h-1.217zm1.217 0h1.217v1.217h-1.217z"/><path d="M124.708 54.75h1.217v1.217h-1.217zm35.284 0h1.217v1.217h-1.217z"/><path d="M161.208 54.75h1.217v1.217h-1.217zm1.217 0h1.217v1.217h-1.217z"/><path d="M163.642 54.75h1.217v1.217h-1.217zm18.25 0h1.217v1.217h-1.217zM56.575 55.967h1.217v1.217h-1.217zm1.217 0h1.217v1.217h-1.217z"/><path d="M59.008 55.967h1.217v1.217h-1.217zm60.834 0h1.217v1.217h-1.217z"/><path d="M121.058 55.967h1.217v1.217h-1.217zm1.217 0h1.217v1.217h-1.217zm35.283 0h1.217v1.217h-1.217zm1.217 0h1.217v1.217h-1.217z"/><path d="M159.992 55.967h1.217v1.217h-1.217zm2.433 0h1.217v1.217h-1.217zm1.217 0h1.217v1.217h-1.217zm18.25 0h1.217v1.217h-1.217zM55.358 57.183h1.217V58.4h-1.217zm1.217 0h1.217V58.4h-1.217zm62.05 0h1.217V58.4h-1.217zm1.217 0h1.217V58.4h-1.217zm35.283 0h1.217V58.4h-1.217zm1.217 0h1.217V58.4h-1.217z"/><path d="M157.558 57.183h1.217V58.4h-1.217zm4.867 0h1.217V58.4h-1.217zm1.217 0h1.217V58.4h-1.217zm18.25 0h1.217V58.4h-1.217zM52.925 58.4h1.217v1.217h-1.217zm1.217 0h1.217v1.217h-1.217z"/><path d="M55.358 58.4h1.217v1.217h-1.217zm60.834 0h1.217v1.217h-1.217z"/><path d="M117.408 58.4h1.217v1.217h-1.217zm1.217 0h1.217v1.217h-1.217zm34.067 0h1.217v1.217h-1.217z"/><path d="M153.908 58.4h1.217v1.217h-1.217zm1.217 0h1.217v1.217h-1.217zm7.3 0h1.217v1.217h-1.217z"/><path d="M163.642 58.4h1.217v1.217h-1.217zm18.25 0h1.217v1.217h-1.217zm-131.4 1.217h1.217v1.217h-1.217z"/><path d="M51.708 59.617h1.217v1.217h-1.217zm1.217 0h1.217v1.217h-1.217zm60.833 0h1.217v1.217h-1.217zm1.217 0h1.217v1.217h-1.217zm1.217 0h1.217v1.217h-1.217zm35.283 0h1.217v1.217h-1.217zm1.217 0h1.217v1.217h-1.217zm9.733 0h1.217v1.217h-1.217z"/><path d="M163.642 59.617h1.217v1.217h-1.217zm18.25 0h1.217v1.217h-1.217zM48.058 60.833h1.217v1.217h-1.217zm1.217 0h1.217v1.217h-1.217zm1.217 0h1.217v1.217h-1.217zm62.05 0h1.217v1.217h-1.217z"/><path d="M113.758 60.833h1.217v1.217h-1.217zm35.284 0h1.217v1.217h-1.217z"/><path d="M150.258 60.833h1.217v1.217h-1.217z"/><path d="M151.475 60.833h1.217v1.217h-1.217zm10.95 0h1.217v1.217h-1.217zm1.217 0h1.217v1.217h-1.217zm18.25 0h1.217v1.217h-1.217zM46.842 62.05h1.217v1.217h-1.217z"/><path d="M48.058 62.05h1.217v1.217h-1.217zm62.05 0h1.217v1.217h-1.217zm1.217 0h1.217v1.217h-1.217zm35.283 0h1.217v1.217h-1.217z"/><path d="M147.825 62.05h1.217v1.217h-1.217zm1.217 0h1.217v1.217h-1.217z"/><path d="M150.258 62.05h1.217v1.217h-1.217z"/><path d="M151.475 62.05h1.217v1.217h-1.217zm1.217 0h1.217v1.217h-1.217zm9.733 0h1.217v1.217h-1.217z"/><path d="M163.642 62.05h1.217v1.217h-1.217zm18.25 0h1.217v1.217h-1.217zM44.408 63.267h1.217v1.217h-1.217zm1.217 0h1.217v1.217h-1.217zm1.217 0h1.217v1.217h-1.217zm60.833 0h1.217v1.217h-1.217zm1.217 0h1.217v1.217h-1.217z"/><path d="M110.108 63.267h1.217v1.217h-1.217zm35.284 0h1.217v1.217h-1.217z"/><path d="M146.608 63.267h1.217v1.217h-1.217zm6.084 0h1.217v1.217h-1.217z"/><path d="M153.908 63.267h1.217v1.217h-1.217zm1.217 0h1.217v1.217h-1.217zm7.3 0h1.217v1.217h-1.217z"/><path d="M163.642 63.267h1.217v1.217h-1.217zm18.25 0h1.217v1.217h-1.217zM41.975 64.483h1.217V65.7h-1.217zm1.217 0h1.217V65.7h-1.217z"/><path d="M44.408 64.483h1.217V65.7h-1.217zm60.834 0h1.217V65.7h-1.217z"/><path d="M106.458 64.483h1.217V65.7h-1.217zm1.217 0h1.217V65.7h-1.217zm35.283 0h1.217V65.7h-1.217zm1.217 0h1.217V65.7h-1.217zm10.95 0h1.217V65.7h-1.217zm1.217 0h1.217V65.7h-1.217z"/><path d="M157.558 64.483h1.217V65.7h-1.217zm4.867 0h1.217V65.7h-1.217zm1.217 0h1.217V65.7h-1.217zm18.25 0h1.217V65.7h-1.217zM40.758 65.7h1.217v1.217h-1.217zm1.217 0h1.217v1.217h-1.217zm62.05 0h1.217v1.217h-1.217zm1.217 0h1.217v1.217h-1.217zm35.283 0h1.217v1.217h-1.217z"/><path d="M141.742 65.7h1.217v1.217h-1.217z"/><path d="M142.958 65.7h1.217v1.217h-1.217zm14.6 0h1.217v1.217h-1.217zm1.217 0h1.217v1.217h-1.217z"/><path d="M159.992 65.7h1.217v1.217h-1.217zm2.433 0h1.217v1.217h-1.217zm1.217 0h1.217v1.217h-1.217zm18.25 0h1.217v1.217h-1.217zM38.325 66.917h1.217v1.217h-1.217zm1.217 0h1.217v1.217h-1.217zm62.05 0h1.217v1.217h-1.217z"/><path d="M102.808 66.917h1.217v1.217h-1.217zm1.217 0h1.217v1.217h-1.217zm34.067 0h1.217v1.217h-1.217z"/><path d="M139.308 66.917h1.217v1.217h-1.217zm1.217 0h1.217v1.217h-1.217zm19.467 0h1.217v1.217h-1.217z"/><path d="M161.208 66.917h1.217v1.217h-1.217zm1.217 0h1.217v1.217h-1.217z"/><path d="M163.642 66.917h1.217v1.217h-1.217zm18.25 0h1.217v1.217h-1.217zm-146 1.216h1.217v1.217h-1.217z"/><path d="M37.108 68.133h1.217v1.217h-1.217zm1.217 0h1.217v1.217h-1.217zm60.833 0h1.217v1.217h-1.217zm1.217 0h1.217v1.217h-1.217zm1.217 0h1.217v1.217h-1.217zm35.283 0h1.217v1.217h-1.217zm1.217 0h1.217v1.217h-1.217zm23.116 0h1.217v1.217h-1.217zm1.217 0h1.217v1.217h-1.217zm19.467 0h1.217v1.217h-1.217zm-146 1.217h1.217v1.217h-1.217z"/><path d="M37.108 69.35h1.217v1.217h-1.217zm1.217 0h1.217v1.217h-1.217zm58.4 0h1.217v1.217h-1.217zm1.217 0h1.217v1.217h-1.217z"/><path d="M99.158 69.35h1.217v1.217h-1.217zm35.284 0h1.217v1.217h-1.217z"/><path d="M135.658 69.35h1.217v1.217h-1.217zm1.217 0h1.217v1.217h-1.217zm21.9 0h1.217v1.217h-1.217z"/><path d="M159.992 69.35h1.217v1.217h-1.217z"/><path d="M161.208 69.35h1.217v1.217h-1.217zm20.684 0h1.217v1.217h-1.217zm-146 1.217h1.217v1.217h-1.217zm2.433 0h1.217v1.217h-1.217zm1.217 0h1.217v1.217h-1.217z"/><path d="M40.758 70.567h1.217v1.217h-1.217zm54.75 0h1.217v1.217h-1.217zm1.217 0h1.217v1.217h-1.217zm35.283 0h1.217v1.217h-1.217z"/><path d="M133.225 70.567h1.217v1.217h-1.217zm1.217 0h1.217v1.217h-1.217zm21.9 0h1.217v1.217h-1.217z"/><path d="M157.558 70.567h1.217v1.217h-1.217zm1.217 0h1.217v1.217h-1.217zm23.117 0h1.217v1.217h-1.217zm-146 1.216h1.217V73h-1.217zm4.866 0h1.217V73h-1.217zm1.217 0h1.217V73h-1.217zm1.217 0h1.217V73h-1.217zm49.883 0h1.217V73h-1.217zm1.217 0h1.217V73h-1.217z"/><path d="M95.508 71.783h1.217V73h-1.217zm34.067 0h1.217V73h-1.217zm1.217 0h1.217V73h-1.217z"/><path d="M132.008 71.783h1.217V73h-1.217zm23.117 0h1.217V73h-1.217zm1.217 0h1.217V73h-1.217zm25.55 0h1.217V73h-1.217zM35.892 73h1.217v1.217h-1.217zm7.3 0h1.217v1.217h-1.217z"/><path d="M44.408 73h1.217v1.217h-1.217zm1.217 0h1.217v1.217h-1.217zm45.017 0h1.217v1.217h-1.217z"/><path d="M91.858 73h1.217v1.217h-1.217zm1.217 0h1.217v1.217h-1.217zm35.283 0h1.217v1.217h-1.217z"/><path d="M129.575 73h1.217v1.217h-1.217zm23.117 0h1.217v1.217h-1.217z"/><path d="M153.908 73h1.217v1.217h-1.217zm1.217 0h1.217v1.217h-1.217zm26.767 0h1.217v1.217h-1.217zm-146 1.217h1.217v1.217h-1.217zm9.733 0h1.217v1.217h-1.217zm1.217 0h1.217v1.217h-1.217z"/><path d="M48.058 74.217h1.217v1.217h-1.217zm40.15 0h1.217v1.217h-1.217zm1.217 0h1.217v1.217h-1.217zm1.217 0h1.217v1.217h-1.217zm35.283 0h1.217v1.217h-1.217zm1.217 0h1.217v1.217h-1.217z"/><path d="M128.358 74.217h1.217v1.217h-1.217zm21.9 0h1.217v1.217h-1.217z"/><path d="M151.475 74.217h1.217v1.217h-1.217zm1.217 0h1.217v1.217h-1.217zm29.2 0h1.217v1.217h-1.217zm-146 1.216h1.217v1.217h-1.217zm12.166 0h1.217v1.217h-1.217zm1.217 0h1.217v1.217h-1.217zm1.217 0h1.217v1.217h-1.217zm36.5 0h1.217v1.217h-1.217z"/><path d="M88.208 75.433h1.217v1.217h-1.217zm37.717 0h1.217v1.217h-1.217zm23.117 0h1.217v1.217h-1.217z"/><path d="M150.258 75.433h1.217v1.217h-1.217zm31.634 0h1.217v1.217h-1.217zm-146 1.217h1.217v1.217h-1.217zm14.6 0h1.217v1.217h-1.217z"/><path d="M51.708 76.65h1.217v1.217h-1.217zm1.217 0h1.217v1.217h-1.217zm31.633 0h1.217v1.217h-1.217zm1.217 0h1.217v1.217h-1.217zm1.217 0h1.217v1.217h-1.217zm38.933 0h1.217v1.217h-1.217zm20.683 0h1.217v1.217h-1.217zm1.217 0h1.217v1.217h-1.217zm34.067 0h1.217v1.217h-1.217zm-146 1.217h1.217v1.217h-1.217zm17.033 0h1.217v1.217h-1.217zm1.217 0h1.217v1.217h-1.217z"/><path d="M55.358 77.867h1.217v1.217h-1.217zm26.767 0h1.217v1.217h-1.217zm1.217 0h1.217v1.217h-1.217z"/><path d="M84.558 77.867h1.217v1.217h-1.217zm41.367 0h1.217v1.217h-1.217zm18.25 0h1.217v1.217h-1.217z"/><path d="M145.392 77.867h1.217v1.217h-1.217z"/><path d="M146.608 77.867h1.217v1.217h-1.217zm35.284 0h1.217v1.217h-1.217zm-146 1.216h1.217V80.3h-1.217zm19.466 0h1.217V80.3h-1.217zm1.217 0h1.217V80.3h-1.217zm1.217 0h1.217V80.3h-1.217zm23.116 0h1.217V80.3h-1.217zm1.217 0h1.217V80.3h-1.217zm43.8 0h1.217V80.3h-1.217zm15.817 0h1.217V80.3h-1.217z"/><path d="M142.958 79.083h1.217V80.3h-1.217zm1.217 0h1.217V80.3h-1.217zm37.717 0h1.217V80.3h-1.217zm-146 1.217h1.217v1.217h-1.217zm21.9 0h1.217v1.217h-1.217z"/><path d="M59.008 80.3h1.217v1.217h-1.217zm1.217 0h1.217v1.217h-1.217zm18.25 0h1.217v1.217h-1.217zm1.217 0h1.217v1.217h-1.217zm46.233 0h1.217v1.217h-1.217zm14.6 0h1.217v1.217h-1.217zm1.217 0h1.217v1.217h-1.217zm40.15 0h1.217v1.217h-1.217zm-146 1.217h1.217v1.217h-1.217zm24.333 0h1.217v1.217h-1.217zm1.217 0h1.217v1.217h-1.217z"/><path d="M62.658 81.517h1.217v1.217h-1.217zm13.384 0h1.217v1.217h-1.217z"/><path d="M77.258 81.517h1.217v1.217h-1.217zm1.217 0h1.217v1.217h-1.217zm47.45 0h1.217v1.217h-1.217zm12.167 0h1.217v1.217h-1.217z"/><path d="M139.308 81.517h1.217v1.217h-1.217zm42.584 0h1.217v1.217h-1.217zm-146 1.216h1.217v1.217h-1.217zm26.766 0h1.217v1.217h-1.217zm1.217 0h1.217v1.217h-1.217zm1.217 0h1.217v1.217h-1.217zm8.516 0h1.217v1.217h-1.217zm1.217 0h1.217v1.217h-1.217zm1.217 0h1.217v1.217h-1.217zm49.883 0h1.217v1.217h-1.217zm9.733 0h1.217v1.217h-1.217zm1.217 0h1.217v1.217h-1.217z"/><path d="M138.092 82.733h1.217v1.217h-1.217zm43.8 0h1.217v1.217h-1.217zm-146 1.217h1.217v1.217h-1.217zm29.2 0h1.217v1.217h-1.217z"/><path d="M66.308 83.95h1.217v1.217h-1.217zm1.217 0h1.217v1.217h-1.217zm4.867 0h1.217v1.217h-1.217z"/><path d="M73.608 83.95h1.217v1.217h-1.217zm52.317 0h1.217v1.217h-1.217zm7.3 0h1.217v1.217h-1.217zm1.217 0h1.217v1.217h-1.217z"/><path d="M135.658 83.95h1.217v1.217h-1.217zm46.234 0h1.217v1.217h-1.217zm-146 1.217h1.217v1.217h-1.217zm31.633 0h1.217v1.217h-1.217zm1.217 0h1.217v1.217h-1.217z"/><path d="M69.958 85.167h1.217v1.217h-1.217zm1.217 0h1.217v1.217h-1.217zm1.217 0h1.217v1.217h-1.217zm53.533 0h1.217v1.217h-1.217zm6.083 0h1.217v1.217h-1.217z"/><path d="M133.225 85.167h1.217v1.217h-1.217zm48.667 0h1.217v1.217h-1.217zm-146 1.216h1.217V87.6h-1.217zm34.066 0h1.217V87.6h-1.217zm55.967 0h1.217V87.6h-1.217zm3.65 0h1.217V87.6h-1.217zm1.217 0h1.217V87.6h-1.217z"/><path d="M132.008 86.383h1.217V87.6h-1.217zm49.884 0h1.217V87.6h-1.217zm-146 1.217h1.217v1.217h-1.217zm34.066 0h1.217v1.217h-1.217zm55.967 0h1.217v1.217h-1.217zm1.217 0h1.217v1.217h-1.217z"/><path d="M128.358 87.6h1.217v1.217h-1.217z"/><path d="M129.575 87.6h1.217v1.217h-1.217zm52.317 0h1.217v1.217h-1.217zm-146 1.217h1.217v1.217h-1.217zm34.066 0h1.217v1.217h-1.217zm55.967 0h1.217v1.217h-1.217zm1.217 0h1.217v1.217h-1.217zm54.75 0h1.217v1.217h-1.217z"/><path d="M35.892 90.033h1.217v1.217h-1.217zm34.066 0h1.217v1.217h-1.217zm111.934 0h1.217v1.217h-1.217zm-146 1.217h1.217v1.217h-1.217zm34.066 0h1.217v1.217h-1.217zm111.934 0h1.217v1.217h-1.217zm-146 1.217h1.217v1.217h-1.217zm34.066 0h1.217v1.217h-1.217zm98.55 0h1.217v1.217h-1.217z"/><path d="M169.725 92.467h1.217v1.217h-1.217zm12.167 0h1.217v1.217h-1.217zm-146 1.216h1.217V94.9h-1.217zm34.066 0h1.217V94.9h-1.217zm96.117 0h1.217V94.9h-1.217zm1.217 0h1.217V94.9h-1.217z"/><path d="M168.508 93.683h1.217V94.9h-1.217z"/><path d="M169.725 93.683h1.217V94.9h-1.217zm12.167 0h1.217V94.9h-1.217zm-146 1.217h1.217v1.217h-1.217zm34.066 0h1.217v1.217h-1.217zm93.684 0h1.217v1.217h-1.217z"/><path d="M164.858 94.9h1.217v1.217h-1.217z"/><path d="M166.075 94.9h1.217v1.217h-1.217zm2.433 0h1.217v1.217h-1.217zm1.217 0h1.217v1.217h-1.217zm12.167 0h1.217v1.217h-1.217zm-146 1.217h1.217v1.217h-1.217zm34.066 0h1.217v1.217h-1.217zm92.467 0h1.217v1.217h-1.217z"/><path d="M163.642 96.117h1.217v1.217h-1.217zm4.866 0h1.217v1.217h-1.217zm1.217 0h1.217v1.217h-1.217zm12.167 0h1.217v1.217h-1.217zm-146 1.216h1.217v1.217h-1.217zm34.066 0h1.217v1.217h-1.217zm90.034 0h1.217v1.217h-1.217z"/><path d="M161.208 97.333h1.217v1.217h-1.217zm1.217 0h1.217v1.217h-1.217zm6.083 0h1.217v1.217h-1.217z"/><path d="M169.725 97.333h1.217v1.217h-1.217zm12.167 0h1.217v1.217h-1.217zm-146 1.217h1.217v1.217h-1.217zm34.066 0h1.217v1.217h-1.217zm87.6 0h1.217v1.217h-1.217zm1.217 0h1.217v1.217h-1.217z"/><path d="M159.992 98.55h1.217v1.217h-1.217zm8.516 0h1.217v1.217h-1.217zm1.217 0h1.217v1.217h-1.217zm12.167 0h1.217v1.217h-1.217zm-146 1.217h1.217v1.217h-1.217zm34.066 0h1.217v1.217h-1.217zm85.167 0h1.217v1.217h-1.217zm1.217 0h1.217v1.217h-1.217z"/><path d="M157.558 99.767h1.217v1.217h-1.217zm10.95 0h1.217v1.217h-1.217zm1.217 0h1.217v1.217h-1.217zm12.167 0h1.217v1.217h-1.217zm-146 1.216h1.217v1.217h-1.217zm34.066 0h1.217v1.217h-1.217zm83.95 0h1.217v1.217h-1.217zm1.217 0h1.217v1.217h-1.217z"/><path d="M168.508 100.983h1.217v1.217h-1.217z"/><path d="M169.725 100.983h1.217v1.217h-1.217zm12.167 0h1.217v1.217h-1.217zm-146 1.217h1.217v1.217h-1.217zm34.066 0h1.217v1.217h-1.217zm81.517 0h1.217v1.217h-1.217zm1.217 0h1.217v1.217h-1.217z"/><path d="M153.908 102.2h1.217v1.217h-1.217zm14.6 0h1.217v1.217h-1.217zm1.217 0h1.217v1.217h-1.217zm12.167 0h1.217v1.217h-1.217zm-146 1.217h1.217v1.217h-1.217zm34.066 0h1.217v1.217h-1.217zm79.084 0h1.217v1.217h-1.217z"/><path d="M150.258 103.417h1.217v1.217h-1.217z"/><path d="M151.475 103.417h1.217v1.217h-1.217zm17.033 0h1.217v1.217h-1.217zm1.217 0h1.217v1.217h-1.217zm12.167 0h1.217v1.217h-1.217zm-146 1.216h1.217v1.217h-1.217zm34.066 0h1.217v1.217h-1.217zm77.867 0h1.217v1.217h-1.217zm1.217 0h1.217v1.217h-1.217z"/><path d="M168.508 104.633h1.217v1.217h-1.217z"/><path d="M169.725 104.633h1.217v1.217h-1.217zm12.167 0h1.217v1.217h-1.217zm-146 1.217h1.217v1.217h-1.217zm34.066 0h1.217v1.217h-1.217zm75.434 0h1.217v1.217h-1.217z"/><path d="M146.608 105.85h1.217v1.217h-1.217zm21.9 0h1.217v1.217h-1.217z"/><path d="M169.725 105.85h1.217v1.217h-1.217zm12.167 0h1.217v1.217h-1.217zm-146 1.217h1.217v1.217h-1.217zm34.066 0h1.217v1.217h-1.217zm73 0h1.217v1.217h-1.217zm1.217 0h1.217v1.217h-1.217z"/><path d="M145.392 107.067h1.217v1.217h-1.217zm23.116 0h1.217v1.217h-1.217zm1.217 0h1.217v1.217h-1.217zm12.167 0h1.217v1.217h-1.217zm-146 1.216h1.217v1.217h-1.217zm34.066 0h1.217v1.217h-1.217zm70.567 0h1.217v1.217h-1.217zm1.217 0h1.217v1.217h-1.217z"/><path d="M142.958 108.283h1.217v1.217h-1.217zm25.55 0h1.217v1.217h-1.217z"/><path d="M169.725 108.283h1.217v1.217h-1.217zm12.167 0h1.217v1.217h-1.217zm-146 1.217h1.217v1.217h-1.217zm34.066 0h1.217v1.217h-1.217zm69.35 0h1.217v1.217h-1.217zm1.217 0h1.217v1.217h-1.217zm27.983 0h1.217v1.217h-1.217z"/><path d="M169.725 109.5h1.217v1.217h-1.217zm12.167 0h1.217v1.217h-1.217zm-146 1.217h1.217v1.217h-1.217zm34.066 0h1.217v1.217h-1.217zm66.917 0h1.217v1.217h-1.217zm1.217 0h1.217v1.217h-1.217z"/><path d="M139.308 110.717h1.217v1.217h-1.217zm29.2 0h1.217v1.217h-1.217zm1.217 0h1.217v1.217h-1.217zm12.167 0h1.217v1.217h-1.217zm-146 1.216h1.217v1.217h-1.217zm34.066 0h1.217v1.217h-1.217zm64.484 0h1.217v1.217h-1.217z"/><path d="M135.658 111.933h1.217v1.217h-1.217zm1.217 0h1.217v1.217h-1.217zm31.633 0h1.217v1.217h-1.217z"/><path d="M169.725 111.933h1.217v1.217h-1.217zm12.167 0h1.217v1.217h-1.217zm-146 1.217h1.217v1.217h-1.217zm34.066 0h1.217v1.217h-1.217zm62.05 0h1.217v1.217h-1.217zm1.217 0h1.217v1.217h-1.217zm1.217 0h1.217v1.217h-1.217z"/><path d="M135.658 113.15h1.217v1.217h-1.217zm32.85 0h1.217v1.217h-1.217zm1.217 0h1.217v1.217h-1.217zm12.167 0h1.217v1.217h-1.217zm-146 1.217h1.217v1.217h-1.217zm34.066 0h1.217v1.217h-1.217zm60.834 0h1.217v1.217h-1.217z"/><path d="M132.008 114.367h1.217v1.217h-1.217zm3.65 0h1.217v1.217h-1.217zm32.85 0h1.217v1.217h-1.217z"/><path d="M169.725 114.367h1.217v1.217h-1.217zm12.167 0h1.217v1.217h-1.217zm-146 1.216h1.217v1.217h-1.217zm34.066 0h1.217v1.217h-1.217zm58.4 0h1.217v1.217h-1.217z"/><path d="M129.575 115.583h1.217v1.217h-1.217zm1.217 0h1.217v1.217h-1.217zm4.866 0h1.217v1.217h-1.217zm32.85 0h1.217v1.217h-1.217z"/><path d="M169.725 115.583h1.217v1.217h-1.217zm12.167 0h1.217v1.217h-1.217zm-146 1.217h1.217v1.217h-1.217zm34.066 0h1.217v1.217h-1.217zm55.967 0h1.217v1.217h-1.217zm1.217 0h1.217v1.217h-1.217z"/><path d="M128.358 116.8h1.217v1.217h-1.217zm7.3 0h1.217v1.217h-1.217zm32.85 0h1.217v1.217h-1.217z"/><path d="M169.725 116.8h1.217v1.217h-1.217zm12.167 0h1.217v1.217h-1.217zm-146 1.217h1.217v1.217h-1.217zm34.066 0h1.217v1.217h-1.217zm53.534 0h1.217v1.217h-1.217z"/><path d="M124.708 118.017h1.217v1.217h-1.217zm1.217 0h1.217v1.217h-1.217zm9.733 0h1.217v1.217h-1.217zm32.85 0h1.217v1.217h-1.217z"/><path d="M169.725 118.017h1.217v1.217h-1.217zm12.167 0h1.217v1.217h-1.217zm-146 1.216h1.217v1.217h-1.217zm34.066 0h1.217v1.217h-1.217zm52.317 0h1.217v1.217h-1.217zm1.217 0h1.217v1.217h-1.217zm12.166 0h1.217v1.217h-1.217z"/><path d="M168.508 119.233h1.217v1.217h-1.217z"/><path d="M169.725 119.233h1.217v1.217h-1.217zm12.167 0h1.217v1.217h-1.217zm-146 1.217h1.217v1.217h-1.217zm34.066 0h1.217v1.217h-1.217zm49.884 0h1.217v1.217h-1.217z"/><path d="M121.058 120.45h1.217v1.217h-1.217zm1.217 0h1.217v1.217h-1.217zm13.383 0h1.217v1.217h-1.217zm32.85 0h1.217v1.217h-1.217z"/><path d="M169.725 120.45h1.217v1.217h-1.217zm12.167 0h1.217v1.217h-1.217zm-146 1.217h1.217v1.217h-1.217zm34.066 0h1.217v1.217h-1.217zm47.45 0h1.217v1.217h-1.217zm1.217 0h1.217v1.217h-1.217zm1.217 0h1.217v1.217h-1.217zm15.816 0h1.217v1.217h-1.217zm32.85 0h1.217v1.217h-1.217z"/><path d="M169.725 121.667h1.217v1.217h-1.217zm12.167 0h1.217v1.217h-1.217zm-146 1.216h1.217v1.217h-1.217zm34.066 0h1.217v1.217h-1.217zm46.234 0h1.217v1.217h-1.217z"/><path d="M117.408 122.883h1.217v1.217h-1.217zm18.25 0h1.217v1.217h-1.217zm32.85 0h1.217v1.217h-1.217z"/><path d="M169.725 122.883h1.217v1.217h-1.217zm12.167 0h1.217v1.217h-1.217zm-146 1.217h1.217v1.217h-1.217zm34.066 0h1.217v1.217h-1.217zm43.8 0h1.217v1.217h-1.217zm1.217 0h1.217v1.217h-1.217zm20.683 0h1.217v1.217h-1.217zm32.85 0h1.217v1.217h-1.217zm1.217 0h1.217v1.217h-1.217zm12.167 0h1.217v1.217h-1.217zm-146 1.217h1.217v1.217h-1.217zm34.066 0h1.217v1.217h-1.217zm41.367 0h1.217v1.217h-1.217zm1.217 0h1.217v1.217h-1.217z"/><path d="M113.758 125.317h1.217v1.217h-1.217zm20.684 0h1.217v1.217h-1.217z"/><path d="M135.658 125.317h1.217v1.217h-1.217zm32.85 0h1.217v1.217h-1.217zm1.217 0h1.217v1.217h-1.217zm12.167 0h1.217v1.217h-1.217zm-146 1.216h1.217v1.217h-1.217zm34.066 0h1.217v1.217h-1.217zm38.934 0h1.217v1.217h-1.217z"/><path d="M110.108 126.533h1.217v1.217h-1.217zm1.217 0h1.217v1.217h-1.217zm20.683 0h1.217v1.217h-1.217z"/><path d="M133.225 126.533h1.217v1.217h-1.217zm1.217 0h1.217v1.217h-1.217zm2.433 0h1.217v1.217h-1.217zm1.217 0h1.217v1.217h-1.217zm30.416 0h1.217v1.217h-1.217z"/><path d="M169.725 126.533h1.217v1.217h-1.217zm12.167 0h1.217v1.217h-1.217zm-146 1.217h1.217v1.217h-1.217zm34.066 0h1.217v1.217h-1.217zm37.717 0h1.217v1.217h-1.217zm1.217 0h1.217v1.217h-1.217zm21.9 0h1.217v1.217h-1.217z"/><path d="M132.008 127.75h1.217v1.217h-1.217zm7.3 0h1.217v1.217h-1.217zm1.217 0h1.217v1.217h-1.217zm27.983 0h1.217v1.217h-1.217z"/><path d="M169.725 127.75h1.217v1.217h-1.217zm12.167 0h1.217v1.217h-1.217zm-146 1.217h1.217v1.217h-1.217zm34.066 0h1.217v1.217h-1.217zm35.284 0h1.217v1.217h-1.217z"/><path d="M106.458 128.967h1.217v1.217h-1.217zm1.217 0h1.217v1.217h-1.217zm20.683 0h1.217v1.217h-1.217z"/><path d="M129.575 128.967h1.217v1.217h-1.217zm12.167 0h1.217v1.217h-1.217z"/><path d="M142.958 128.967h1.217v1.217h-1.217zm25.55 0h1.217v1.217h-1.217z"/><path d="M169.725 128.967h1.217v1.217h-1.217zm12.167 0h1.217v1.217h-1.217zm-146 1.216h1.217v1.217h-1.217zm34.066 0h1.217v1.217h-1.217zm32.85 0h1.217v1.217h-1.217zm1.217 0h1.217v1.217h-1.217zm1.217 0h1.217v1.217h-1.217zm20.683 0h1.217v1.217h-1.217zm1.217 0h1.217v1.217h-1.217z"/><path d="M128.358 130.183h1.217v1.217h-1.217zm15.817 0h1.217v1.217h-1.217z"/><path d="M145.392 130.183h1.217v1.217h-1.217zm23.116 0h1.217v1.217h-1.217zm1.217 0h1.217v1.217h-1.217zm12.167 0h1.217v1.217h-1.217zm-146 1.217h1.217v1.217h-1.217zm34.066 0h1.217v1.217h-1.217zm30.417 0h1.217v1.217h-1.217zm1.217 0h1.217v1.217h-1.217z"/><path d="M102.808 131.4h1.217v1.217h-1.217zm20.684 0h1.217v1.217h-1.217z"/><path d="M124.708 131.4h1.217v1.217h-1.217zm1.217 0h1.217v1.217h-1.217zm20.683 0h1.217v1.217h-1.217z"/><path d="M147.825 131.4h1.217v1.217h-1.217zm20.683 0h1.217v1.217h-1.217zm1.217 0h1.217v1.217h-1.217zm12.167 0h1.217v1.217h-1.217zm-146 1.217h1.217v1.217h-1.217zm34.066 0h1.217v1.217h-1.217zm29.2 0h1.217v1.217h-1.217zm1.217 0h1.217v1.217h-1.217zm21.9 0h1.217v1.217h-1.217zm1.217 0h1.217v1.217h-1.217zm25.55 0h1.217v1.217h-1.217z"/><path d="M150.258 132.617h1.217v1.217h-1.217zm18.25 0h1.217v1.217h-1.217z"/><path d="M169.725 132.617h1.217v1.217h-1.217zm12.167 0h1.217v1.217h-1.217zm-146 1.216h1.217v1.217h-1.217zm34.066 0h1.217v1.217h-1.217zm26.767 0h1.217v1.217h-1.217zm1.217 0h1.217v1.217h-1.217z"/><path d="M99.158 133.833h1.217v1.217h-1.217zm20.684 0h1.217v1.217h-1.217z"/><path d="M121.058 133.833h1.217v1.217h-1.217zm1.217 0h1.217v1.217h-1.217zm29.2 0h1.217v1.217h-1.217zm1.217 0h1.217v1.217h-1.217zm15.816 0h1.217v1.217h-1.217z"/><path d="M169.725 133.833h1.217v1.217h-1.217zm12.167 0h1.217v1.217h-1.217zm-146 1.217h1.217v1.217h-1.217zm34.066 0h1.217v1.217h-1.217zm24.334 0h1.217v1.217h-1.217z"/><path d="M95.508 135.05h1.217v1.217h-1.217zm1.217 0h1.217v1.217h-1.217zm20.683 0h1.217v1.217h-1.217zm1.217 0h1.217v1.217h-1.217zm1.217 0h1.217v1.217h-1.217zm34.066 0h1.217v1.217h-1.217zm1.217 0h1.217v1.217h-1.217zm13.383 0h1.217v1.217h-1.217z"/><path d="M169.725 135.05h1.217v1.217h-1.217zm12.167 0h1.217v1.217h-1.217zm-146 1.217h1.217v1.217h-1.217zm34.066 0h1.217v1.217h-1.217zm21.9 0h1.217v1.217h-1.217zm1.217 0h1.217v1.217h-1.217zm1.217 0h1.217v1.217h-1.217zm20.683 0h1.217v1.217h-1.217zm1.217 0h1.217v1.217h-1.217z"/><path d="M117.408 136.267h1.217v1.217h-1.217zm38.934 0h1.217v1.217h-1.217z"/><path d="M157.558 136.267h1.217v1.217h-1.217zm10.95 0h1.217v1.217h-1.217zm1.217 0h1.217v1.217h-1.217zm12.167 0h1.217v1.217h-1.217zm-146 1.216h1.217v1.217h-1.217zm34.066 0h1.217v1.217h-1.217zm20.684 0h1.217v1.217h-1.217z"/><path d="M91.858 137.483h1.217v1.217h-1.217zm21.9 0h1.217v1.217h-1.217zm1.217 0h1.217v1.217h-1.217zm43.8 0h1.217v1.217h-1.217z"/><path d="M159.992 137.483h1.217v1.217h-1.217zm8.516 0h1.217v1.217h-1.217zm1.217 0h1.217v1.217h-1.217zm12.167 0h1.217v1.217h-1.217zm-146 1.217h1.217v1.217h-1.217zm34.066 0h1.217v1.217h-1.217zm18.25 0h1.217v1.217h-1.217zm1.217 0h1.217v1.217h-1.217zm1.217 0h1.217v1.217h-1.217zm20.683 0h1.217v1.217h-1.217zm1.217 0h1.217v1.217h-1.217z"/><path d="M113.758 138.7h1.217v1.217h-1.217zm47.45 0h1.217v1.217h-1.217zm1.217 0h1.217v1.217h-1.217zm6.083 0h1.217v1.217h-1.217z"/><path d="M169.725 138.7h1.217v1.217h-1.217zm12.167 0h1.217v1.217h-1.217zm-146 1.217h1.217v1.217h-1.217zm34.066 0h1.217v1.217h-1.217zm15.817 0h1.217v1.217h-1.217zm1.217 0h1.217v1.217h-1.217z"/><path d="M88.208 139.917h1.217v1.217h-1.217zm20.684 0h1.217v1.217h-1.217z"/><path d="M110.108 139.917h1.217v1.217h-1.217zm1.217 0h1.217v1.217h-1.217zm52.317 0h1.217v1.217h-1.217z"/><path d="M164.858 139.917h1.217v1.217h-1.217zm3.65 0h1.217v1.217h-1.217z"/><path d="M169.725 139.917h1.217v1.217h-1.217zm12.167 0h1.217v1.217h-1.217zm-146 1.216h1.217v1.217h-1.217zm34.066 0h1.217v1.217h-1.217zm14.6 0h1.217v1.217h-1.217zm1.217 0h1.217v1.217h-1.217zm21.9 0h1.217v1.217h-1.217zm1.217 0h1.217v1.217h-1.217zm57.183 0h1.217v1.217h-1.217zm1.217 0h1.217v1.217h-1.217z"/><path d="M168.508 141.133h1.217v1.217h-1.217z"/><path d="M169.725 141.133h1.217v1.217h-1.217zm12.167 0h1.217v1.217h-1.217zm-146 1.217h1.217v1.217h-1.217zm34.066 0h1.217v1.217h-1.217zm12.167 0h1.217v1.217h-1.217zm1.217 0h1.217v1.217h-1.217zm21.9 0h1.217v1.217h-1.217z"/><path d="M106.458 142.35h1.217v1.217h-1.217zm62.05 0h1.217v1.217h-1.217zm1.217 0h1.217v1.217h-1.217zm12.167 0h1.217v1.217h-1.217zm-146 1.217h1.217v1.217h-1.217zm34.066 0h1.217v1.217h-1.217zm12.167 0h1.217v1.217h-1.217zm20.683 0h1.217v1.217h-1.217zm1.217 0h1.217v1.217h-1.217zm1.217 0h1.217v1.217h-1.217zm60.833 0h1.217v1.217h-1.217zm1.217 0h1.217v1.217h-1.217z"/><path d="M168.508 143.567h1.217v1.217h-1.217zm13.384 0h1.217v1.217h-1.217zm-146 1.216h1.217V146h-1.217zm34.066 0h1.217V146h-1.217zm12.167 0h1.217V146h-1.217zm18.25 0h1.217V146h-1.217zm1.217 0h1.217V146h-1.217z"/><path d="M102.808 144.783h1.217V146h-1.217zm60.834 0h1.217V146h-1.217z"/><path d="M164.858 144.783h1.217V146h-1.217z"/><path d="M166.075 144.783h1.217V146h-1.217zm15.817 0h1.217V146h-1.217zm-146 1.217h1.217v1.217h-1.217zm34.066 0h1.217v1.217h-1.217zm12.167 0h1.217v1.217h-1.217zm17.033 0h1.217v1.217h-1.217zm1.217 0h1.217v1.217h-1.217zm62.05 0h1.217v1.217h-1.217z"/><path d="M163.642 146h1.217v1.217h-1.217zm18.25 0h1.217v1.217h-1.217zm-146 1.217h1.217v1.217h-1.217zm34.066 0h1.217v1.217h-1.217zm12.167 0h1.217v1.217h-1.217zm14.6 0h1.217v1.217h-1.217zm1.217 0h1.217v1.217h-1.217z"/><path d="M99.158 147.217h1.217v1.217h-1.217zm60.834 0h1.217v1.217h-1.217z"/><path d="M161.208 147.217h1.217v1.217h-1.217zm1.217 0h1.217v1.217h-1.217zm19.467 0h1.217v1.217h-1.217zm-146 1.216h1.217v1.217h-1.217zm34.066 0h1.217v1.217h-1.217zm12.167 0h1.217v1.217h-1.217zm12.167 0h1.217v1.217h-1.217z"/><path d="M95.508 148.433h1.217v1.217h-1.217zm1.217 0h1.217v1.217h-1.217zm60.833 0h1.217v1.217h-1.217zm1.217 0h1.217v1.217h-1.217z"/><path d="M159.992 148.433h1.217v1.217h-1.217zm21.9 0h1.217v1.217h-1.217zm-146 1.217h1.217v1.217h-1.217zm34.066 0h1.217v1.217h-1.217zm12.167 0h1.217v1.217h-1.217zm9.733 0h1.217v1.217h-1.217zm1.217 0h1.217v1.217h-1.217zm1.217 0h1.217v1.217h-1.217zm60.833 0h1.217v1.217h-1.217zm1.217 0h1.217v1.217h-1.217z"/><path d="M157.558 149.65h1.217v1.217h-1.217zm23.117 0h1.217v1.217h-1.217zm1.217 0h1.217v1.217h-1.217zm-146 1.217h1.217v1.217h-1.217zm34.066 0h1.217v1.217h-1.217zm12.167 0h1.217v1.217h-1.217zm8.517 0h1.217v1.217h-1.217z"/><path d="M91.858 150.867h1.217v1.217h-1.217zm62.05 0h1.217v1.217h-1.217zm1.217 0h1.217v1.217h-1.217zm23.117 0h1.217v1.217h-1.217z"/><path d="M179.458 150.867h1.217v1.217h-1.217zm1.217 0h1.217v1.217h-1.217zm-144.783 1.216h1.217v1.217h-1.217zm34.066 0h1.217v1.217h-1.217zm12.167 0h1.217v1.217h-1.217zm6.083 0h1.217v1.217h-1.217zm1.217 0h1.217v1.217h-1.217zm1.217 0h1.217v1.217h-1.217zm60.833 0h1.217v1.217h-1.217zm1.217 0h1.217v1.217h-1.217z"/><path d="M153.908 152.083h1.217v1.217h-1.217zm21.9 0h1.217v1.217h-1.217zm1.217 0h1.217v1.217h-1.217z"/><path d="M178.242 152.083h1.217v1.217h-1.217zM35.892 153.3h1.217v1.217h-1.217zm34.066 0h1.217v1.217h-1.217zm12.167 0h1.217v1.217h-1.217zm3.65 0h1.217v1.217h-1.217zm1.217 0h1.217v1.217h-1.217z"/><path d="M88.208 153.3h1.217v1.217h-1.217zm60.834 0h1.217v1.217h-1.217z"/><path d="M150.258 153.3h1.217v1.217h-1.217z"/><path d="M151.475 153.3h1.217v1.217h-1.217zm23.117 0h1.217v1.217h-1.217z"/><path d="M175.808 153.3h1.217v1.217h-1.217zm-139.916 1.217h1.217v1.217h-1.217zm34.066 0h1.217v1.217h-1.217zm12.167 0h1.217v1.217h-1.217zm1.217 0h1.217v1.217h-1.217z"/><path d="M84.558 154.517h1.217v1.217h-1.217zm1.217 0h1.217v1.217h-1.217zm62.05 0h1.217v1.217h-1.217zm1.217 0h1.217v1.217h-1.217zm23.116 0h1.217v1.217h-1.217zm1.217 0h1.217v1.217h-1.217zm-137.483 1.216h1.217v1.217h-1.217zm34.066 0h1.217v1.217h-1.217zm12.167 0h1.217v1.217h-1.217z"/><path d="M83.342 155.733h1.217v1.217h-1.217zm62.05 0h1.217v1.217h-1.217z"/><path d="M146.608 155.733h1.217v1.217h-1.217zm23.117 0h1.217v1.217h-1.217zm1.217 0h1.217v1.217h-1.217z"/><path d="M172.158 155.733h1.217v1.217h-1.217zM35.892 156.95h1.217v1.217h-1.217zm34.066 0h1.217v1.217h-1.217zm12.167 0h1.217v1.217h-1.217zm60.833 0h1.217v1.217h-1.217zm1.217 0h1.217v1.217h-1.217z"/><path d="M145.392 156.95h1.217v1.217h-1.217zm21.9 0h1.217v1.217h-1.217z"/><path d="M168.508 156.95h1.217v1.217h-1.217z"/><path d="M169.725 156.95h1.217v1.217h-1.217zm-133.833 1.217h1.217v1.217h-1.217zm34.066 0h1.217v1.217h-1.217zm12.167 0h1.217v1.217h-1.217zm58.4 0h1.217v1.217h-1.217z"/><path d="M141.742 158.167h1.217v1.217h-1.217z"/><path d="M142.958 158.167h1.217v1.217h-1.217zm23.117 0h1.217v1.217h-1.217zm1.217 0h1.217v1.217h-1.217zm-131.4 1.216h1.217v1.217h-1.217zm34.066 0h1.217v1.217h-1.217zm12.167 0h1.217v1.217h-1.217zm57.183 0h1.217v1.217h-1.217zm1.217 0h1.217v1.217h-1.217zm23.117 0h1.217v1.217h-1.217z"/><path d="M164.858 159.383h1.217v1.217h-1.217z"/><path d="M166.075 159.383h1.217v1.217h-1.217zM35.892 160.6h1.217v1.217h-1.217zm34.066 0h1.217v1.217h-1.217zm12.167 0h1.217v1.217h-1.217zm54.75 0h1.217v1.217h-1.217zm1.217 0h1.217v1.217h-1.217z"/><path d="M139.308 160.6h1.217v1.217h-1.217zm21.9 0h1.217v1.217h-1.217zm1.217 0h1.217v1.217h-1.217z"/><path d="M163.642 160.6h1.217v1.217h-1.217zm-127.75 1.217h1.217v1.217h-1.217zm34.066 0h1.217v1.217h-1.217zm12.167 0h1.217v1.217h-1.217zm52.317 0h1.217v1.217h-1.217z"/><path d="M135.658 161.817h1.217v1.217h-1.217zm1.217 0h1.217v1.217h-1.217zm21.9 0h1.217v1.217h-1.217z"/><path d="M159.992 161.817h1.217v1.217h-1.217z"/><path d="M161.208 161.817h1.217v1.217h-1.217zm-125.316 1.216h1.217v1.217h-1.217zm34.066 0h1.217v1.217h-1.217zm12.167 0h1.217v1.217h-1.217zm49.883 0h1.217v1.217h-1.217z"/><path d="M133.225 163.033h1.217v1.217h-1.217zm1.217 0h1.217v1.217h-1.217zm23.116 0h1.217v1.217h-1.217zm1.217 0h1.217v1.217h-1.217zM35.892 164.25h1.217v1.217h-1.217zm34.066 0h1.217v1.217h-1.217zm12.167 0h1.217v1.217h-1.217zm48.667 0h1.217v1.217h-1.217z"/><path d="M132.008 164.25h1.217v1.217h-1.217zm23.117 0h1.217v1.217h-1.217zm1.217 0h1.217v1.217h-1.217z"/><path d="M157.558 164.25h1.217v1.217h-1.217zm-121.666 1.217h1.217v1.217h-1.217zm34.066 0h1.217v1.217h-1.217zm12.167 0h1.217v1.217h-1.217zm46.233 0h1.217v1.217h-1.217z"/><path d="M129.575 165.467h1.217v1.217h-1.217zm1.217 0h1.217v1.217h-1.217zm21.9 0h1.217v1.217h-1.217z"/><path d="M153.908 165.467h1.217v1.217h-1.217zm1.217 0h1.217v1.217h-1.217zm-119.233 1.216h1.217v1.217h-1.217zm34.066 0h1.217v1.217h-1.217zm12.167 0h1.217v1.217h-1.217zm43.8 0h1.217v1.217h-1.217zm1.217 0h1.217v1.217h-1.217z"/><path d="M128.358 166.683h1.217v1.217h-1.217zm23.117 0h1.217v1.217h-1.217zm1.217 0h1.217v1.217h-1.217zm-116.8 1.217h1.217v1.217h-1.217zm34.066 0h1.217v1.217h-1.217zm12.167 0h1.217v1.217h-1.217zm41.367 0h1.217v1.217h-1.217z"/><path d="M124.708 167.9h1.217v1.217h-1.217zm1.217 0h1.217v1.217h-1.217zm23.117 0h1.217v1.217h-1.217z"/><path d="M150.258 167.9h1.217v1.217h-1.217zm-114.366 1.217h1.217v1.217h-1.217zm34.066 0h1.217v1.217h-1.217zm12.167 0h1.217v1.217h-1.217zm40.15 0h1.217v1.217h-1.217zm1.217 0h1.217v1.217h-1.217zm23.116 0h1.217v1.217h-1.217z"/><path d="M147.825 169.117h1.217v1.217h-1.217zm1.217 0h1.217v1.217h-1.217zm-113.15 1.216h1.217v1.217h-1.217zm34.066 0h1.217v1.217h-1.217zm12.167 0h1.217v1.217h-1.217zm37.717 0h1.217v1.217h-1.217z"/><path d="M121.058 170.333h1.217v1.217h-1.217zm1.217 0h1.217v1.217h-1.217zm21.9 0h1.217v1.217h-1.217z"/><path d="M145.392 170.333h1.217v1.217h-1.217z"/><path d="M146.608 170.333h1.217v1.217h-1.217zM35.892 171.55h1.217v1.217h-1.217zm34.066 0h1.217v1.217h-1.217zm12.167 0h1.217v1.217h-1.217zm35.283 0h1.217v1.217h-1.217zm1.217 0h1.217v1.217h-1.217zm1.217 0h1.217v1.217h-1.217zm23.116 0h1.217v1.217h-1.217zm1.217 0h1.217v1.217h-1.217z"/><path d="M35.892 172.767h1.217v1.217h-1.217zm34.066 0h1.217v1.217h-1.217zm12.167 0h1.217v1.217h-1.217zm34.067 0h1.217v1.217h-1.217z"/><path d="M117.408 172.767h1.217v1.217h-1.217zm23.117 0h1.217v1.217h-1.217z"/><path d="M141.742 172.767h1.217v1.217h-1.217z"/><path d="M142.958 172.767h1.217v1.217h-1.217zm-107.066 1.216h1.217v1.217h-1.217zm34.066 0h1.217v1.217h-1.217zm12.167 0h1.217v1.217h-1.217zm31.633 0h1.217v1.217h-1.217zm1.217 0h1.217v1.217h-1.217zm23.117 0h1.217v1.217h-1.217z"/><path d="M139.308 173.983h1.217v1.217h-1.217zm1.217 0h1.217v1.217h-1.217zM35.892 175.2h1.217v1.217h-1.217zm34.066 0h1.217v1.217h-1.217zm12.167 0h1.217v1.217h-1.217zm29.2 0h1.217v1.217h-1.217zm1.217 0h1.217v1.217h-1.217z"/><path d="M113.758 175.2h1.217v1.217h-1.217zm21.9 0h1.217v1.217h-1.217zm1.217 0h1.217v1.217h-1.217zm1.217 0h1.217v1.217h-1.217zm-102.2 1.217h1.217v1.217h-1.217zm34.066 0h1.217v1.217h-1.217zm12.167 0h1.217v1.217h-1.217zm26.767 0h1.217v1.217h-1.217z"/><path d="M110.108 176.417h1.217v1.217h-1.217zm1.217 0h1.217v1.217h-1.217zm23.117 0h1.217v1.217h-1.217z"/><path d="M135.658 176.417h1.217v1.217h-1.217zm-99.766 1.216h1.217v1.217h-1.217zm34.066 0h1.217v1.217h-1.217zm12.167 0h1.217v1.217h-1.217zm25.55 0h1.217v1.217h-1.217zm1.217 0h1.217v1.217h-1.217zm23.116 0h1.217v1.217h-1.217z"/><path d="M133.225 177.633h1.217v1.217h-1.217zm1.217 0h1.217v1.217h-1.217zm-98.55 1.217h1.217v1.217h-1.217zm34.066 0h1.217v1.217h-1.217zm12.167 0h1.217v1.217h-1.217zm23.117 0h1.217v1.217h-1.217z"/><path d="M106.458 178.85h1.217v1.217h-1.217zm1.217 0h1.217v1.217h-1.217zm21.9 0h1.217v1.217h-1.217zm1.217 0h1.217v1.217h-1.217z"/><path d="M132.008 178.85h1.217v1.217h-1.217zm-96.116 1.217h1.217v1.217h-1.217zm34.066 0h1.217v1.217h-1.217zm12.167 0h1.217v1.217h-1.217zm20.683 0h1.217v1.217h-1.217zm1.217 0h1.217v1.217h-1.217zm1.217 0h1.217v1.217h-1.217zm21.9 0h1.217v1.217h-1.217z"/><path d="M128.358 180.067h1.217v1.217h-1.217z"/><path d="M129.575 180.067h1.217v1.217h-1.217zm-93.683 1.216h1.217v1.217h-1.217zm34.066 0h1.217v1.217h-1.217zm12.167 0h1.217v1.217h-1.217zm18.25 0h1.217v1.217h-1.217zm1.217 0h1.217v1.217h-1.217z"/><path d="M102.808 181.283h1.217v1.217h-1.217zm23.117 0h1.217v1.217h-1.217zm1.217 0h1.217v1.217h-1.217zm-91.25 1.217h1.217v1.217h-1.217zm34.066 0h1.217v1.217h-1.217zm12.167 0h1.217v1.217h-1.217zm17.033 0h1.217v1.217h-1.217zm1.217 0h1.217v1.217h-1.217zm23.117 0h1.217v1.217h-1.217z"/><path d="M124.708 182.5h1.217v1.217h-1.217zm1.217 0h1.217v1.217h-1.217zm-90.033 1.217h1.217v1.217h-1.217zm34.066 0h1.217v1.217h-1.217zm12.167 0h1.217v1.217h-1.217zm14.6 0h1.217v1.217h-1.217zm1.217 0h1.217v1.217h-1.217z"/><path d="M99.158 183.717h1.217v1.217h-1.217zm21.9 0h1.217v1.217h-1.217zm1.217 0h1.217v1.217h-1.217zm1.217 0h1.217v1.217h-1.217zm-87.6 1.216h1.217v1.217h-1.217zm34.066 0h1.217v1.217h-1.217zm12.167 0h1.217v1.217h-1.217zm12.167 0h1.217v1.217h-1.217z"/><path d="M95.508 184.933h1.217v1.217h-1.217zm1.217 0h1.217v1.217h-1.217zm23.117 0h1.217v1.217h-1.217z"/><path d="M121.058 184.933h1.217v1.217h-1.217zm-85.166 1.217h1.217v1.217h-1.217zm34.066 0h1.217v1.217h-1.217zm12.167 0h1.217v1.217h-1.217zm10.95 0h1.217v1.217h-1.217zm1.217 0h1.217v1.217h-1.217zm23.116 0h1.217v1.217h-1.217zm1.217 0h1.217v1.217h-1.217z"/><path d="M35.892 187.367h1.217v1.217h-1.217zm34.066 0h1.217v1.217h-1.217zm12.167 0h1.217v1.217h-1.217zm8.517 0h1.217v1.217h-1.217z"/><path d="M91.858 187.367h1.217v1.217h-1.217zm23.117 0h1.217v1.217h-1.217zm1.217 0h1.217v1.217h-1.217z"/><path d="M117.408 187.367h1.217v1.217h-1.217zm-81.516 1.216h1.217v1.217h-1.217zm34.066 0h1.217v1.217h-1.217zm12.167 0h1.217v1.217h-1.217zm6.083 0h1.217v1.217h-1.217zm1.217 0h1.217v1.217h-1.217zm1.217 0h1.217v1.217h-1.217zm21.9 0h1.217v1.217h-1.217z"/><path d="M113.758 188.583h1.217v1.217h-1.217zm1.217 0h1.217v1.217h-1.217zM35.892 189.8h1.217v1.217h-1.217zm34.066 0h1.217v1.217h-1.217zm12.167 0h1.217v1.217h-1.217zm3.65 0h1.217v1.217h-1.217zm1.217 0h1.217v1.217h-1.217z"/><path d="M88.208 189.8h1.217v1.217h-1.217zm23.117 0h1.217v1.217h-1.217zm1.217 0h1.217v1.217h-1.217zm-76.65 1.217h1.217v1.217h-1.217zm34.066 0h1.217v1.217h-1.217zm12.167 0h1.217v1.217h-1.217zm2.433 0h1.217v1.217h-1.217zm1.217 0h1.217v1.217h-1.217zm23.117 0h1.217v1.217h-1.217z"/><path d="M110.108 191.017h1.217v1.217h-1.217zm1.217 0h1.217v1.217h-1.217zm-75.433 1.216h1.217v1.217h-1.217zm34.066 0h1.217v1.217h-1.217zm12.167 0h1.217v1.217h-1.217zm1.217 0h1.217v1.217h-1.217z"/><path d="M84.558 192.233h1.217v1.217h-1.217zm21.9 0h1.217v1.217h-1.217zm1.217 0h1.217v1.217h-1.217zm1.217 0h1.217v1.217h-1.217zm-73 1.217h1.217v1.217h-1.217zm34.066 0h1.217v1.217h-1.217zm34.067 0h1.217v1.217h-1.217z"/><path d="M105.242 193.45h1.217v1.217h-1.217z"/><path d="M106.458 193.45h1.217v1.217h-1.217zm-70.566 1.217h1.217v1.217h-1.217zm34.066 0h1.217v1.217h-1.217zm32.85 0h1.217v1.217h-1.217zm1.217 0h1.217v1.217h-1.217z"/><path d="M35.892 195.883h1.217v1.217h-1.217zm34.066 0h1.217v1.217h-1.217zm30.417 0h1.217v1.217h-1.217zm1.217 0h1.217v1.217h-1.217z"/><path d="M102.808 195.883h1.217v1.217h-1.217zM35.892 197.1h1.217v1.217h-1.217z"/><path d="M37.108 197.1h1.217v1.217h-1.217zm32.85 0h1.217v1.217h-1.217zm27.984 0h1.217v1.217h-1.217z"/><path d="M99.158 197.1h1.217v1.217h-1.217zm1.217 0h1.217v1.217h-1.217zm-63.267 1.217h1.217v1.217h-1.217zm1.217 0h1.217v1.217h-1.217zm1.217 0h1.217v1.217h-1.217zm30.416 0h1.217v1.217h-1.217zm25.55 0h1.217v1.217h-1.217zm1.217 0h1.217v1.217h-1.217zm1.217 0h1.217v1.217h-1.217z"/><path d="M39.542 199.533h1.217v1.217h-1.217z"/><path d="M40.758 199.533h1.217v1.217h-1.217zm1.217 0h1.217v1.217h-1.217zm27.983 0h1.217v1.217h-1.217zm24.334 0h1.217v1.217h-1.217z"/><path d="M95.508 199.533h1.217v1.217h-1.217zm-53.533 1.217h1.217v1.217h-1.217zm1.217 0h1.217v1.217h-1.217z"/><path d="M44.408 200.75h1.217v1.217h-1.217zm25.55 0h1.217v1.217h-1.217zm21.9 0h1.217v1.217h-1.217zm1.217 0h1.217v1.217h-1.217zm1.217 0h1.217v1.217h-1.217zm-49.884 1.217h1.217v1.217h-1.217zm1.217 0h1.217v1.217h-1.217zm1.217 0h1.217v1.217h-1.217zm23.116 0h1.217v1.217h-1.217zm19.467 0h1.217v1.217h-1.217zm1.217 0h1.217v1.217h-1.217z"/><path d="M91.858 201.967h1.217v1.217h-1.217zm-45.016 1.216h1.217v1.217h-1.217z"/><path d="M48.058 203.183h1.217v1.217h-1.217zm1.217 0h1.217v1.217h-1.217zm20.683 0h1.217v1.217h-1.217zm18.25 0h1.217v1.217h-1.217zm1.217 0h1.217v1.217h-1.217zm-40.15 1.217h1.217v1.217h-1.217zm1.217 0h1.217v1.217h-1.217z"/><path d="M51.708 204.4h1.217v1.217h-1.217zm18.25 0h1.217v1.217h-1.217zm15.817 0h1.217v1.217h-1.217zm1.217 0h1.217v1.217h-1.217z"/><path d="M51.708 205.617h1.217v1.217h-1.217zm1.217 0h1.217v1.217h-1.217zm1.217 0h1.217v1.217h-1.217zm15.816 0h1.217v1.217h-1.217zm13.384 0h1.217v1.217h-1.217z"/><path d="M84.558 205.617h1.217v1.217h-1.217zm1.217 0h1.217v1.217h-1.217zm-31.633 1.216h1.217v1.217h-1.217z"/><path d="M55.358 206.833h1.217v1.217h-1.217zm1.217 0h1.217v1.217h-1.217zm13.383 0h1.217v1.217h-1.217zm10.95 0h1.217v1.217h-1.217zm1.217 0h1.217v1.217h-1.217zm1.217 0h1.217v1.217h-1.217zm-26.767 1.217h1.217v1.217h-1.217zm1.217 0h1.217v1.217h-1.217z"/><path d="M59.008 208.05h1.217v1.217h-1.217zm10.95 0h1.217v1.217h-1.217zm9.734 0h1.217v1.217h-1.217z"/><path d="M80.908 208.05h1.217v1.217h-1.217zm-21.9 1.217h1.217v1.217h-1.217zm1.217 0h1.217v1.217h-1.217zm1.217 0h1.217v1.217h-1.217zm8.516 0h1.217v1.217h-1.217zm7.3 0h1.217v1.217h-1.217zm1.217 0h1.217v1.217h-1.217z"/><path d="M79.692 209.267h1.217v1.217h-1.217zm-18.25 1.216h1.217v1.217h-1.217z"/><path d="M62.658 210.483h1.217v1.217h-1.217zm1.217 0h1.217v1.217h-1.217zm6.083 0h1.217v1.217h-1.217zm4.867 0h1.217v1.217h-1.217zm1.217 0h1.217v1.217h-1.217z"/><path d="M77.258 210.483h1.217v1.217h-1.217zM63.875 211.7h1.217v1.217h-1.217zm1.217 0h1.217v1.217h-1.217z"/><path d="M66.308 211.7h1.217v1.217h-1.217zm3.65 0h1.217v1.217h-1.217zm2.434 0h1.217v1.217h-1.217z"/><path d="M73.608 211.7h1.217v1.217h-1.217zm1.217 0h1.217v1.217h-1.217zm-8.517 1.217h1.217v1.217h-1.217zm1.217 0h1.217v1.217h-1.217zm1.217 0h1.217v1.217h-1.217z"/><path d="M69.958 212.917h1.217v1.217h-1.217zm1.217 0h1.217v1.217h-1.217zm1.217 0h1.217v1.217h-1.217z"/><path d="M68.742 214.133h1.217v1.217h-1.217z"/><path d="M69.958 214.133h1.217v1.217h-1.217zm1.217 0h1.217v1.217h-1.217z"/></g></svg>