<svg xmlns="http://www.w3.org/2000/svg" width="130" height="32" fill="none"><g fill="#F4F7F5" clip-path="url(#a)"><path d="M37.856 22.473h9.304v-2.81h-5.997V9.08h-3.307v13.393ZM52.672 20.6c-1.326 0-2.017-1.162-2.017-2.904s.691-2.922 2.017-2.922c1.327 0 2.037 1.18 2.037 2.922 0 1.742-.71 2.904-2.037 2.904Zm.02 2.173c3.082 0 5.1-2.192 5.1-5.077 0-2.884-2.018-5.076-5.1-5.076-3.065 0-5.12 2.192-5.12 5.076 0 2.885 2.055 5.077 5.12 5.077Zm10.435 3.016c1.42 0 2.672-.319 3.513-1.068.766-.693 1.27-1.742 1.27-3.184v-8.655h-2.914v1.03h-.038c-.56-.805-1.42-1.31-2.69-1.31-2.373 0-4.017 1.985-4.017 4.795 0 2.94 2 4.552 4.148 4.552 1.158 0 1.887-.469 2.447-1.106h.075v.956c0 1.161-.542 1.835-1.831 1.835-1.009 0-1.513-.43-1.682-.936h-2.951c.299 2.004 2.036 3.09 4.67 3.09Zm-.018-6.107c-1.14 0-1.887-.937-1.887-2.379 0-1.461.747-2.398 1.887-2.398 1.27 0 1.943 1.087 1.943 2.38 0 1.348-.617 2.397-1.943 2.397Zm10.794.918c-1.327 0-2.018-1.162-2.018-2.904s.691-2.922 2.018-2.922c1.326 0 2.036 1.18 2.036 2.922 0 1.742-.71 2.904-2.036 2.904Zm.018 2.173c3.083 0 5.101-2.192 5.101-5.077 0-2.884-2.018-5.076-5.1-5.076-3.064 0-5.12 2.192-5.12 5.076 0 2.885 2.056 5.077 5.12 5.077Zm5.99-.3h3.045v-9.59h-3.045v9.59Zm0-10.92h3.045V9.08h-3.045v2.472Zm4.366 14.086h3.046V21.48h.037c.598.806 1.476 1.293 2.709 1.293 2.504 0 4.166-1.986 4.166-5.095 0-2.885-1.55-5.077-4.091-5.077-1.308 0-2.242.581-2.896 1.443h-.056v-1.162h-2.915V25.64Zm5.007-5.226c-1.308 0-2.055-1.068-2.055-2.623 0-1.555.673-2.735 2-2.735 1.307 0 1.924 1.087 1.924 2.735 0 1.63-.71 2.623-1.869 2.623Zm9.91 2.36c2.503 0 4.353-1.087 4.353-3.185 0-2.454-1.98-2.884-3.662-3.165-1.214-.225-2.298-.319-2.298-.993 0-.6.58-.88 1.327-.88.84 0 1.42.262 1.532 1.123h2.802c-.149-1.892-1.607-3.072-4.316-3.072-2.26 0-4.129 1.05-4.129 3.072 0 2.248 1.775 2.698 3.438 2.979 1.27.225 2.429.318 2.429 1.18 0 .618-.579.955-1.495.955-1.009 0-1.644-.468-1.756-1.423h-2.877c.093 2.116 1.85 3.409 4.652 3.409Zm8.489-.019c1.326 0 2.167-.524 2.858-1.461h.056v1.18h2.915v-9.59h-3.045v5.357c0 1.142-.636 1.93-1.682 1.93-.971 0-1.438-.582-1.438-1.63v-5.658h-3.027v6.294c0 2.136 1.158 3.578 3.363 3.578Zm7.154-.281h3.045v-5.376c0-1.143.56-1.948 1.513-1.948.916 0 1.345.6 1.345 1.63v5.694h3.046v-5.376c0-1.143.541-1.948 1.513-1.948.915 0 1.345.6 1.345 1.63v5.694h3.045v-6.238c0-2.154-1.083-3.634-3.25-3.634-1.233 0-2.261.525-3.008 1.686h-.038c-.485-1.03-1.438-1.686-2.69-1.686-1.382 0-2.298.656-2.896 1.649h-.056v-1.368h-2.914v9.591Z"/><path fill-rule="evenodd" d="M6.737 3.037A15.673 15.673 0 0 0 3.742 5.78c3.572-.332 8.111.21 13.38 2.852 5.628 2.821 10.159 2.917 13.312 2.307a15.544 15.544 0 0 0-1.073-2.497c-3.61.381-8.238-.124-13.631-2.828-3.425-1.716-6.444-2.424-8.993-2.577Zm20.515 2.395A15.513 15.513 0 0 0 15.648.23c-1.354 0-2.668.173-3.92.5 1.696.463 3.498 1.142 5.394 2.093 3.95 1.98 7.358 2.617 10.13 2.61Zm3.856 8.556c-3.81.754-9.07.599-15.378-2.563C9.833 8.468 5.14 8.505 1.974 9.21c-.164.036-.323.075-.479.114a15.52 15.52 0 0 0-.983 2.841c.254-.068.516-.132.786-.192 3.84-.856 9.267-.819 15.824 2.469 5.898 2.956 10.591 2.919 13.757 2.213l.32-.074a15.913 15.913 0 0 0-.09-2.594Zm-.417 5.888c-3.773.661-8.88.407-14.961-2.641-5.897-2.956-10.59-2.92-13.756-2.214-.703.157-1.335.347-1.893.549l-.002.269c0 8.62 6.97 15.61 15.569 15.61 7.206 0 13.269-4.909 15.043-11.573Z" clip-rule="evenodd"/></g><defs><clipPath id="a"><path fill="#fff" d="M0 0h130v32H0z"/></clipPath></defs></svg>