<svg xmlns="http://www.w3.org/2000/svg" width="129" height="32" fill="none"><g fill="#F4F7F5" clip-path="url(#a)"><path d="M38.822 22.364h9.123v-2.742h-5.88V9.29h-3.243v13.074Zm14.528-1.828c-1.3 0-1.978-1.134-1.978-2.835 0-1.7.678-2.852 1.978-2.852 1.301 0 1.997 1.152 1.997 2.852 0 1.701-.696 2.835-1.997 2.835Zm.019 2.12c3.023 0 5.001-2.139 5.001-4.954 0-2.817-1.978-4.956-5.001-4.956-3.005 0-5.02 2.14-5.02 4.955 0 2.816 2.015 4.956 5.02 4.956ZM63.602 25.6c1.392 0 2.62-.31 3.444-1.041.751-.677 1.246-1.7 1.246-3.109v-8.448h-2.858v1.006h-.037c-.55-.786-1.392-1.28-2.638-1.28-2.326 0-3.938 1.938-3.938 4.68 0 2.872 1.96 4.444 4.067 4.444 1.136 0 1.85-.457 2.4-1.079h.073v.933c0 1.134-.532 1.792-1.796 1.792-.989 0-1.483-.42-1.648-.914h-2.895c.293 1.956 1.997 3.017 4.58 3.017Zm-.018-5.96c-1.118 0-1.85-.915-1.85-2.323 0-1.426.732-2.34 1.85-2.34 1.245 0 1.905 1.06 1.905 2.322 0 1.317-.605 2.34-1.905 2.34Zm10.584.896c-1.3 0-1.978-1.134-1.978-2.835 0-1.7.677-2.852 1.978-2.852 1.3 0 1.997 1.152 1.997 2.852 0 1.701-.696 2.835-1.997 2.835Zm.018 2.12c3.023 0 5.002-2.139 5.002-4.954 0-2.817-1.979-4.956-5.002-4.956-3.004 0-5.02 2.14-5.02 4.955 0 2.816 2.016 4.956 5.02 4.956Zm5.874-.292h2.986v-9.362h-2.987v9.362Zm0-10.66h2.986V9.29h-2.987v2.414Zm4.282 13.751h2.986v-4.06h.036c.587.787 1.447 1.262 2.657 1.262 2.454 0 4.085-1.938 4.085-4.974 0-2.816-1.52-4.955-4.012-4.955-1.282 0-2.198.567-2.84 1.408H87.2v-1.134h-2.857v12.453Zm4.91-5.102c-1.283 0-2.016-1.042-2.016-2.56s.66-2.67 1.96-2.67c1.283 0 1.887 1.06 1.887 2.67 0 1.59-.696 2.56-1.832 2.56Zm9.715 2.304c2.455 0 4.269-1.06 4.269-3.109 0-2.395-1.942-2.816-3.59-3.09-1.192-.22-2.254-.31-2.254-.97 0-.584.568-.858 1.3-.858.825 0 1.393.255 1.503 1.097h2.748c-.147-1.847-1.576-3-4.232-3-2.217 0-4.049 1.025-4.049 3 0 2.194 1.74 2.633 3.371 2.907 1.246.22 2.382.31 2.382 1.152 0 .604-.568.933-1.466.933-.99 0-1.612-.457-1.722-1.39h-2.821c.091 2.066 1.813 3.328 4.561 3.328Zm8.325-.018c1.301 0 2.125-.512 2.803-1.427h.055v1.152h2.858v-9.362h-2.986v5.23c0 1.115-.623 1.883-1.649 1.883-.953 0-1.411-.567-1.411-1.59v-5.523h-2.967v6.144c0 2.085 1.135 3.493 3.297 3.493Zm7.014-.275h2.986v-5.248c0-1.115.55-1.901 1.484-1.901.898 0 1.319.585 1.319 1.59v5.56h2.986v-5.249c0-1.115.532-1.901 1.484-1.901.898 0 1.319.585 1.319 1.59v5.56h2.986v-6.09c0-2.103-1.062-3.547-3.187-3.547-1.209 0-2.217.512-2.95 1.646h-.036c-.477-1.006-1.411-1.646-2.638-1.646-1.356 0-2.254.64-2.84 1.609h-.055v-1.335h-2.858v9.362Z"/><path fill-rule="evenodd" d="M15.789.733c8.596 0 15.565 6.956 15.565 15.536 0 8.58-6.97 15.536-15.565 15.536C7.192 31.805.224 24.85.224 16.27S7.192.733 15.789.733Zm14.967 15.536c0-8.25-6.701-14.94-14.967-14.94-.667 0-1.324.044-1.968.128.416-.036.837-.055 1.263-.055 7.898 0 14.302 6.392 14.302 14.276 0 7.884-6.404 14.276-14.302 14.276-7.479 0-13.616-5.729-14.249-13.03.344 7.948 6.907 14.285 14.954 14.285 8.266 0 14.967-6.689 14.967-14.94Zm-1.968-.59c0-7.556-6.136-13.68-13.704-13.68-.615 0-1.22.04-1.813.118.365-.03.734-.046 1.108-.046 7.201 0 13.04 5.827 13.04 13.015 0 7.188-5.839 13.016-13.04 13.016-6.81 0-12.4-5.21-12.989-11.854.3 7.29 6.316 13.11 13.694 13.11 7.569 0 13.704-6.125 13.704-13.68ZM14.378 2.666c6.872 0 12.443 5.56 12.443 12.42 0 6.858-5.57 12.418-12.442 12.418-6.713 0-12.184-5.305-12.434-11.944.54 5.992 5.585 10.689 11.729 10.689 6.503 0 11.776-5.263 11.776-11.755 0-6.492-5.273-11.754-11.776-11.754-.337 0-.67.014-1 .042a12.577 12.577 0 0 1 1.705-.116Zm10.474 11.828c0-6.162-5.005-11.158-11.178-11.158-.522 0-1.035.036-1.538.105.275-.022.552-.033.832-.033 5.806 0 10.513 4.699 10.513 10.494 0 5.796-4.707 10.494-10.513 10.494-5.465 0-9.956-4.162-10.465-9.484.22 5.969 5.137 10.74 11.17 10.74 6.175 0 11.18-4.995 11.18-11.158ZM12.968 4.005c5.476 0 9.916 4.432 9.916 9.898 0 5.467-4.44 9.898-9.916 9.898-5.369 0-9.74-4.258-9.91-9.576.459 4.67 4.405 8.32 9.205 8.32 5.11 0 9.25-4.134 9.25-9.233 0-5.1-4.14-9.234-9.25-9.234a9.4 9.4 0 0 0-.696.026 10.02 10.02 0 0 1 1.401-.098Zm7.948 9.307c0-4.77-3.874-8.638-8.653-8.638a8.77 8.77 0 0 0-1.284.095c.192-.014.385-.02.58-.02 4.41 0 7.986 3.569 7.986 7.971 0 4.403-3.576 7.973-7.987 7.973a7.983 7.983 0 0 1-7.945-7.152c.122 4.664 3.948 8.408 8.65 8.408 4.78 0 8.653-3.867 8.653-8.637Zm-9.358-7.968c4.081 0 7.39 3.303 7.39 7.376 0 4.074-3.309 7.376-7.39 7.376-4.03 0-7.305-3.218-7.388-7.22a6.72 6.72 0 0 0 6.683 5.965c3.714 0 6.725-3.005 6.725-6.712s-3.01-6.712-6.725-6.712c-.142 0-.283.004-.423.013a7.46 7.46 0 0 1 1.128-.086Zm5.422 6.785a6.121 6.121 0 0 0-6.127-6.116c-.34 0-.673.028-.998.08a5.457 5.457 0 0 1 5.754 5.444 5.457 5.457 0 0 1-5.461 5.452 5.46 5.46 0 0 1-5.421-4.781 6.122 6.122 0 0 0 6.126 6.036c3.384 0 6.127-2.738 6.127-6.115Zm-6.832-5.447a4.86 4.86 0 0 1 4.864 4.856 4.86 4.86 0 0 1-4.864 4.855 4.86 4.86 0 0 1-4.865-4.875 4.196 4.196 0 0 0 4.16 3.618 4.194 4.194 0 0 0 4.198-4.19 4.194 4.194 0 0 0-4.355-4.188 4.9 4.9 0 0 1 .862-.076Zm2.895 4.264a3.597 3.597 0 0 0-3.6-3.594 3.597 3.597 0 0 0-3.601 3.594 3.597 3.597 0 0 0 3.6 3.594c1.99 0 3.601-1.61 3.601-3.594Z" clip-rule="evenodd"/></g><defs><clipPath id="a"><path fill="#fff" d="M0 0h129v32H0z"/></clipPath></defs></svg>