<svg xmlns="http://www.w3.org/2000/svg" width="125" height="24" fill="none"><g fill="#F4F7F5" clip-path="url(#a)"><path d="M57.928 2.401c-.194 1.376.697 2.4 2.084 2.4a2.79 2.79 0 0 0 2.759-2.4C62.964 1.025 62.074 0 60.686 0a2.789 2.789 0 0 0-2.758 2.401Zm.034 3.526-1.19 8.477 3.805-.146 1.169-8.33h-3.784Z"/><path fill-rule="evenodd" d="M47.97 18.608c3.001 0 5.552-1.6 6.828-4.024l1.938.08-.508 3.618h3.784l.486-3.465 2.006.083-1.216 8.66h3.784l.93-6.628c.628 1.1 1.808 1.676 3.297 1.676 2.012 0 4.374-1.04 5.786-3.193l1.45.059c.247 1.87 1.987 3.134 4.749 3.134 3.203 0 5.56-1.701 5.919-4.252.41-2.926-2.272-3.402-4.028-3.652l-.153-.023c-1.062-.162-1.873-.286-1.772-1.002.07-.5.516-.975 1.449-.975.757 0 1.216.325 1.236.9h3.682c.237-2.226-1.43-4.002-4.533-4.002-3.103 0-5.342 1.751-5.693 4.252-.417 2.976 2.348 3.401 4.028 3.652l.093.014.13.02c1.028.154 1.803.27 1.695 1.041-.074.525-.509.925-1.669.925-1.034 0-1.468-.325-1.402-.975H53.487l1.365-.053a7.58 7.58 0 0 0 .741-2.373c.527-3.752-1.862-6.503-5.797-6.503l-.182.002.012-.008H37.697a34.09 34.09 0 0 0-.485 0h.485c3.063.02 8.9.41 8.15 1.044a7.463 7.463 0 0 0-3.674 5.465c-.526 3.751 1.862 6.503 5.797 6.503Zm.492-3.502c1.715 0 3.047-1.225 3.297-3.001.25-1.776-.74-3.001-2.455-3.001s-3.047 1.225-3.297 3c-.249 1.777.74 3.002 2.455 3.002Z" clip-rule="evenodd"/><path d="M72.431 12.105a3.684 3.684 0 0 1-.697 1.725l4.186-.16a8.24 8.24 0 0 0 .325-1.415c.558-3.977-1.841-6.653-5.802-6.653-3.808 0-6.981 2.476-7.564 6.628l-.274 1.95 4.385-.168c-.3-.503-.415-1.156-.31-1.907.25-1.776 1.582-3.001 3.297-3.001 1.716 0 2.704 1.225 2.454 3Zm29.516 4.279.71-5.054c.558-3.977 3.125-5.728 6.152-5.728 1.765 0 3.159.676 3.909 1.976 1.116-1.3 2.674-1.976 4.465-1.976 3.028 0 5.102 1.751 4.544 5.728l-.976 6.952h-3.784l.976-6.952c.232-1.651-.494-2.226-1.63-2.226-1.11 0-1.997.575-2.229 2.226l-.976 6.952h-3.784l.976-6.952c.232-1.651-.494-2.226-1.604-2.226-1.136 0-2.024.575-2.255 2.226l-.976 6.952h-2.268l.001.002h-5.301c2.199-.223 3.889-.826 4.047-1.906l.003.006Z"/><path d="M93.875 18.607c-3.683 0-5.86-2.1-5.274-6.277l.663-4.719c.106-1.218-.853-1.37-2.968-1.676H89.5l.001-.008h3.784l-.899 6.403c-.274 1.95.569 2.776 1.982 2.776 1.412 0 2.486-.825 2.76-2.776l.9-6.403h3.783l-.899 6.403c-.583 4.152-3.353 6.277-7.036 6.277ZM29.436 16.82a4.928 4.928 0 0 1-.69-.969l-2.7-.147c-1.398 1.784-3.593 2.904-6.103 2.904-3.935 0-6.324-2.752-5.797-6.503.526-3.752 3.687-6.503 7.622-6.503s6.324 2.751 5.797 6.503a7.58 7.58 0 0 1-.751 2.395l-4.867.248c.948-.487 1.615-1.438 1.784-2.643.25-1.776-.739-3.001-2.454-3.001-1.715 0-3.048 1.225-3.297 3-.187 1.33.32 2.351 1.306 2.78l-4.27.219h19.525v.002c1.67-.044 2.96-1.257 3.204-3 .25-1.776-.74-3.001-2.454-3.001-1.716 0-3.048 1.225-3.297 3-.12.856.047 1.584.444 2.108l-4.215.216a6.629 6.629 0 0 1-.063-2.323c.526-3.752 3.687-6.503 7.622-6.503s6.324 2.751 5.797 6.503c-.508 3.624-3.475 6.314-7.223 6.493.883.498 2.165.9 3.107 1.195.315.1.591.186.802.26.856.212 1.403 1.003 1.27 1.946C39.382 23.104 38.352 24 37.238 24H31.18c-1.979 0-3.427-1.412-3.51-3.276l-7.469-.726h13.962c-1.476-.567-3.036-1.699-4.04-2.554a4.98 4.98 0 0 1-.686-.623ZM0 1.926l3.09.492L.865 18.282h11.88l.527-3.751H5.478l1.77-12.605H0Zm125 2.8a1.442 1.442 0 1 1-1.442-1.443c.797 0 1.442.646 1.442 1.443Z"/></g><defs><clipPath id="a"><path fill="#fff" d="M0 0h125v24H0z"/></clipPath></defs></svg>