<svg xmlns="http://www.w3.org/2000/svg" width="138" height="24" fill="none"><g fill="#F4F7F5" clip-path="url(#a)"><path d="M53.093 7.46c0 4.46 0 6.22-5.936 6.22 5.936 0 5.936 1.761 5.936 6.221 0-4.434 0-6.22 5.843-6.22-5.843 0-5.843-1.788-5.843-6.222Z"/><path fill-rule="evenodd" d="M23.827 23.63c-2.053 0-3.857-.409-5.414-1.227a9.207 9.207 0 0 1-3.618-3.48 9.016 9.016 0 0 1-.387-.759l-.69 5.108H.043v-.255h.026c.615 0 1.111-.163 1.488-.487.376-.324.564-.792.564-1.406V6.39c0-.613-.188-1.108-.564-1.483-.377-.375-.873-.563-1.488-.563H.042v-.256h8.185v.256h-.102c-.616 0-1.112.188-1.488.563-.377.375-.565.87-.565 1.483v14.836c0 .546.128.972.385 1.279.274.29.744.435 1.411.435h.539c1.523 0 2.806-.47 3.85-1.407 1.017-.915 1.668-2.195 1.954-3.84-.466-1.202-.699-2.54-.699-4.013 0-1.995.428-3.734 1.283-5.218a8.98 8.98 0 0 1 3.618-3.478c1.557-.836 3.361-1.254 5.414-1.254 2.004 0 3.763.398 5.277 1.194 1.616-.796 3.492-1.194 5.629-1.194.667 0 1.214.026 1.642.077.445.034.838.077 1.18.128.343.051.719.102 1.13.153.427.034.957.051 1.59.051l.77 5.116h-.256c-.308-1.62-1.001-2.89-2.079-3.811-1.06-.92-2.386-1.381-3.977-1.381a5.28 5.28 0 0 0-2.669.69 6.046 6.046 0 0 0-1.433 1.143 6.814 6.814 0 0 0-.62.776 8.35 8.35 0 0 0-.464.776c-.19.36-.363.746-.517 1.156a11.617 11.617 0 0 0-.353 1.086c-.308 1.177-.462 2.481-.462 3.914 0 1.32.12 2.534.362 3.642l-.408 1.207a8.183 8.183 0 0 1-.762 1.664c-.18.284-.372.54-.573.767l-.02.022a8.823 8.823 0 0 1-1.627-1.982c-.906-1.5-1.36-3.266-1.36-5.295 0-1.978.454-3.709 1.36-5.192a8.988 8.988 0 0 1 2.36-2.574 5.668 5.668 0 0 0-1.282-1.11 4.503 4.503 0 0 0-2.438-.69c-.89 0-1.702.23-2.437.69-.736.46-1.36 1.109-1.874 1.944-.53.836-.94 1.85-1.231 3.044-.274 1.177-.41 2.481-.41 3.914 0 1.432.136 2.737.41 3.913.29 1.177.701 2.183 1.231 3.018.514.836 1.138 1.484 1.874 1.944.735.46 1.548.691 2.437.691.89 0 1.702-.23 2.438-.69.736-.461 1.369-1.109 1.899-1.945.513-.835.906-1.841 1.18-3.018.291-1.176.436-2.48.436-3.913 0-1.295-.118-2.486-.356-3.572l.44-1.167a8.42 8.42 0 0 1 .885-1.744 6.21 6.21 0 0 1 .537-.672l.019-.016a8.787 8.787 0 0 1 1.529 1.978c.872 1.484 1.309 3.223 1.309 5.218s-.437 3.743-1.309 5.244a8.863 8.863 0 0 1-2.223 2.57c.379.414.795.76 1.248 1.036.77.46 1.625.691 2.566.691.701 0 1.369-.12 2.002-.358.65-.239 1.146-.537 1.488-.895v-6.523c0-.614-.188-1.108-.565-1.483-.376-.376-.872-.563-1.488-.563h-.077v-.256h7.003c.07-1.772.495-3.332 1.273-4.68a8.98 8.98 0 0 1 3.618-3.48c1.556-.835 3.361-1.253 5.414-1.253 2.053 0 3.85.418 5.389 1.254 1.556.818 2.762 1.978 3.618 3.478a9.328 9.328 0 0 1 1.143 3.186V6.39c0-.613-.188-1.108-.565-1.483-.376-.375-.872-.563-1.488-.563h-.026v-.256h15.44c1.317.017 2.463.248 3.438.691.992.426 1.761 1.023 2.31 1.79.206.28.373.579.504.895.21-.988.722-1.797 1.532-2.43 1.113-.869 2.575-1.304 4.388-1.304a9.07 9.07 0 0 1 1.9.18c.273.05.59.093.949.127.36.034.82.051 1.385.051h8.106v.256h-.077c-.616 0-1.111.188-1.487.563-.377.375-.566.87-.566 1.483v10.155c0 1.808.463 3.24 1.386 4.297.941 1.04 2.207 1.56 3.798 1.56 1.608 0 2.874-.528 3.798-1.585.923-1.075 1.386-2.498 1.386-4.272v-9.77c0-.734-.223-1.314-.668-1.74-.445-.427-1.035-.657-1.77-.69v-.257h8.468l6.262 14.452 6.261-14.452h4.798v.256c-.547 0-1.01.162-1.386.486-.376.324-.547.768-.513 1.33l1.309 15.143c.085.58.359 1.014.821 1.304.479.29.949.435 1.411.435v.23h-7.955v-.23c.291 0 .59-.068.899-.205a1.82 1.82 0 0 0 .744-.588c.205-.256.282-.554.23-.895l-1.257-14.12-7.133 16.396-7.185-16.42-1.206 13.454c-.069.682.128 1.236.59 1.663.462.426 1.027.656 1.694.69v.256h-5.132v-.255a2.428 2.428 0 0 0 1.642-.717c.445-.443.701-.997.77-1.662l1.283-14.145c-.325-.665-.736-1.185-1.232-1.56a2.352 2.352 0 0 0-.267-.19c-.135.084-.26.181-.375.292-.445.426-.667 1.006-.667 1.74v9.77c0 1.432-.3 2.677-.899 3.734-.581 1.058-1.428 1.885-2.54 2.482-1.095.58-2.404.87-3.926.87-1.505 0-2.814-.29-3.926-.87a6.306 6.306 0 0 1-2.591-2.456c-.6-1.074-.899-2.328-.899-3.76V6.39c0-.613-.188-1.108-.564-1.483-.363-.362-.837-.549-1.422-.562l.244 4.91h-.257c-.239-1.586-.752-2.839-1.539-3.76-.787-.92-1.736-1.381-2.849-1.381-.787 0-1.42.23-1.898.69-.462.461-.693 1.075-.693 1.842 0 .665.214 1.305.641 1.919.445.596 1.206 1.296 2.284 2.097l1.103.819c1.13.818 2.02 1.577 2.67 2.276.666.682 1.145 1.347 1.436 1.995.291.648.437 1.339.437 2.072 0 1.125-.283 2.123-.848 2.993-.564.87-1.35 1.551-2.36 2.046-.992.477-2.164.733-3.516.767-.444 0-.812-.017-1.103-.05a13.797 13.797 0 0 1-.821-.129 10.412 10.412 0 0 0-1-.128 19.784 19.784 0 0 0-1.617-.05l-.899-6.651h.309c.256 2.097.838 3.717 1.744 4.86.924 1.125 2.104 1.688 3.541 1.688 1.06 0 1.925-.299 2.592-.895.667-.597 1.001-1.373 1.001-2.328 0-.41-.077-.801-.231-1.177-.137-.375-.376-.776-.719-1.202a11.214 11.214 0 0 0-1.36-1.381 30.458 30.458 0 0 0-2.104-1.714l-1.052-.793c-1.283-.972-2.172-1.841-2.668-2.609a4.727 4.727 0 0 1-.396-.747 4.406 4.406 0 0 1-.744 1.694c-.547.767-1.334 1.372-2.36 1.816-1.01.426-2.207.64-3.593.64h-2.36v6.496c0 .614.187 1.108.564 1.484.376.375.872.563 1.488.563h.051v.255H61.164v-.255h.026c.616 0 1.112-.188 1.488-.563.377-.376.565-.87.565-1.484v-5.254a9.5 9.5 0 0 1-1.143 3.208c-.856 1.483-2.062 2.643-3.618 3.479-1.54.818-3.336 1.227-5.389 1.227-2.053 0-3.858-.409-5.414-1.227a9.207 9.207 0 0 1-3.618-3.48c-.852-1.494-1.28-3.233-1.283-5.218a1.856 1.856 0 0 0-.321.257c-.377.375-.565.87-.565 1.483v6.523c-.342.34-.89.64-1.642.895-.736.239-1.574.426-2.515.563-.924.136-1.847.204-2.771.204-2.233 0-4.178-.394-5.834-1.182-1.52.788-3.288 1.182-5.303 1.182Zm31.704-1.1a4.508 4.508 0 0 1-2.438.691c-.89 0-1.702-.23-2.438-.69-.735-.461-1.36-1.109-1.873-1.945-.53-.835-.94-1.841-1.231-3.018-.274-1.176-.411-2.48-.411-3.913 0-1.433.137-2.737.41-3.914.291-1.194.702-2.208 1.232-3.044.513-.835 1.138-1.483 1.873-1.944a4.504 4.504 0 0 1 2.438-.69c.89 0 1.702.23 2.438.69.735.46 1.368 1.109 1.899 1.944.513.836.906 1.85 1.18 3.044.29 1.177.436 2.481.436 3.914 0 1.432-.145 2.737-.436 3.913-.274 1.177-.667 2.183-1.18 3.018-.53.836-1.164 1.484-1.9 1.944Zm13.99-.076c-.24.24-.53.402-.868.49a1.861 1.861 0 0 1-.869-.49c-.375-.376-.564-.87-.564-1.484V6.39c0-.613.189-1.108.564-1.483.241-.24.53-.403.869-.49.338.087.628.25.868.49.376.375.565.87.565 1.483v14.58c0 .614-.189 1.108-.565 1.484Zm6.03-8.313h-1.514V4.42h1.488c.736 0 1.377.213 1.925.64.548.409.967.98 1.258 1.713.307.733.461 1.569.461 2.507 0 .938-.154 1.773-.461 2.506-.291.734-.71 1.313-1.258 1.74-.53.41-1.163.614-1.899.614Z" clip-rule="evenodd"/><path d="M137.726 1.993a1.78 1.78 0 0 1-1.783 1.777 1.78 1.78 0 0 1-1.783-1.777 1.78 1.78 0 0 1 1.783-1.777 1.78 1.78 0 0 1 1.783 1.777Z"/></g><defs><clipPath id="a"><path fill="#fff" d="M0 0h138v24H0z"/></clipPath></defs></svg>