<svg xmlns="http://www.w3.org/2000/svg" width="124" height="32" fill="none"><path fill="#F4F7F5" d="M22.982 13.5c2.387 0 2.924 1.039 2.924 2.334 0 1.373-.65 2.357-2.914 2.357-2.25 0-2.9-.927-2.9-2.357 0-1.407.708-2.334 2.89-2.334Zm24.948 0c2.387 0 2.924 1.039 2.924 2.334 0 1.373-.65 2.357-2.915 2.357-2.25 0-2.9-.927-2.9-2.357 0-1.407.709-2.334 2.89-2.334Z"/><path fill="#F4F7F5" fill-rule="evenodd" d="M1.846 29.333V2.322h120.636v27.011H1.846Zm57.495-1.523h61.62V3.845h-61.62V27.81Zm-36.348-7.32c4.238 0 6.02-1.83 6.02-4.69 0-2.906-2.007-4.634-6.02-4.634-3.951 0-6.03 1.876-6.03 4.634 0 3.111 2.18 4.69 6.03 4.69ZM8.26 11.372v8.98h8.553v-2.39h-5.459v-6.59H8.26Zm30.327 8.98-.08-.87a5.472 5.472 0 0 1-3.564 1.008c-1.907 0-3.495-.572-4.386-1.727a4.729 4.729 0 0 1-.845-2.883 4.47 4.47 0 0 1 .87-2.803c.902-1.121 2.536-1.865 4.969-1.865 2.799 0 4.443.858 5.15 2.3.153.34.242.703.264 1.075h-2.96a1.219 1.219 0 0 0-.4-.572 3.145 3.145 0 0 0-2-.515 2.94 2.94 0 0 0-2.307.721 2.486 2.486 0 0 0-.467 1.681c-.041.572.111 1.14.433 1.613a3 3 0 0 0 2.365.79 3.296 3.296 0 0 0 2.352-.732c.142-.178.24-.387.286-.61H35.08v-1.93h5.962v5.32h-2.456Zm9.355.138c4.237 0 6.02-1.83 6.02-4.69 0-2.906-2.01-4.634-6.02-4.634-3.951 0-6.031 1.876-6.031 4.634 0 3.111 2.182 4.69 6.03 4.69Z" clip-rule="evenodd"/><path fill="#F4F7F5" d="M64.554 20.319v-8.981h2.206v8.98h-2.206Zm13.535-3.753c-.56.732-1.522 1.067-2.878 1.075l-4.078-.011v2.688h-2.16v-8.98h6.239a3.573 3.573 0 0 1 2.775.904c.493.643.733 1.445.674 2.253a3.24 3.24 0 0 1-.572 2.071Zm-1.77-2.928c-.229-.343-.72-.533-1.554-.533h-3.644v2.733h3.62c.891 0 1.36-.182 1.578-.537.128-.25.184-.532.16-.813a1.741 1.741 0 0 0-.16-.85Zm8.704 6.818c-4.067 0-5.312-1.524-5.312-3.032h2.308c0 .744 1.016 1.304 3.107 1.304 2.078 0 2.626-.366 2.626-.961 0-.664-.41-.87-2.341-1.087a50.63 50.63 0 0 1-1.805-.217c-2.738-.31-3.793-1.121-3.793-2.574 0-1.533 1.543-2.688 4.89-2.688 3.632 0 5.026 1.43 5.026 2.917h-2.282c0-.755-.857-1.19-2.879-1.19-2.08 0-2.524.286-2.524.846 0 .584.456.767 2.662 1.03.503.07 1.622.195 1.93.228 2.331.24 3.382 1.087 3.382 2.585-.004 1.786-1.603 2.839-4.995 2.839Zm11.492-.012c-2.981 0-4.923-1.178-4.923-3.657v-5.45h2.18v5.48c0 1.134.927 1.888 2.834 1.888 1.725 0 2.753-.709 2.753-1.887v-5.48h2.159v5.653c0 2.252-1.805 3.453-5.003 3.453Zm16.825-.125v-5.995l-2.799 5.995h-2.124l-2.719-5.995v5.995h-2.054v-8.981h2.783l3.084 6.841 3.153-6.841h2.738v8.98h-2.062Z"/></svg>