<svg xmlns="http://www.w3.org/2000/svg" width="131" height="32" fill="none"><g fill="#F4F7F5" clip-path="url(#a)"><path d="M38.425 22.597h9.32v-2.81h-6.008V9.204h-3.312v13.393Zm14.841-1.873c-1.329 0-2.021-1.162-2.021-2.904s.692-2.922 2.021-2.922 2.04 1.18 2.04 2.922c0 1.742-.711 2.904-2.04 2.904Zm.019 2.173c3.088 0 5.109-2.192 5.109-5.077 0-2.884-2.021-5.076-5.11-5.076-3.068 0-5.127 2.192-5.127 5.076 0 2.885 2.059 5.077 5.128 5.077Zm10.454 3.016c1.422 0 2.676-.319 3.518-1.068.767-.693 1.272-1.742 1.272-3.185v-8.654H65.61v1.03h-.037c-.562-.805-1.423-1.31-2.695-1.31-2.377 0-4.024 1.985-4.024 4.795 0 2.94 2.003 4.552 4.155 4.552 1.16 0 1.89-.469 2.451-1.106h.075v.956c0 1.161-.542 1.835-1.834 1.835-1.01 0-1.516-.43-1.684-.936H59.06c.3 2.004 2.04 3.09 4.679 3.09Zm-.02-6.107c-1.14 0-1.89-.937-1.89-2.379 0-1.461.75-2.398 1.89-2.398 1.274 0 1.947 1.087 1.947 2.38 0 1.348-.617 2.397-1.946 2.397Zm10.813.918c-1.328 0-2.02-1.162-2.02-2.904s.692-2.922 2.02-2.922c1.33 0 2.04 1.18 2.04 2.922 0 1.742-.71 2.904-2.04 2.904Zm.02 2.173c3.087 0 5.108-2.192 5.108-5.077 0-2.884-2.021-5.076-5.109-5.076-3.07 0-5.128 2.192-5.128 5.076 0 2.885 2.059 5.077 5.128 5.077Zm5.999-.3h3.05v-9.59h-3.05v9.59Zm0-10.92h3.05V9.203h-3.05v2.472Zm4.374 14.086h3.05v-4.159h.038c.598.806 1.478 1.293 2.713 1.293 2.508 0 4.173-1.986 4.173-5.095 0-2.885-1.553-5.077-4.098-5.077-1.31 0-2.246.581-2.9 1.443h-.057v-1.162h-2.92v12.757Zm5.015-5.227c-1.31 0-2.058-1.067-2.058-2.622s.673-2.735 2.002-2.735c1.31 0 1.927 1.087 1.927 2.735 0 1.63-.71 2.622-1.87 2.622Zm9.926 2.361c2.507 0 4.36-1.087 4.36-3.185 0-2.454-1.984-2.884-3.668-3.165-1.216-.225-2.302-.319-2.302-.993 0-.6.58-.88 1.329-.88.842 0 1.422.262 1.535 1.123h2.807c-.15-1.892-1.61-3.072-4.323-3.072-2.265 0-4.136 1.05-4.136 3.072 0 2.248 1.778 2.698 3.443 2.979 1.273.224 2.433.318 2.433 1.18 0 .618-.58.955-1.497.955-1.01 0-1.647-.468-1.76-1.424h-2.881c.093 2.117 1.852 3.41 4.66 3.41Zm8.504-.019c1.329 0 2.171-.524 2.863-1.461h.056v1.18h2.92v-9.59h-3.051v5.357c0 1.142-.636 1.929-1.684 1.929-.973 0-1.441-.58-1.441-1.63v-5.657h-3.032V19.3c0 2.136 1.161 3.578 3.369 3.578Zm7.166-.281h3.05v-5.376c0-1.143.562-1.948 1.516-1.948.917 0 1.347.6 1.347 1.63v5.694h3.051v-5.376c0-1.143.543-1.948 1.516-1.948.917 0 1.347.6 1.347 1.63v5.694h3.051v-6.238c0-2.154-1.086-3.634-3.257-3.634-1.235 0-2.264.525-3.013 1.686h-.037c-.487-1.03-1.441-1.686-2.695-1.686-1.385 0-2.302.656-2.901 1.649h-.056v-1.368h-2.919v9.591ZM19.814 1.543 16.747.72l-2.585 9.655-2.333-8.716-3.067.822 2.521 9.417-6.279-6.285L2.76 7.86l6.887 6.894-8.577-2.3-.822 3.07 9.372 2.513a6.353 6.353 0 0 1 6.186-7.798 6.353 6.353 0 0 1 6.188 7.79l8.517 2.284.822-3.07-9.409-2.524 8.578-2.3-.822-3.07-9.409 2.523 6.28-6.284-2.245-2.248-6.792 6.799 2.3-8.596Z"/><path d="M21.985 18.064a6.347 6.347 0 0 1-1.58 2.913l6.17 6.176 2.245-2.247-6.835-6.842Zm-1.642 2.978a6.342 6.342 0 0 1-2.838 1.679l2.245 8.387 3.067-.823-2.474-9.243Zm-2.953 1.71a6.35 6.35 0 0 1-3.28-.029l-2.246 8.394 3.067.823 2.46-9.189Zm-3.387-.06a6.348 6.348 0 0 1-2.788-1.704l-6.185 6.19 2.245 2.248 6.728-6.734Zm-2.839-1.759a6.343 6.343 0 0 1-1.54-2.877l-8.545 2.292.821 3.07 9.264-2.485Z"/></g><defs><clipPath id="a"><path fill="#fff" d="M0 0h131v32H0z"/></clipPath></defs></svg>